<svg width="41" height="40" fill="none" xmlns="http://www.w3.org/2000/svg"><path fill-rule="evenodd" clip-rule="evenodd" d="M20.46 5c8.285 0 15 6.716 15 15 0 8.284-6.715 15-15 15-8.283 0-15-6.716-15-15 0-8.284 6.717-15 15-15zm18.334 15c0-10.125-8.208-18.333-18.333-18.333C10.336 1.667 2.128 9.875 2.128 20c0 10.125 8.208 18.333 18.333 18.333 10.125 0 18.333-8.208 18.333-18.333z" fill="url(#paint0_linear_3_93)"/><path fill-rule="evenodd" clip-rule="evenodd" d="M21.64 12.155a1.667 1.667 0 00-2.358 0l-6.666 6.667a1.666 1.666 0 000 2.357l6.666 6.666a1.667 1.667 0 002.358-2.357L16.15 20l5.489-5.488c.65-.651.65-1.706 0-2.357z" fill="url(#paint1_linear_3_93)"/><path fill-rule="evenodd" clip-rule="evenodd" d="M28.794 20c0-.92-.746-1.667-1.666-1.667H13.794a1.667 1.667 0 000 3.334h13.334c.92 0 1.666-.747 1.666-1.667z" fill="url(#paint2_linear_3_93)"/><defs><linearGradient id="paint0_linear_3_93" x1="20.461" y1="1.667" x2="20.461" y2="38.333" gradientUnits="userSpaceOnUse"><stop stop-color="#A5A8F5"/><stop offset=".5" stop-color="#B8BAF5"/><stop offset="1" stop-color="#9296F7"/></linearGradient><linearGradient id="paint1_linear_3_93" x1="17.128" y1="11.667" x2="17.128" y2="28.333" gradientUnits="userSpaceOnUse"><stop stop-color="#A5A8F5"/><stop offset=".5" stop-color="#B8BAF5"/><stop offset="1" stop-color="#9296F7"/></linearGradient><linearGradient id="paint2_linear_3_93" x1="20.461" y1="18.333" x2="20.461" y2="21.667" gradientUnits="userSpaceOnUse"><stop stop-color="#A5A8F5"/><stop offset=".5" stop-color="#B8BAF5"/><stop offset="1" stop-color="#9296F7"/></linearGradient></defs></svg>