<svg width="41" height="40" fill="none" xmlns="http://www.w3.org/2000/svg"><path fill-rule="evenodd" clip-rule="evenodd" d="M20.461 5c-8.284 0-15 6.716-15 15 0 8.284 6.716 15 15 15 8.284 0 15-6.716 15-15 0-8.284-6.716-15-15-15zM2.128 20c0-10.125 8.208-18.333 18.333-18.333 10.125 0 18.333 8.208 18.333 18.333 0 10.125-8.208 18.333-18.333 18.333-10.125 0-18.333-8.208-18.333-18.333z" fill="url(#paint0_linear_3_100)"/><path fill-rule="evenodd" clip-rule="evenodd" d="M19.282 12.155a1.666 1.666 0 012.357 0l6.667 6.667c.651.65.651 1.706 0 2.357l-6.667 6.666a1.667 1.667 0 11-2.357-2.357L24.771 20l-5.489-5.488a1.667 1.667 0 010-2.357z" fill="url(#paint1_linear_3_100)"/><path fill-rule="evenodd" clip-rule="evenodd" d="M12.128 20c0-.92.746-1.667 1.666-1.667h13.334a1.667 1.667 0 110 3.334H13.794c-.92 0-1.666-.747-1.666-1.667z" fill="url(#paint2_linear_3_100)"/><defs><linearGradient id="paint0_linear_3_100" x1="20.461" y1="1.667" x2="20.461" y2="38.333" gradientUnits="userSpaceOnUse"><stop stop-color="#A5A8F5"/><stop offset=".5" stop-color="#B8BAF5"/><stop offset="1" stop-color="#9296F7"/></linearGradient><linearGradient id="paint1_linear_3_100" x1="23.794" y1="11.667" x2="23.794" y2="28.333" gradientUnits="userSpaceOnUse"><stop stop-color="#A5A8F5"/><stop offset=".5" stop-color="#B8BAF5"/><stop offset="1" stop-color="#9296F7"/></linearGradient><linearGradient id="paint2_linear_3_100" x1="20.461" y1="18.333" x2="20.461" y2="21.667" gradientUnits="userSpaceOnUse"><stop stop-color="#A5A8F5"/><stop offset=".5" stop-color="#B8BAF5"/><stop offset="1" stop-color="#9296F7"/></linearGradient></defs></svg>