<svg width="55" height="52" fill="none" xmlns="http://www.w3.org/2000/svg"><path d="M53.797 6.98a.895.895 0 00-.68-.312H10.798L9.073.885a.898.898 0 00-.86-.64H1.595a.896.896 0 100 1.794h5.95l10.902 36.533.006.012 1.354 4.606a4.672 4.672 0 00-1.385 3.323 4.7 4.7 0 004.693 4.695c2.504 0 4.549-1.978 4.675-4.455h11.754c0 .033-.005.065-.005.099a4.696 4.696 0 004.69 4.69 4.696 4.696 0 004.69-4.69 4.697 4.697 0 00-4.69-4.691 4.693 4.693 0 00-4.287 2.798H27.534a4.666 4.666 0 00-1.105-1.762 4.656 4.656 0 00-3.313-1.374c-.616 0-1.203.122-1.741.339l-.867-2.95h27.905c.443 0 .82-.323.886-.76L54.003 7.7a.896.896 0 00-.206-.72zm-9.568 36.975a2.9 2.9 0 012.897 2.897 2.9 2.9 0 01-2.897 2.898 2.9 2.9 0 01-2.896-2.898 2.9 2.9 0 012.896-2.897zm-21.114-.337a2.87 2.87 0 012.045.848 2.9 2.9 0 01-2.046 4.95 2.903 2.903 0 01-2.899-2.902 2.902 2.902 0 012.9-2.896zm24.527-6.199H19.98l-1.696-5.768a.894.894 0 00-.09-.202l-6.86-22.987H52.07l-4.429 28.957z" fill="#fff"/></svg>