<svg width="1920" height="626" fill="none" xmlns="http://www.w3.org/2000/svg"><mask id="a" style="mask-type:alpha" maskUnits="userSpaceOnUse" x="0" y="0" width="1921" height="626"><path d="M929.02 601.349C500.272 556.994 131.188 591.397.24 614.143V0h1920v601.349c-151.76 18.481-562.47 44.354-991.22 0z" fill="#C4C4C4"/></mask><g mask="url(#a)"><path fill="url(#paint0_linear_2_192)" d="M.461-84.458h1920v1080H.461z"/><path d="M439.01 308.072c135.461 23.191 120.257 121.553 95.722 167.834-48.457 168.607-68.826 342.441-72.954 408.283 28.594 542.161 359.928 23.376 363.825-56.782 3.118-64.126 133.168-49.754 197.807-34.552 634.03 57.74 441.83-230.988 328.01-321.954-113.82-90.966 90.76 27.2 92-406.323 1.24-433.524-251.29-443.256-365.1-210.687C964.515 86.459 806.405 9.454 572.461 53.931 338.516 98.41 269.683 279.084 439.01 308.073z" stroke="url(#paint1_linear_2_192)" stroke-opacity=".8"/><path d="M446.879 309.638c133.335 22.827 118.369 119.644 94.219 165.199-47.696 165.96-67.745 337.065-71.808 401.873 28.145 533.65 354.278 23.009 358.114-55.89 3.069-63.119 131.078-48.973 194.696-34.01 624.08 56.834 434.9-227.362 322.87-316.9-112.04-89.538 89.33 26.773 90.55-399.945 1.23-426.718-247.34-436.297-359.36-207.379-112.025 228.917-267.653 153.12-497.925 196.9S280.21 281.105 446.879 309.639z" stroke="url(#paint2_linear_2_192)" stroke-opacity=".8"/><path d="M456.388 311.529c130.766 22.387 116.088 117.339 92.404 162.016-46.777 162.761-66.44 330.57-70.425 394.129 27.603 523.366 347.451 22.566 351.214-54.813 3.009-61.903 128.551-48.029 190.949-33.354 612.05 55.738 426.52-222.982 316.64-310.794-109.88-87.813 87.61 26.257 88.81-392.238 1.2-418.495-242.58-427.89-352.44-203.383C963.677 97.598 811.048 23.262 585.213 66.198 359.378 109.134 292.931 283.545 456.388 311.53z" stroke="url(#paint3_linear_2_192)" stroke-opacity=".8"/><path d="M464.312 313.105c128.625 22.02 114.188 115.417 90.891 159.363-46.011 160.097-65.352 325.157-69.271 387.675 27.151 514.797 341.761 22.197 345.462-53.915 2.961-60.889 126.447-47.243 187.816-32.808 602.04 54.826 419.54-219.33 311.46-305.705-108.07-86.375 86.18 25.828 87.36-385.815 1.18-411.643-238.61-420.883-346.67-200.053C963.294 102.677 813.165 29.558 591.028 71.791 368.891 114.025 303.532 285.58 464.312 313.105z" stroke="url(#paint4_linear_2_192)" stroke-opacity=".8"/><path d="M471.784 314.591c126.606 21.675 112.395 113.606 89.464 156.861-45.288 157.584-64.326 320.053-68.184 381.59 26.725 506.718 336.397 21.848 340.04-53.069 2.914-59.933 124.461-46.501 184.866-32.293 592.59 53.965 412.96-215.887 306.58-300.906-106.39-85.019 84.82 25.422 85.98-379.759 1.16-405.18-234.86-414.276-341.23-196.912C962.933 107.467 815.16 35.495 596.51 77.066c-218.649 41.57-282.983 210.431-124.726 237.525z" stroke="url(#paint5_linear_2_192)" stroke-opacity=".8"/><path d="M480.813 316.386c124.166 21.258 110.23 111.417 87.74 153.839-44.416 154.547-63.086 313.886-66.87 374.237 26.21 496.948 329.915 21.427 333.487-52.047 2.858-58.778 122.063-45.605 181.31-31.671 581.16 52.926 404.99-211.726 300.66-295.107-104.33-83.38 83.19 24.932 84.33-372.44 1.14-397.373-230.34-406.294-334.65-193.119C962.498 113.253 817.573 42.67 603.136 83.438 388.7 124.207 325.606 289.815 480.813 316.386z" stroke="url(#paint6_linear_2_192)" stroke-opacity=".8"/><path d="M488.877 317.99c121.987 20.885 108.295 109.462 86.2 151.14-43.637 151.834-61.98 308.377-65.697 367.669 25.75 488.231 324.126 21.051 327.635-51.133 2.808-57.747 119.922-44.805 178.125-31.115 570.97 51.997 397.89-208.012 295.39-289.929-102.5-81.917 81.73 24.495 82.85-365.905 1.12-390.4-226.3-399.164-328.78-189.73C962.109 118.422 819.727 49.076 609.053 89.13c-210.674 40.053-272.66 202.755-120.176 228.86z" stroke="url(#paint7_linear_2_192)" stroke-opacity=".8"/><path d="M495.964 319.4c120.072 20.557 106.595 107.743 84.847 148.767-42.952 149.451-61.007 303.537-64.665 361.898 25.345 480.565 319.037 20.721 322.491-50.33 2.764-56.841 118.039-44.102 175.333-30.627 562 51.18 391.64-204.746 290.75-285.378-100.89-80.631 80.45 24.11 81.55-360.161 1.1-384.272-222.75-392.898-323.62-186.751C961.767 122.965 821.62 54.708 614.253 94.132 406.887 133.557 345.874 293.705 495.964 319.4z" stroke="url(#paint8_linear_2_192)" stroke-opacity=".8"/><path d="M504.527 321.103c117.758 20.161 104.54 105.667 83.212 145.9-42.124 146.572-59.831 297.688-63.419 354.925 24.857 471.312 312.889 20.321 316.277-49.361 2.71-55.745 115.764-43.252 171.953-30.037 551.17 50.195 384.09-200.8 285.15-279.878-98.95-79.078 78.89 23.646 79.97-353.221 1.08-376.867-218.45-385.327-317.38-183.152C961.354 128.453 823.907 61.51 620.537 100.175c-203.371 38.666-263.208 195.727-116.01 220.927z" stroke="url(#paint9_linear_2_192)" stroke-opacity=".8"/><path d="M511.662 322.522c115.831 19.83 102.829 103.936 81.85 143.511-41.434 144.171-58.851 292.813-62.381 349.113 24.45 463.594 307.766 19.988 311.099-48.553 2.666-54.833 113.869-42.543 169.14-29.545 542.14 49.373 377.8-197.513 280.47-275.295-97.32-77.783 77.61 23.258 78.67-347.438 1.06-370.695-214.87-379.017-312.19-180.153-97.31 198.864-232.506 133.018-432.547 171.05-200.04 38.032-258.898 192.522-114.111 217.31z" stroke="url(#paint10_linear_2_192)" stroke-opacity=".8"/><path d="M518.391 323.86c114.012 19.519 101.215 102.305 80.565 141.258-40.783 141.909-57.927 288.217-61.401 343.633 24.066 456.309 302.934 19.674 306.214-47.79 2.625-53.972 112.082-41.876 166.481-29.081 533.64 48.597 371.88-194.413 276.08-270.975-95.8-76.561 76.38 22.894 77.43-341.983 1.04-364.876-211.5-373.067-307.29-177.325-95.785 195.742-228.859 130.93-425.759 168.365-196.901 37.435-254.834 189.5-112.32 213.898z" stroke="url(#paint11_linear_2_192)" stroke-opacity=".8"/><path d="M526.522 325.478c111.815 19.143 99.265 100.334 79.013 138.537-39.998 139.173-56.812 282.662-60.219 337.01 23.603 447.515 297.097 19.296 300.314-46.869 2.574-52.932 109.922-41.069 163.27-28.521 523.36 47.661 364.71-190.666 270.76-265.752-93.95-75.087 74.91 22.452 75.94-335.393 1.02-357.846-207.43-365.879-301.37-173.909-93.937 191.97-224.447 128.407-417.553 165.121S386.754 301.55 526.522 325.478z" stroke="url(#paint12_linear_2_192)" stroke-opacity=".8"/><path d="M533.251 326.816c109.997 18.831 97.651 98.702 77.728 136.283-39.348 136.911-55.888 278.066-59.239 331.53 23.218 440.241 292.265 18.982 295.43-46.107 2.532-52.071 108.134-40.401 160.62-28.057 514.84 46.886 358.78-187.565 266.35-261.43-92.42-73.866 73.7 22.087 74.71-329.94 1-352.026-204.06-359.928-296.47-171.08-92.412 188.849-220.799 126.32-410.765 162.436-189.966 36.117-245.859 182.826-108.364 206.365z" stroke="url(#paint13_linear_2_192)" stroke-opacity=".8"/><path d="M539.642 328.087c108.269 18.536 96.117 97.153 76.507 134.144-38.73 134.762-55.01 273.701-58.309 326.326 22.854 433.333 287.678 18.684 290.793-45.383 2.492-51.254 106.436-39.767 158.097-27.617 506.76 46.15 353.15-184.621 262.17-257.327-90.97-72.705 72.54 21.741 73.53-324.759 1-346.5-200.85-354.279-291.81-168.395C959.66 150.96 833.288 89.412 646.304 124.962c-186.984 35.55-242 179.956-106.662 203.125z" stroke="url(#paint14_linear_2_192)" stroke-opacity=".8"/><path d="M547.363 329.623c106.184 18.179 94.265 95.281 75.033 131.559-37.983 132.164-53.95 268.427-57.185 320.038 22.413 424.98 282.134 18.323 285.189-44.509 2.444-50.266 104.385-39.001 155.05-27.084 497 45.26 346.34-181.064 257.12-252.369-89.22-71.305 71.14 21.322 72.11-318.501.98-339.824-196.97-347.452-286.18-165.15-89.213 182.302-213.149 121.94-396.53 156.805C468.59 165.276 414.634 306.9 547.363 329.623z" stroke="url(#paint15_linear_2_192)" stroke-opacity=".8"/><path d="M553.798 330.902c104.444 17.881 92.721 93.721 73.804 129.405-37.361 130.001-53.067 264.032-56.249 314.797 22.047 418.026 277.514 18.024 280.519-43.779 2.404-49.444 102.677-38.362 152.508-26.641 488.86 44.519 340.67-178.099 252.91-248.236-87.76-70.137 69.98 20.972 70.94-313.287.96-334.258-193.76-341.762-281.5-162.445-87.753 179.317-209.66 119.943-390.038 154.237-180.378 34.294-233.45 173.598-102.894 195.949z" stroke="url(#paint16_linear_2_192)" stroke-opacity=".8"/><path d="M559.865 332.11c102.805 17.6 91.266 92.249 72.646 127.373-36.775 127.96-52.234 259.887-55.366 309.856 21.701 411.461 273.158 17.741 276.116-43.093 2.366-48.667 101.064-37.759 150.119-26.222 481.18 43.82 335.32-175.303 248.94-244.339-86.39-69.037 68.88 20.643 69.82-308.369.94-329.012-190.71-336.398-277.08-159.895-86.376 176.502-206.369 118.06-383.916 151.816C483.598 172.992 431.359 310.11 559.865 332.11z" stroke="url(#paint17_linear_2_192)" stroke-opacity=".8"/><path d="M567.197 333.568c100.824 17.261 89.507 90.471 71.246 124.919-36.066 125.493-51.227 254.878-54.299 303.884 21.282 403.529 267.894 17.399 270.795-42.262 2.321-47.729 99.117-37.032 147.221-25.717 471.92 42.976 328.86-171.925 244.15-239.631-84.72-67.706 67.55 20.245 68.47-302.426.93-322.672-187.04-329.915-271.74-156.815-84.709 173.101-202.39 115.786-376.515 148.891-174.125 33.105-225.358 167.58-99.328 189.157z" stroke="url(#paint18_linear_2_192)" stroke-opacity=".8"/><path d="M573.744 334.87c99.055 16.959 87.937 88.884 69.996 122.727-35.433 123.292-50.328 250.407-53.346 298.553 20.909 396.45 263.193 17.093 266.043-41.521 2.28-46.892 97.378-36.382 144.643-25.266 463.63 42.222 323.09-168.908 239.86-235.426-83.23-66.518 66.36 19.89 67.27-297.119.91-317.01-183.75-324.126-266.97-154.063-83.225 170.063-198.842 113.754-369.911 146.278-171.07 32.524-221.403 164.64-97.585 185.837z" stroke="url(#paint19_linear_2_192)" stroke-opacity=".8"/><path d="M579.499 336.015c97.5 16.692 86.556 87.489 68.897 120.8-34.877 121.357-49.538 246.476-52.509 293.866 20.581 390.229 259.062 16.825 261.867-40.869 2.244-46.155 95.849-35.811 142.366-24.869 456.36 41.559 318.02-166.257 236.1-231.731-81.93-65.473 65.32 19.578 66.22-292.455.89-312.033-180.87-319.038-262.79-151.644-81.913 167.394-195.714 111.968-364.098 143.982-168.385 32.013-217.928 162.055-96.053 182.92z" stroke="url(#paint20_linear_2_192)" stroke-opacity=".8"/><path d="M586.452 337.398c95.621 16.371 84.889 85.803 67.57 118.473-34.206 119.018-48.584 241.726-51.498 288.203 20.185 382.706 254.07 16.501 256.821-40.082 2.201-45.266 94.002-35.121 139.628-24.39 447.557 40.758 311.887-163.053 231.547-227.265-80.35-64.212 64.06 19.201 64.94-286.819.87-306.021-177.39-312.89-257.72-148.722-80.338 164.168-191.947 109.81-357.086 141.207-165.139 31.396-213.728 158.932-94.202 179.395z" stroke="url(#paint21_linear_2_192)" stroke-opacity=".8"/><path d="M592.247 338.55c94.055 16.102 83.498 84.398 66.463 116.533-33.645 117.068-47.788 237.767-50.654 283.483 19.854 376.444 249.909 16.231 252.615-39.425 2.165-44.525 92.463-34.546 137.342-23.991 440.227 40.091 306.777-160.382 227.747-223.543-79.03-63.161 63.02 18.886 63.88-282.123.87-301.01-174.48-307.767-253.5-146.287-79.018 161.48-188.799 108.012-351.234 138.895-162.435 30.882-210.228 156.33-92.659 176.458z" stroke="url(#paint22_linear_2_192)" stroke-opacity=".8"/><path d="M597.711 339.638c92.579 15.849 82.188 83.073 65.42 114.703-33.117 115.231-47.038 234.036-49.859 279.034 19.542 370.535 245.986 15.976 248.65-38.806 2.131-43.826 91.011-34.004 135.185-23.615 433.323 39.462 301.963-157.865 224.173-220.034-77.79-62.169 62.03 18.59 62.88-277.694.85-296.284-171.74-302.936-249.52-143.99C956.859 188.18 848.801 135.551 688.916 165.95c-159.886 30.398-206.929 153.876-91.205 173.688z" stroke="url(#paint23_linear_2_192)" stroke-opacity=".8"/><path d="M604.313 340.951c90.795 15.544 80.604 81.472 64.159 112.493-32.479 113.011-46.131 229.526-48.898 273.657 19.166 363.389 241.247 15.668 243.859-38.059 2.09-42.981 89.257-33.348 132.58-23.159 424.967 38.701 296.147-154.823 219.857-215.794-76.29-60.971 60.83 18.231 61.66-272.343.84-290.575-168.43-297.098-244.71-141.216S850.565 140.798 693.76 170.61c-156.804 29.812-202.94 150.911-89.447 170.341z" stroke="url(#paint24_linear_2_192)" stroke-opacity=".8"/><path d="M610.824 342.246c89.036 15.243 79.042 79.893 62.916 110.313-31.85 110.821-45.238 225.079-47.951 268.355 18.794 356.346 236.572 15.364 239.134-37.321 2.049-42.149 87.528-32.702 130.011-22.711 416.736 37.952 290.406-151.823 215.596-211.613-74.81-59.79 59.65 17.878 60.47-267.067.82-284.944-165.17-291.341-239.97-138.48-74.804 152.863-178.726 102.249-332.492 131.483-153.766 29.235-199.009 147.987-87.714 167.041z" stroke="url(#paint25_linear_2_192)" stroke-opacity=".8"/><path d="M615.995 343.272c87.638 15.004 77.802 78.64 61.929 108.582-31.35 109.082-44.528 221.545-47.198 264.142 18.499 350.754 232.858 15.123 235.38-36.735 2.017-41.487 86.154-32.189 127.97-22.354 410.194 37.356 285.854-149.44 212.214-208.291-73.64-58.852 58.71 17.597 59.52-262.875.8-280.471-162.58-286.768-236.21-136.305-73.624 150.462-175.915 100.643-327.267 129.418-151.353 28.775-195.885 145.664-86.338 164.418z" stroke="url(#paint26_linear_2_192)" stroke-opacity=".8"/><path d="M622.246 344.517c85.95 14.715 76.302 77.124 60.735 106.49-30.745 106.979-43.669 217.276-46.288 259.052 18.142 344.001 228.371 14.832 230.844-36.028 1.978-40.687 84.494-31.568 125.504-21.923 402.289 36.636 280.339-146.56 208.119-204.277-72.21-57.717 57.59 17.258 58.38-257.809.79-275.067-159.45-281.242-231.66-133.68-72.205 147.564-172.524 98.704-320.96 126.925-148.436 28.221-192.11 142.857-84.674 161.25z" stroke="url(#paint27_linear_2_192)" stroke-opacity=".8"/><path d="M627.454 345.553c84.542 14.474 75.053 75.861 59.741 104.746-30.242 105.227-42.955 213.718-45.531 254.81 17.846 338.361 224.632 14.589 227.064-35.438 1.946-40.021 83.111-31.051 123.45-21.564 395.702 36.036 275.752-144.16 204.712-200.932-71.03-56.772 56.65 16.976 57.42-253.587.78-270.563-156.83-276.637-227.86-131.49-71.027 145.146-169.703 97.087-315.709 124.845-146.005 27.759-188.964 140.518-83.287 158.61z" stroke="url(#paint28_linear_2_192)" stroke-opacity=".8"/><path d="M632.366 346.529c83.215 14.247 73.874 74.671 58.802 103.102-29.767 103.576-42.28 210.363-44.815 250.81 17.565 333.049 221.105 14.36 223.499-34.881 1.916-39.393 81.806-30.565 121.512-21.226 389.486 35.47 271.426-141.897 201.506-197.778-69.93-55.881 55.75 16.709 56.51-249.607.76-266.316-154.37-272.294-224.28-129.426-69.914 142.868-167.041 95.563-310.755 122.886-143.713 27.324-185.998 138.312-81.979 156.12z" stroke="url(#paint29_linear_2_192)" stroke-opacity=".8"/><path d="M638.3 347.71c81.612 13.972 72.451 73.232 57.67 101.115-29.194 101.58-41.466 206.31-43.952 245.977 17.227 326.638 216.845 14.083 219.193-34.209 1.878-38.634 80.229-29.975 119.17-20.816C1372.37 674.563 1256.57 500.613 1188 445.809c-68.57-54.804 54.68 16.388 55.43-244.796.74-261.184-151.4-267.047-219.96-126.932-68.57 140.115-163.826 93.722-304.77 120.518-140.944 26.797-182.414 135.647-80.4 153.111z" stroke="url(#paint30_linear_2_192)" stroke-opacity=".8"/><path d="M643.6 348.764c80.179 13.727 71.18 71.947 56.657 99.341-28.681 99.797-40.737 202.689-43.18 241.661 16.924 320.904 213.039 13.836 215.346-33.609 1.846-37.956 78.822-29.449 117.079-20.451 375.278 34.176 261.518-136.722 194.148-190.564-67.37-53.842 53.72 16.1 54.46-240.501.73-256.6-148.74-262.361-216.1-124.705-67.366 137.657-160.95 92.077-299.421 118.404-138.471 26.326-179.213 133.266-78.989 150.424z" stroke="url(#paint31_linear_2_192)" stroke-opacity=".8"/><path d="M648.258 349.692c78.921 13.511 70.062 70.817 55.768 97.781-28.231 98.23-40.098 199.507-42.503 237.867 16.659 315.87 209.696 13.619 211.966-33.081 1.817-37.36 77.585-28.987 115.242-20.131 369.389 33.64 257.419-134.575 191.099-187.572-66.31-52.997 52.88 15.847 53.6-236.725.73-252.573-146.4-258.243-212.71-122.747-66.3 135.495-158.416 90.631-294.713 116.544-136.297 25.913-176.4 131.175-77.749 148.064z" stroke="url(#paint32_linear_2_192)" stroke-opacity=".8"/><path d="M653.886 350.81c77.4 13.251 68.713 69.453 54.694 95.897-27.687 96.338-39.326 195.663-41.684 233.283 16.338 309.78 205.655 13.357 207.881-32.443 1.782-36.64 76.09-28.429 113.021-19.743 362.272 32.992 252.452-131.981 187.422-183.957-65.04-51.976 51.86 15.541 52.56-232.164.71-247.706-143.58-253.266-208.6-120.382-65.032 132.885-155.372 88.885-289.043 114.299s-173 128.647-76.251 145.21z" stroke="url(#paint33_linear_2_192)" stroke-opacity=".8"/><path d="M658.577 351.743c76.132 13.034 67.587 68.315 53.798 94.327-27.234 94.76-38.682 192.459-41.002 229.463 16.071 304.707 202.287 13.138 204.478-31.912 1.752-36.04 74.843-27.963 111.17-19.419 356.339 32.451 248.319-129.821 184.349-180.946-63.97-51.124 51.01 15.288 51.71-228.362.7-243.65-141.23-249.12-205.2-118.41-63.958 130.708-152.819 87.429-284.301 112.427-131.482 24.997-170.168 126.54-75.002 142.832z" stroke="url(#paint34_linear_2_192)" stroke-opacity=".8"/><path d="M662.999 352.622c74.938 12.83 66.526 67.243 52.954 92.846-26.807 93.273-38.075 189.438-40.358 225.861 15.818 299.924 199.112 12.932 201.268-31.411 1.725-35.474 73.668-27.524 109.424-19.114 350.743 31.942 244.423-127.783 181.463-178.105-62.97-50.322 50.2 15.047 50.89-224.778.69-239.825-139.02-245.208-201.97-116.552-62.962 128.657-150.428 86.058-279.846 110.663-129.418 24.605-167.496 124.554-73.825 140.59z" stroke="url(#paint35_linear_2_192)" stroke-opacity=".8"/><path d="M668.344 353.686c73.493 12.582 65.244 65.947 51.933 91.056-26.29 91.476-37.341 185.788-39.58 221.51 15.513 294.144 195.275 12.682 197.389-30.806 1.692-34.791 72.249-26.994 107.316-18.746 343.988 31.326 239.718-125.321 177.958-174.673-61.75-49.353 49.24 14.757 49.92-220.446.67-235.204-136.34-240.484-198.08-114.306-61.749 126.177-147.53 84.399-274.454 108.53s-164.269 122.153-72.402 137.881z" stroke="url(#paint36_linear_2_192)" stroke-opacity=".8"/><path d="M672.766 354.565c72.298 12.378 64.183 64.875 51.089 89.576-25.862 89.988-36.734 182.767-38.937 217.907 15.261 289.361 192.1 12.477 194.18-30.305 1.664-34.225 71.074-26.554 105.571-18.441C1323.06 644.119 1220.48 490.02 1159.74 441.47c-60.75-48.55 48.43 14.517 49.1-216.862.66-231.378-134.12-236.573-194.86-112.447-60.743 124.126-145.129 83.027-269.989 106.765-124.86 23.739-161.597 120.167-71.225 135.639z" stroke="url(#paint37_linear_2_192)" stroke-opacity=".8"/><path d="M676.966 355.4c71.164 12.183 63.176 63.856 50.287 88.17-25.456 88.575-36.157 179.897-38.325 214.486 15.021 284.819 189.084 12.281 191.131-29.829 1.638-33.688 69.958-26.138 103.914-18.152 333.077 30.334 232.117-121.347 172.317-169.135-59.79-47.788 47.68 14.29 48.33-213.457.66-227.746-132.01-232.859-191.8-110.682-59.786 122.178-142.847 81.724-265.747 105.09S588.012 340.171 676.966 355.4z" stroke="url(#paint38_linear_2_192)" stroke-opacity=".8"/><path d="M682.041 356.41c69.792 11.948 61.959 62.626 49.318 86.471-24.966 86.868-35.46 176.43-37.587 210.353 14.732 279.33 185.44 12.044 187.448-29.255 1.607-33.038 68.61-25.634 101.912-17.802 326.668 29.749 227.638-119.008 168.998-165.875-58.64-46.867 46.76 14.014 47.4-209.344.64-223.358-129.47-228.372-188.11-108.549-58.63 119.823-140.091 80.148-260.623 103.064-120.532 22.916-155.995 116.001-68.756 130.937z" stroke="url(#paint39_linear_2_192)" stroke-opacity=".8"/><path d="M686.27 357.25c68.65 11.753 60.944 61.6 48.51 85.055-24.556 85.446-34.879 173.541-36.971 206.908C712.3 923.97 880.213 661.06 882.188 620.438c1.58-32.498 67.487-25.214 100.242-17.511 321.32 29.262 223.91-117.06 166.23-163.159-57.68-46.1 46 13.784 46.63-205.916.62-219.7-127.35-224.632-185.03-106.772-57.675 117.861-137.801 78.836-256.359 101.377-118.559 22.54-153.442 114.102-67.631 128.793z" stroke="url(#paint40_linear_2_192)" stroke-opacity=".8"/><path d="M690.259 358.043c67.571 11.569 59.987 60.634 47.748 83.72-24.171 84.105-34.332 170.817-36.391 203.661 14.264 270.443 179.541 11.66 181.485-28.324 1.555-31.988 66.427-24.819 98.669-17.236 316.27 28.803 220.4-115.222 163.62-160.598-56.78-45.376 45.27 13.568 45.89-202.683.62-216.252-125.35-221.107-182.12-105.096-56.767 116.011-135.636 77.598-252.333 99.785-116.697 22.187-151.033 112.311-66.568 126.771z" stroke="url(#paint41_linear_2_192)" stroke-opacity=".8"/><path d="M695.078 359.001c66.269 11.346 58.831 59.465 46.828 82.107-23.705 82.484-33.67 167.526-35.69 199.736 13.989 265.232 176.081 11.436 177.988-27.778 1.525-31.371 65.147-24.34 96.767-16.903C1291.15 624.41 1197.12 483.16 1141.44 438.659c-55.68-44.502 44.4 13.307 45.01-198.778.61-212.084-122.94-216.845-178.61-103.07-55.679 113.775-133.028 76.103-247.477 97.862-114.448 21.759-148.122 110.147-65.285 124.328z" stroke="url(#paint42_linear_2_192)" stroke-opacity=".8"/><path d="M699.381 359.859c65.107 11.146 57.799 58.422 46.007 80.666-23.289 81.036-33.079 164.586-35.063 196.231 13.743 260.578 172.991 11.235 174.864-27.291 1.498-30.82 64.004-23.913 95.069-16.606 304.732 27.751 212.362-111.019 157.652-154.74-54.7-43.721 43.62 13.073 44.22-195.29.6-208.363-120.78-213.04-175.48-101.262-54.697 111.779-130.688 74.768-243.128 96.146-112.441 21.377-145.524 108.213-64.141 122.146z" stroke="url(#paint43_linear_2_192)" stroke-opacity=".8"/><path d="M703.164 360.611c64.084 10.971 56.891 57.504 45.284 79.399-22.924 79.765-32.56 162.003-34.513 193.151 13.527 256.487 170.275 11.059 172.119-26.862 1.475-30.337 62.999-23.538 93.577-16.346 299.949 27.316 209.029-109.277 155.179-152.311-53.85-43.034 42.94 12.868 43.52-192.224.59-205.092-118.88-209.696-172.72-99.672-53.839 110.024-128.638 73.594-239.313 94.635-110.675 21.042-143.239 106.516-63.133 120.23z" stroke="url(#paint44_linear_2_192)" stroke-opacity=".8"/><path d="M707.734 361.52c62.85 10.76 55.795 56.396 44.412 77.869-22.482 78.228-31.933 158.881-33.848 189.429 13.267 251.545 166.994 10.846 168.803-26.344 1.446-29.753 61.785-23.084 91.773-16.031 294.166 26.789 204.996-107.171 152.186-149.376s42.11 12.62 42.69-188.52c.57-201.14-116.59-205.655-169.4-97.751-52.799 107.903-126.157 72.175-234.699 92.812-108.542 20.636-140.479 104.462-61.917 117.912z" stroke="url(#paint45_linear_2_192)" stroke-opacity=".8"/><path d="M711.543 362.278c61.82 10.583 54.881 55.472 43.684 76.594-22.114 76.946-31.41 156.279-33.294 186.327 13.05 247.426 164.26 10.668 166.039-25.913 1.423-29.265 60.773-22.706 90.271-15.769 289.357 26.351 201.637-105.416 149.697-146.93-51.95-41.514 41.42 12.414 41.98-185.433.57-197.846-114.68-202.287-166.62-96.15-51.933 106.136-124.09 70.994-230.855 91.292-106.765 20.298-138.178 102.752-60.902 115.982z" stroke="url(#paint46_linear_2_192)" stroke-opacity=".8"/><path d="M715.134 362.992c60.85 10.417 54.02 54.602 42.999 75.392-21.767 75.738-30.917 153.826-32.771 183.402 12.844 243.542 161.681 10.501 163.432-25.507 1.4-28.805 59.819-22.349 88.854-15.521 284.812 25.938 198.472-103.761 147.342-144.623-51.13-40.862 40.77 12.219 41.33-182.522.56-194.74-112.88-199.112-164-94.642-51.127 104.471-122.15 69.88-227.239 89.86-105.089 19.979-136.009 101.139-59.947 114.161z" stroke="url(#paint47_linear_2_192)" stroke-opacity=".8"/><path d="M719.473 363.855c59.678 10.216 52.979 53.549 42.17 73.939-21.347 74.279-30.321 150.861-32.139 179.868 12.597 238.848 158.566 10.298 160.283-25.015 1.373-28.251 58.666-21.919 87.141-15.222 279.322 25.437 194.652-101.762 144.502-141.837-50.14-40.075 39.99 11.983 40.54-179.005.54-190.988-110.71-195.275-160.85-92.817-50.136 102.457-119.791 68.533-222.855 88.127-103.064 19.595-133.388 99.19-58.792 111.962z" stroke="url(#paint48_linear_2_192)" stroke-opacity=".8"/><path d="M1855.18 389.317c47.71 75.642-2.39 150.453-33.41 178.403-95.47 118.897-181.24 253.823-212.19 306.424-228.07 459.246 143.71 169.436 180.91 104.922 29.75-51.607 79.06 14.502 99.99 54.004 245.82 312.13 291.52-6.26 283.11-128.796-8.4-122.534 26.8 60.301 219.48-296.863 192.69-357.163 88.9-470.538-62.9-326.13-151.8 144.407-185.36 14.918-305.22-45.975-119.85-60.894-229.4 59.458-169.77 154.011z" stroke="url(#paint49_linear_2_192)" stroke-opacity=".4"/><path d="M1857.86 393.891c46.96 74.455-2.36 148.092-32.89 175.603-93.98 117.03-178.4 249.838-208.86 301.614-224.49 452.032 141.45 166.772 178.07 103.275 29.29-50.797 77.81 14.273 98.42 53.157 241.96 307.23 286.94-6.17 278.67-126.776-8.27-120.61 26.37 59.355 216.03-292.202s87.5-463.152-61.92-321.011c-149.41 142.141-182.44 14.684-300.42-45.254-117.97-59.937-225.8 58.526-167.1 151.594z" stroke="url(#paint50_linear_2_192)" stroke-opacity=".4"/><path d="M1861.09 399.419c46.06 73.019-2.31 145.237-32.25 172.219-92.17 114.774-174.97 245.024-204.84 295.801-220.16 443.321 138.73 163.561 174.64 101.285 28.72-49.818 76.31 13.999 96.52 52.136 237.3 301.31 281.41-6.05 273.3-124.336-8.11-118.286 25.87 58.211 211.87-286.571 186.01-344.783 85.82-454.227-60.72-314.826-146.54 139.402-178.93 14.401-294.63-44.381-115.71-58.782-221.46 57.398-163.89 148.673z" stroke="url(#paint51_linear_2_192)" stroke-opacity=".4"/><path d="M1863.79 404.025c45.3 71.824-2.28 142.859-31.73 169.399-90.66 112.895-172.1 241.011-201.49 290.958-216.55 436.068 136.46 160.878 171.78 99.626 28.26-49.002 75.07 13.769 94.95 51.282 233.41 296.37 276.8-5.95 268.82-122.3-7.98-116.349 25.44 57.258 208.4-281.879s84.41-446.789-59.73-309.67c-144.14 137.119-175.99 14.165-289.8-43.655-113.81-57.819-217.83 56.458-161.2 146.239z" stroke="url(#paint52_linear_2_192)" stroke-opacity=".4"/><path d="M1866.33 408.367c44.58 70.697-2.25 140.617-31.23 166.74-89.24 111.123-169.4 237.228-198.33 286.391-213.15 429.222 134.32 158.352 169.09 98.062 27.81-48.233 73.89 13.553 93.45 50.48 229.75 291.72 272.46-5.86 264.61-120.383-7.86-114.522 25.04 56.359 205.13-277.454 180.08-333.813 83.08-439.776-58.8-304.809-141.87 134.967-173.23 13.943-285.25-42.969-112.03-56.913-214.41 55.571-158.67 143.942z" stroke="url(#paint53_linear_2_192)" stroke-opacity=".4"/><path d="M1869.39 413.615c43.73 69.335-2.19 137.907-30.62 163.527-87.52 108.982-166.13 232.657-194.5 280.872-209.05 420.946 131.73 155.306 165.82 96.173 27.28-47.304 72.47 13.292 91.65 49.503 225.32 286.1 267.21-5.744 259.51-118.059-7.7-112.316 24.56 55.273 201.18-272.108 176.61-327.381 81.48-431.301-57.66-298.935-139.14 132.366-169.9 13.674-279.76-42.142-109.87-55.815-210.28 54.501-155.62 141.169z" stroke="url(#paint54_linear_2_192)" stroke-opacity=".4"/><path d="M1872.14 418.302c42.96 68.118-2.16 135.487-30.1 160.657-85.97 107.07-163.21 228.575-191.08 275.944-205.38 413.557 129.42 152.577 162.91 94.485 26.8-46.474 71.2 13.059 90.05 48.634 221.36 281.078 262.52-5.642 254.95-115.987-7.57-110.345 24.13 54.303 197.65-267.333 173.51-321.636 80.05-423.733-56.65-293.689-136.7 130.043-166.91 13.434-274.85-41.402-107.94-54.837-206.59 53.544-152.88 138.691z" stroke="url(#paint55_linear_2_192)" stroke-opacity=".4"/><path d="M1874.54 422.422c42.29 67.048-2.12 133.36-29.61 158.135-84.63 105.389-160.66 224.986-188.09 271.612-202.16 407.071 127.39 150.181 160.36 93.002 26.37-45.744 70.07 12.853 88.63 47.87 217.89 276.669 258.4-5.554 250.95-114.166-7.45-108.613 23.75 53.451 194.54-263.136 170.8-316.587 78.8-417.081-55.76-289.08-134.55 128.002-164.29 13.224-270.53-40.752-106.25-53.975-203.35 52.704-150.49 136.515z" stroke="url(#paint56_linear_2_192)" stroke-opacity=".4"/><path d="M1877.45 427.399c41.48 65.756-2.08 130.79-29.04 155.088-83 103.358-157.56 220.651-184.47 266.378-198.26 399.225 124.94 147.288 157.27 91.21 25.87-44.863 68.73 12.606 86.92 46.948 213.7 271.337 253.43-5.447 246.12-111.967-7.31-106.519 23.29 52.421 190.8-258.065 167.5-310.487 77.27-409.044-54.69-283.509-131.96 125.535-161.13 12.968-265.32-39.967-104.2-52.935-199.43 51.688-147.59 133.884z" stroke="url(#paint57_linear_2_192)" stroke-opacity=".4"/><path d="M1879.88 431.546c40.79 64.68-2.05 128.649-28.57 152.548-81.64 101.666-154.98 217.038-181.44 262.016-195.02 392.69 122.88 144.877 154.69 89.717 25.44-44.128 67.6 12.399 85.5 46.179 210.19 266.894 249.27-5.358 242.08-110.133-7.18-104.775 22.91 51.562 187.67-253.84s76.02-402.346-53.78-278.866c-129.81 123.479-158.49 12.756-260.98-39.313-102.49-52.068-196.16 50.842-145.17 131.692z" stroke="url(#paint58_linear_2_192)" stroke-opacity=".4"/><path d="M1882.17 435.457c40.15 63.665-2.02 126.63-28.13 150.154-80.35 100.07-152.54 213.631-178.59 257.903-191.95 386.526 120.96 142.602 152.27 88.308 25.04-43.435 66.53 12.205 84.15 45.455 206.9 262.703 245.36-5.274 238.29-108.405-7.08-103.13 22.55 50.753 184.72-249.855 162.18-300.608 74.82-396.03-52.94-274.489-127.77 121.542-156 12.556-256.88-38.695s-193.08 50.044-142.89 129.624z" stroke="url(#paint59_linear_2_192)" stroke-opacity=".4"/><path d="M1884.93 440.184c39.38 62.438-1.98 124.19-27.58 147.261-78.81 98.141-149.61 209.514-175.15 252.933-188.26 379.072 118.62 139.854 149.33 86.606 24.56-42.598 65.26 11.97 82.53 44.579 202.91 257.637 240.63-5.172 233.7-106.315-6.94-101.144 22.11 49.774 181.16-245.041s73.38-388.399-51.92-269.199c-125.3 119.199-153 12.313-251.93-37.95-98.94-50.263-189.36 49.08-140.14 127.126z" stroke="url(#paint60_linear_2_192)" stroke-opacity=".4"/><path d="M1887.22 444.095c38.74 61.422-1.95 122.169-27.13 144.865-77.53 96.546-147.18 206.108-172.31 248.82-185.19 372.91 116.7 137.58 146.9 85.198 24.17-41.905 64.2 11.775 81.2 43.854 199.6 253.448 236.71-5.088 229.89-104.586-6.83-99.499 21.76 48.965 178.22-241.056s72.18-382.083-51.08-264.822c-123.26 117.261-150.51 12.114-247.84-37.332-97.32-49.446-186.28 48.281-137.85 125.059z" stroke="url(#paint61_linear_2_192)" stroke-opacity=".4"/><path d="M1889.39 447.809c38.13 60.458-1.92 120.252-26.71 142.592-76.31 95.03-144.86 202.872-169.6 244.914-182.28 367.055 114.87 135.42 144.6 83.86 23.78-41.247 63.19 11.591 79.92 43.166 196.47 249.469 233-5.008 226.28-102.945-6.71-97.936 21.42 48.197 175.42-237.272 154.01-285.468 71.06-376.084-50.27-260.664-121.33 115.42-148.15 11.923-243.95-36.747-95.8-48.67-183.35 47.524-135.69 123.096z" stroke="url(#paint62_linear_2_192)" stroke-opacity=".4"/><path d="M1892.02 452.297c37.39 59.293-1.88 117.935-26.2 139.844-74.84 93.199-142.07 198.962-166.33 240.195-178.77 359.984 112.65 132.81 141.81 82.244 23.33-40.453 61.97 11.367 78.38 42.334 192.69 244.666 228.51-4.912 221.92-100.961-6.58-96.05 21.01 47.268 172.05-232.7 151.03-279.967 69.68-368.837-49.31-255.641-118.99 113.195-145.29 11.693-239.25-36.039-93.95-47.732-179.82 46.608-133.07 120.724z" stroke="url(#paint63_linear_2_192)" stroke-opacity=".4"/><path d="M1894.2 456.038c36.79 58.322-1.85 116.003-25.76 137.554-73.61 91.672-139.74 195.704-163.61 236.261-175.84 354.087 110.81 130.636 139.49 80.898 22.94-39.79 60.96 11.181 77.09 41.64 189.54 240.659 224.77-4.831 218.29-99.308-6.48-94.476 20.66 46.495 169.23-228.889 148.56-275.383 68.54-362.798-48.5-251.455-117.05 111.342-142.91 11.502-235.33-35.449-92.41-46.95-176.88 45.845-130.9 118.748z" stroke="url(#paint64_linear_2_192)" stroke-opacity=".4"/><path d="M1896.27 459.565c36.2 57.406-1.82 114.182-25.36 135.395-72.46 90.233-137.55 192.632-161.04 232.552-173.09 348.528 109.06 128.586 137.29 79.628 22.59-39.166 60 11.005 75.89 40.987 186.56 236.883 221.24-4.756 214.86-97.749-6.38-92.994 20.34 45.764 166.57-225.296 146.23-271.061 67.47-357.103-47.74-247.509-115.21 109.595-140.67 11.322-231.63-34.891-90.97-46.214-174.1 45.125-128.84 116.883z" stroke="url(#paint65_linear_2_192)" stroke-opacity=".4"/><path d="M1898.76 463.826c35.51 56.3-1.79 111.982-24.87 132.786-71.06 88.494-134.9 188.92-157.94 228.071-169.75 341.817 106.97 126.108 134.65 78.094 22.15-38.411 58.85 10.793 74.43 40.197 182.96 232.316 216.97-4.664 210.72-95.866-6.26-91.201 19.94 44.883 163.36-220.954 143.41-265.837 66.16-350.222-46.82-242.739-112.99 107.482-137.96 11.103-227.17-34.22-89.21-45.322-170.75 44.256-126.36 114.631z" stroke="url(#paint66_linear_2_192)" stroke-opacity=".4"/><path d="M1900.98 467.632c34.89 55.312-1.75 110.017-24.43 130.455-69.82 86.942-132.53 185.605-155.17 224.07-166.77 335.813 105.09 123.894 132.29 76.723 21.76-37.737 57.81 10.604 73.12 39.491 179.75 228.239 213.17-4.582 207.02-94.183-6.14-89.601 19.6 44.095 160.5-217.077 140.9-261.173 65-344.076-46-238.48-111 105.597-135.54 10.909-223.18-33.619-87.65-44.527-167.76 43.479-124.15 112.62z" stroke="url(#paint67_linear_2_192)" stroke-opacity=".4"/><path d="M1902.94 470.977c34.34 54.444-1.73 108.29-24.05 128.407-68.72 85.577-130.45 182.692-152.73 220.552-164.15 330.544 103.44 121.95 130.21 75.519 21.42-37.145 56.91 10.438 71.97 38.872 176.93 224.653 209.83-4.51 203.78-92.705-6.05-88.194 19.28 43.403 157.97-213.67 138.69-257.072 63.98-338.675-45.28-234.736-109.26 103.939-133.41 10.738-219.68-33.091-86.27-43.828-165.11 42.797-122.19 110.852z" stroke="url(#paint68_linear_2_192)" stroke-opacity=".4"/><path d="M1905.3 475.019c33.68 53.395-1.69 106.203-23.58 125.933-67.4 83.928-127.94 179.171-149.79 216.302-160.99 324.176 101.45 119.6 127.7 74.064 21.01-36.429 55.81 10.236 70.58 38.122 173.53 220.33 205.79-4.423 199.85-90.918-5.93-86.495 18.92 42.566 154.93-209.553 136.02-252.118 62.75-332.148-44.4-230.212-107.16 101.936-130.84 10.53-215.45-32.454-84.61-42.984-161.93 41.972-119.84 108.716z" stroke="url(#paint69_linear_2_192)" stroke-opacity=".4"/><path d="M1907.27 478.386c33.13 52.52-1.66 104.464-23.2 123.871-66.29 82.553-125.84 176.237-147.33 212.76-158.35 318.863 99.78 117.641 125.61 72.851 20.66-35.833 54.89 10.068 69.43 37.498 170.68 216.724 202.41-4.351 196.57-89.429-5.83-85.079 18.61 41.869 152.39-206.121 133.79-247.991 61.73-326.71-43.67-226.443-105.4 100.267-128.7 10.358-211.92-31.923-83.22-42.28-159.28 41.285-117.88 106.936z" stroke="url(#paint70_linear_2_192)" stroke-opacity=".4"/><path d="M1909.13 481.563c32.6 51.696-1.64 102.824-22.84 121.927-65.25 81.257-123.87 173.47-145.02 209.42-155.86 313.86 98.22 115.794 123.64 71.707 20.34-35.27 54.03 9.911 68.34 36.91 168 213.313 199.23-4.283 193.49-88.026-5.74-83.743 18.31 41.212 150-202.885 131.69-244.098 60.75-321.582-42.99-222.889-103.75 98.693-126.68 10.196-208.59-31.421-81.92-41.616-156.79 40.636-116.03 105.257z" stroke="url(#paint71_linear_2_192)" stroke-opacity=".4"/><path d="M1911.37 485.4c31.98 50.7-1.6 100.843-22.39 119.577-64 79.692-121.48 170.128-142.23 205.385-152.86 307.818 96.33 113.563 121.26 70.325 19.94-34.59 52.99 9.72 67.02 36.199 164.76 209.204 195.39-4.2 189.76-86.33-5.63-82.129 17.96 40.418 147.11-198.975 129.15-239.394 59.58-315.385-42.16-218.593-101.75 96.791-124.24 9.999-204.58-30.816-80.33-40.814-153.76 39.853-113.79 103.228z" stroke="url(#paint72_linear_2_192)" stroke-opacity=".4"/><path d="M1913.59 489.184c31.35 49.718-1.58 98.89-21.97 117.261-62.75 78.148-119.12 166.832-139.47 201.405-149.9 301.85 94.46 111.363 118.91 68.963 19.56-33.92 51.97 9.531 65.72 35.497 161.57 205.15 191.61-4.118 186.09-84.657-5.53-80.538 17.61 39.635 144.26-195.12 126.64-234.756 58.43-309.274-41.35-214.358-99.77 94.916-121.83 9.805-200.61-30.219-78.78-40.023-150.78 39.081-111.58 101.228z" stroke="url(#paint73_linear_2_192)" stroke-opacity=".4"/><path d="M1915.35 492.189c30.86 48.937-1.56 97.337-21.62 115.419-61.77 76.921-117.26 164.213-137.28 198.244-147.55 297.108 92.97 109.615 117.04 67.88 19.25-33.387 51.15 9.382 64.69 34.94 159.03 201.938 188.6-4.054 183.16-83.328-5.44-79.274 17.34 39.013 142-192.057 124.65-231.071 57.51-304.419-40.7-210.993-98.21 93.426-119.92 9.651-197.46-29.744-77.54-39.396-148.42 38.467-109.83 99.639z" stroke="url(#paint74_linear_2_192)" stroke-opacity=".4"/><path d="M1917.47 495.824c30.27 47.994-1.52 95.461-21.2 113.195-60.58 75.439-115 161.049-134.64 194.424-144.7 291.387 91.19 107.503 114.79 66.572 18.88-32.744 50.16 9.201 63.44 34.267 155.97 198.038 184.97-3.976 179.64-81.722-5.34-77.747 17 38.26 139.25-188.357 122.26-226.618 56.41-298.553-39.91-206.927-96.32 91.625-117.6 9.465-193.65-29.171-76.05-38.636-145.56 37.726-107.72 97.719z" stroke="url(#paint75_linear_2_192)" stroke-opacity=".4"/><path d="M1919.24 498.851c29.77 47.208-1.5 93.898-20.85 111.342-59.59 74.203-113.12 158.411-132.44 191.24-142.33 286.617 89.7 105.742 112.91 65.482 18.57-32.208 49.34 9.05 62.41 33.705 153.41 194.8 181.93-3.91 176.69-80.384-5.25-76.473 16.72 37.635 136.98-185.272 120.25-222.907 55.48-293.664-39.26-203.539s-115.68 9.31-190.49-28.693c-74.8-38.004-143.17 37.108-105.95 96.119z" stroke="url(#paint76_linear_2_192)" stroke-opacity=".4"/><path d="M1920.91 501.705c29.31 46.467-1.47 92.424-20.53 109.594-58.65 73.039-111.34 155.925-130.35 188.238-140.1 282.113 88.29 104.082 111.14 64.454 18.28-31.702 48.56 8.908 61.42 33.177 151.01 191.742 179.08-3.85 173.92-79.122-5.16-75.273 16.46 37.043 134.83-182.365 118.36-219.407 54.6-289.054-38.65-200.343-93.25 88.71-113.86 9.164-187.49-28.243-73.63-37.407-140.92 36.526-104.29 94.61z" stroke="url(#paint77_linear_2_192)" stroke-opacity=".4"/><path d="M1922.93 505.155c28.74 45.572-1.45 90.643-20.13 107.483-57.53 71.631-109.2 152.92-127.84 184.61-137.41 276.682 86.58 102.077 108.99 63.212 17.93-31.091 47.63 8.737 60.24 32.537 148.1 188.043 175.63-3.775 170.57-77.597-5.07-73.822 16.14 36.33 132.23-178.85 116.08-215.18 53.55-283.484-37.9-196.483-91.46 87.001-111.67 8.988-183.88-27.699-72.21-36.686-138.21 35.822-102.28 92.787z" stroke="url(#paint78_linear_2_192)" stroke-opacity=".4"/><path d="M1924.73 508.235c28.24 44.773-1.42 89.053-19.78 105.597-56.51 70.374-107.28 150.236-125.6 181.371-134.99 271.827 85.07 100.285 107.08 62.103 17.62-30.546 46.8 8.583 59.19 31.966 145.5 184.748 172.55-3.709 167.57-76.236-4.97-72.527 15.86 35.692 129.91-175.711 114.05-211.404 52.62-278.51-37.23-193.036-89.85 85.475-109.71 8.83-180.66-27.212-70.94-36.043-135.78 35.193-100.48 91.158z" stroke="url(#paint79_linear_2_192)" stroke-opacity=".4"/><path d="M1926.31 510.944c27.8 44.069-1.4 87.654-19.47 103.938-55.62 69.27-105.59 147.878-123.62 178.524-132.87 267.554 83.73 98.711 105.4 61.128 17.33-30.066 46.06 8.449 58.25 31.465 143.22 181.841 169.84-3.651 164.95-75.039-4.9-71.389 15.61 35.131 127.87-172.954 112.25-208.085 51.79-274.137-36.65-190.005-88.44 84.133-107.99 8.691-177.82-26.785-69.83-35.477-133.65 34.641-98.91 89.728z" stroke="url(#paint80_linear_2_192)" stroke-opacity=".4"/><path d="M1928.22 514.215c27.26 43.22-1.37 85.965-19.09 101.935-54.55 67.935-103.56 145.029-121.24 175.084-130.31 262.406 82.11 96.809 103.37 59.95 17-29.487 45.17 8.286 57.13 30.858 140.46 178.338 166.57-3.58 161.77-73.593-4.81-70.012 15.31 34.455 125.4-169.62 110.1-204.076 50.79-268.855-35.94-186.344-86.74 82.511-105.91 8.524-174.39-26.269-68.49-34.793-131.08 33.973-97.01 87.999z" stroke="url(#paint81_linear_2_192)" stroke-opacity=".4"/><path d="M1929.82 516.941c26.81 42.512-1.35 84.558-18.78 100.266-53.66 66.823-101.86 142.654-119.26 172.217-128.18 258.106 80.77 95.224 101.68 58.969 16.72-29.004 44.43 8.15 56.19 30.352 138.16 175.425 163.84-3.521 159.12-72.387-4.72-68.867 15.06 33.89 123.35-166.844 108.3-200.733 49.96-264.452-35.35-183.292-85.32 81.16-104.17 8.384-171.54-25.839-67.36-34.223-128.93 33.417-95.41 86.558z" stroke="url(#paint82_linear_2_192)" stroke-opacity=".4"/><path d="M1931.32 519.511c26.39 41.845-1.32 83.231-18.48 98.693-52.82 65.773-100.27 140.414-117.39 169.513-126.16 254.053 79.5 93.729 100.08 58.043 16.46-28.549 43.74 8.022 55.32 29.876 135.98 172.664 161.26-3.466 156.62-71.251-4.65-67.786 14.82 33.358 121.41-164.224 106.59-197.583 49.18-260.302-34.8-180.416-83.97 79.887-102.53 8.253-168.84-25.433s-126.91 32.893-93.92 85.199z" stroke="url(#paint83_linear_2_192)" stroke-opacity=".4"/><path d="M1933.14 522.618c25.88 41.039-1.3 81.627-18.13 96.791-51.8 64.506-98.33 137.709-115.12 166.247-123.74 249.154 77.97 91.923 98.15 56.924 16.14-27.998 42.89 7.868 54.25 29.301 133.36 169.339 158.16-3.4 153.6-69.879-4.56-66.479 14.53 32.716 119.07-161.059 104.54-193.775 48.23-255.285-34.13-176.939-82.35 78.347-100.56 8.094-165.58-24.943-65.03-33.037-124.47 32.259-92.11 83.557z" stroke="url(#paint84_linear_2_192)" stroke-opacity=".4"/><path d="M1934.64 525.188c25.46 40.372-1.28 80.3-17.83 95.217-50.96 63.457-96.73 135.47-113.25 163.544-121.73 245.101 76.7 90.428 96.55 55.998 15.88-27.543 42.2 7.74 53.37 28.824 131.2 166.589 155.59-3.344 151.1-68.742-4.48-65.398 14.3 32.184 117.14-158.44s47.45-251.134-33.57-174.061c-81.02 77.072-98.93 7.962-162.9-24.538s-122.44 31.734-90.61 82.198z" stroke="url(#paint85_linear_2_192)" stroke-opacity=".4"/><path d="M1936.07 527.63c25.06 39.737-1.26 79.038-17.55 93.722-50.16 62.461-95.22 133.343-111.48 160.976-119.81 241.262 75.5 89.009 95.04 55.12 15.63-27.112 41.53 7.618 52.53 28.371 129.14 163.971 153.15-3.292 148.73-67.663-4.41-64.371 14.08 31.679 115.3-155.953 101.23-187.632 46.7-247.192-33.04-171.329-79.75 75.863-97.38 7.837-160.34-24.152-62.97-31.99-120.52 31.236-89.19 80.908z" stroke="url(#paint86_linear_2_192)" stroke-opacity=".4"/><path d="M1937.79 530.579c24.58 38.972-1.23 77.516-17.21 91.916-49.19 61.258-93.38 130.774-109.33 157.875-117.5 236.61 74.05 87.293 93.21 54.057 15.33-26.589 40.73 7.471 51.52 27.825 126.65 160.808 150.19-3.229 145.86-66.359-4.33-63.131 13.81 31.068 113.08-152.948 99.28-184.016 45.8-242.429-32.41-168.028-78.21 74.401-95.49 7.686-157.25-23.687-61.75-31.373-118.19 30.634-87.47 79.349z" stroke="url(#paint87_linear_2_192)" stroke-opacity=".4"/><path d="M1939.23 533.037c24.18 38.333-1.21 76.246-16.93 90.411-48.39 60.254-91.85 128.632-107.54 155.289-115.57 232.733 72.84 85.864 91.69 53.172 15.08-26.153 40.06 7.349 50.67 27.369 124.57 158.182 147.73-3.175 143.48-65.272-4.26-62.098 13.57 30.559 111.22-150.444s45.05-238.459-31.88-165.276c-76.93 73.183-93.93 7.56-154.67-23.299-60.74-30.859-116.26 30.132-86.04 78.05z" stroke="url(#paint88_linear_2_192)" stroke-opacity=".4"/><path d="M1940.59 535.355c23.8 37.732-1.2 75.049-16.67 88.992-47.62 59.308-90.41 126.612-105.85 152.851-113.76 229.082 71.69 84.516 90.25 52.338 14.84-25.743 39.43 7.233 49.87 26.939 122.62 155.695 145.42-3.125 141.23-64.248-4.2-61.122 13.36 30.08 109.48-148.082 96.11-178.161 44.34-234.715-31.38-162.681-75.72 72.034-92.46 7.441-152.25-22.934-59.78-30.375-114.43 29.66-84.68 76.825z" stroke="url(#paint89_linear_2_192)" stroke-opacity=".4"/><path d="M1942.23 538.156c23.34 37.004-1.18 73.603-16.35 87.277-46.71 58.165-88.67 124.172-103.81 149.905-111.57 224.672 70.31 82.888 88.51 51.33 14.55-25.247 38.67 7.094 48.91 26.42 120.26 152.692 142.62-3.065 138.5-63.01-4.11-59.945 13.11 29.5 107.38-145.228 94.26-174.729 43.49-230.193-30.78-159.547-74.26 70.646-90.67 7.298-149.31-22.492-58.64-29.789-112.23 29.088-83.05 75.345z" stroke="url(#paint90_linear_2_192)" stroke-opacity=".4"/><path d="M1943.69 540.659c22.93 36.355-1.15 72.312-16.06 85.745-45.89 57.145-87.11 121.994-101.99 147.276-109.61 220.724 69.08 81.433 86.95 50.428 14.31-24.804 38 6.97 48.06 25.957 118.15 150.015 140.11-3.012 136.07-61.904-4.04-58.893 12.88 28.982 105.49-142.68 92.61-171.663 42.73-226.153-30.23-156.747-72.96 69.406-89.09 7.17-146.69-22.097-57.61-29.267-110.26 28.577-81.6 74.022z" stroke="url(#paint91_linear_2_192)" stroke-opacity=".4"/><path d="M1944.97 542.857c22.57 35.785-1.13 71.176-15.8 84.399-45.17 56.248-85.75 120.079-100.39 144.964-107.89 217.26 67.99 80.154 85.59 49.636 14.08-24.414 37.4 6.861 47.3 25.55 116.29 147.661 137.91-2.964 133.94-60.933-3.98-57.968 12.67 28.528 103.83-140.44 91.15-168.968 42.05-222.603-29.76-154.286-71.81 68.316-87.69 7.057-144.39-21.75-56.7-28.808-108.53 28.129-80.32 72.86z" stroke="url(#paint92_linear_2_192)" stroke-opacity=".4"/><path d="M1946.53 545.513c22.13 35.096-1.11 69.806-15.5 82.774-44.3 55.163-84.1 117.765-98.46 142.17-105.81 213.073 66.68 78.61 83.94 48.68 13.81-23.944 36.68 6.728 46.39 25.057 114.05 144.816 135.26-2.907 131.36-59.758-3.9-56.852 12.43 27.977 101.83-137.734 89.4-165.712 41.24-218.314-29.19-151.314-70.43 67.001-85.99 6.922-141.6-21.331-55.61-28.252-106.44 27.587-78.77 71.456z" stroke="url(#paint93_linear_2_192)" stroke-opacity=".4"/><path d="M1947.82 547.727c21.78 34.521-1.09 68.662-15.25 81.418-43.57 54.26-82.71 115.836-96.84 139.842-104.08 209.584 65.59 77.323 82.57 47.883 13.58-23.552 36.08 6.618 45.63 24.647 112.18 142.445 133.04-2.86 129.2-58.78-3.83-55.92 12.23 27.52 100.17-135.479 87.93-162.998 40.57-214.738-28.71-148.835-69.28 65.903-84.59 6.808-139.29-20.982-54.7-27.79-104.69 27.135-77.48 70.286z" stroke="url(#paint94_linear_2_192)" stroke-opacity=".4"/><path d="M1949.04 549.814c21.43 33.979-1.07 67.584-15.01 80.14-42.88 53.409-81.41 114.018-95.31 137.647-102.45 206.294 64.55 76.109 81.26 47.131 13.37-23.182 35.51 6.514 44.92 24.26 110.42 140.209 130.95-2.815 127.17-57.857-3.77-55.042 12.04 27.088 98.59-133.352 86.56-160.439 39.94-211.368-28.25-146.499s-83.26 6.701-137.1-20.652c-53.85-27.354-103.05 26.709-76.27 69.182z" stroke="url(#paint95_linear_2_192)" stroke-opacity=".4"/><path d="M1950.52 552.336c21.02 33.324-1.06 66.282-14.72 78.596-42.06 52.379-79.85 111.821-93.48 134.994-100.48 202.319 63.31 74.643 79.7 46.223 13.11-22.735 34.83 6.389 44.05 23.793 108.29 137.507 128.43-2.761 124.72-56.743-3.7-53.981 11.81 26.566 96.69-130.782 84.89-157.347 39.17-207.294-27.71-143.676-66.87 63.619-81.66 6.572-134.46-20.254-52.8-26.827-101.06 26.194-74.79 67.849z" stroke="url(#paint96_linear_2_192)" stroke-opacity=".4"/></g><defs><linearGradient id="paint0_linear_2_192" x1="1362.36" y1="-111.806" x2="1018.23" y2="673.117" gradientUnits="userSpaceOnUse"><stop stop-color="#000C52"/><stop offset="1" stop-color="#000051"/></linearGradient><linearGradient id="paint1_linear_2_192" x1="1252.46" y1="-377.439" x2="412.447" y2="1131.17" gradientUnits="userSpaceOnUse"><stop stop-color="#0963B8"/><stop offset=".172" stop-color="#6200AE"/><stop offset=".318" stop-color="#1900AE"/><stop offset=".661" stop-color="#260091"/><stop offset=".896" stop-color="#4731FC"/><stop offset=".979" stop-color="#3221F1"/><stop offset="1" stop-color="#21C9F1"/></linearGradient><linearGradient id="paint2_linear_2_192" x1="1247.56" y1="-365.113" x2="420.734" y2="1119.82" gradientUnits="userSpaceOnUse"><stop stop-color="#0963B8"/><stop offset=".172" stop-color="#6200AE"/><stop offset=".318" stop-color="#1900AE"/><stop offset=".661" stop-color="#260091"/><stop offset=".896" stop-color="#4731FC"/><stop offset=".979" stop-color="#3221F1"/><stop offset="1" stop-color="#21C9F1"/></linearGradient><linearGradient id="paint3_linear_2_192" x1="1241.64" y1="-350.219" x2="430.747" y2="1106.1" gradientUnits="userSpaceOnUse"><stop stop-color="#0963B8"/><stop offset=".172" stop-color="#6200AE"/><stop offset=".318" stop-color="#1900AE"/><stop offset=".661" stop-color="#260091"/><stop offset=".896" stop-color="#4731FC"/><stop offset=".979" stop-color="#3221F1"/><stop offset="1" stop-color="#21C9F1"/></linearGradient><linearGradient id="paint4_linear_2_192" x1="1236.71" y1="-337.807" x2="439.091" y2="1094.66" gradientUnits="userSpaceOnUse"><stop stop-color="#0963B8"/><stop offset=".172" stop-color="#6200AE"/><stop offset=".318" stop-color="#1900AE"/><stop offset=".661" stop-color="#260091"/><stop offset=".896" stop-color="#4731FC"/><stop offset=".979" stop-color="#3221F1"/><stop offset="1" stop-color="#21C9F1"/></linearGradient><linearGradient id="paint5_linear_2_192" x1="1232.05" y1="-326.103" x2="446.958" y2="1083.88" gradientUnits="userSpaceOnUse"><stop stop-color="#0963B8"/><stop offset=".172" stop-color="#6200AE"/><stop offset=".318" stop-color="#1900AE"/><stop offset=".661" stop-color="#260091"/><stop offset=".896" stop-color="#4731FC"/><stop offset=".979" stop-color="#3221F1"/><stop offset="1" stop-color="#21C9F1"/></linearGradient><linearGradient id="paint6_linear_2_192" x1="1226.43" y1="-311.961" x2="456.466" y2="1070.85" gradientUnits="userSpaceOnUse"><stop stop-color="#0963B8"/><stop offset=".172" stop-color="#6200AE"/><stop offset=".318" stop-color="#1900AE"/><stop offset=".661" stop-color="#260091"/><stop offset=".896" stop-color="#4731FC"/><stop offset=".979" stop-color="#3221F1"/><stop offset="1" stop-color="#21C9F1"/></linearGradient><linearGradient id="paint7_linear_2_192" x1="1221.41" y1="-299.332" x2="464.957" y2="1059.22" gradientUnits="userSpaceOnUse"><stop stop-color="#0963B8"/><stop offset=".172" stop-color="#6200AE"/><stop offset=".318" stop-color="#1900AE"/><stop offset=".661" stop-color="#260091"/><stop offset=".896" stop-color="#4731FC"/><stop offset=".979" stop-color="#3221F1"/><stop offset="1" stop-color="#21C9F1"/></linearGradient><linearGradient id="paint8_linear_2_192" x1="1217" y1="-288.231" x2="472.419" y2="1048.99" gradientUnits="userSpaceOnUse"><stop stop-color="#0963B8"/><stop offset=".172" stop-color="#6200AE"/><stop offset=".318" stop-color="#1900AE"/><stop offset=".661" stop-color="#260091"/><stop offset=".896" stop-color="#4731FC"/><stop offset=".979" stop-color="#3221F1"/><stop offset="1" stop-color="#21C9F1"/></linearGradient><linearGradient id="paint9_linear_2_192" x1="1211.67" y1="-274.819" x2="481.436" y2="1036.64" gradientUnits="userSpaceOnUse"><stop stop-color="#0963B8"/><stop offset=".172" stop-color="#6200AE"/><stop offset=".318" stop-color="#1900AE"/><stop offset=".661" stop-color="#260091"/><stop offset=".896" stop-color="#4731FC"/><stop offset=".979" stop-color="#3221F1"/><stop offset="1" stop-color="#21C9F1"/></linearGradient><linearGradient id="paint10_linear_2_192" x1="1207.23" y1="-263.643" x2="488.95" y2="1026.34" gradientUnits="userSpaceOnUse"><stop stop-color="#0963B8"/><stop offset=".172" stop-color="#6200AE"/><stop offset=".318" stop-color="#1900AE"/><stop offset=".661" stop-color="#260091"/><stop offset=".896" stop-color="#4731FC"/><stop offset=".979" stop-color="#3221F1"/><stop offset="1" stop-color="#21C9F1"/></linearGradient><linearGradient id="paint11_linear_2_192" x1="1203.04" y1="-253.103" x2="496.035" y2="1016.63" gradientUnits="userSpaceOnUse"><stop stop-color="#0963B8"/><stop offset=".172" stop-color="#6200AE"/><stop offset=".318" stop-color="#1900AE"/><stop offset=".661" stop-color="#260091"/><stop offset=".896" stop-color="#4731FC"/><stop offset=".979" stop-color="#3221F1"/><stop offset="1" stop-color="#21C9F1"/></linearGradient><linearGradient id="paint12_linear_2_192" x1="1197.97" y1="-240.367" x2="504.597" y2="1004.9" gradientUnits="userSpaceOnUse"><stop stop-color="#0963B8"/><stop offset=".172" stop-color="#6200AE"/><stop offset=".318" stop-color="#1900AE"/><stop offset=".661" stop-color="#260091"/><stop offset=".896" stop-color="#4731FC"/><stop offset=".979" stop-color="#3221F1"/><stop offset="1" stop-color="#21C9F1"/></linearGradient><linearGradient id="paint13_linear_2_192" x1="1193.78" y1="-229.827" x2="511.683" y2="995.185" gradientUnits="userSpaceOnUse"><stop stop-color="#0963B8"/><stop offset=".172" stop-color="#6200AE"/><stop offset=".318" stop-color="#1900AE"/><stop offset=".661" stop-color="#260091"/><stop offset=".896" stop-color="#4731FC"/><stop offset=".979" stop-color="#3221F1"/><stop offset="1" stop-color="#21C9F1"/></linearGradient><linearGradient id="paint14_linear_2_192" x1="1189.81" y1="-219.818" x2="518.411" y2="985.965" gradientUnits="userSpaceOnUse"><stop stop-color="#0963B8"/><stop offset=".172" stop-color="#6200AE"/><stop offset=".318" stop-color="#1900AE"/><stop offset=".661" stop-color="#260091"/><stop offset=".896" stop-color="#4731FC"/><stop offset=".979" stop-color="#3221F1"/><stop offset="1" stop-color="#21C9F1"/></linearGradient><linearGradient id="paint15_linear_2_192" x1="1185" y1="-207.724" x2="526.542" y2="974.823" gradientUnits="userSpaceOnUse"><stop stop-color="#0963B8"/><stop offset=".172" stop-color="#6200AE"/><stop offset=".318" stop-color="#1900AE"/><stop offset=".661" stop-color="#260091"/><stop offset=".896" stop-color="#4731FC"/><stop offset=".979" stop-color="#3221F1"/><stop offset="1" stop-color="#21C9F1"/></linearGradient><linearGradient id="paint16_linear_2_192" x1="1180.99" y1="-197.646" x2="533.317" y2="965.538" gradientUnits="userSpaceOnUse"><stop stop-color="#0963B8"/><stop offset=".172" stop-color="#6200AE"/><stop offset=".318" stop-color="#1900AE"/><stop offset=".661" stop-color="#260091"/><stop offset=".896" stop-color="#4731FC"/><stop offset=".979" stop-color="#3221F1"/><stop offset="1" stop-color="#21C9F1"/></linearGradient><linearGradient id="paint17_linear_2_192" x1="1177.21" y1="-188.141" x2="539.706" y2="956.783" gradientUnits="userSpaceOnUse"><stop stop-color="#0963B8"/><stop offset=".172" stop-color="#6200AE"/><stop offset=".318" stop-color="#1900AE"/><stop offset=".661" stop-color="#260091"/><stop offset=".896" stop-color="#4731FC"/><stop offset=".979" stop-color="#3221F1"/><stop offset="1" stop-color="#21C9F1"/></linearGradient><linearGradient id="paint18_linear_2_192" x1="1172.65" y1="-176.658" x2="547.427" y2="946.203" gradientUnits="userSpaceOnUse"><stop stop-color="#0963B8"/><stop offset=".172" stop-color="#6200AE"/><stop offset=".318" stop-color="#1900AE"/><stop offset=".661" stop-color="#260091"/><stop offset=".896" stop-color="#4731FC"/><stop offset=".979" stop-color="#3221F1"/><stop offset="1" stop-color="#21C9F1"/></linearGradient><linearGradient id="paint19_linear_2_192" x1="1168.57" y1="-166.402" x2="554.321" y2="936.756" gradientUnits="userSpaceOnUse"><stop stop-color="#0963B8"/><stop offset=".172" stop-color="#6200AE"/><stop offset=".318" stop-color="#1900AE"/><stop offset=".661" stop-color="#260091"/><stop offset=".896" stop-color="#4731FC"/><stop offset=".979" stop-color="#3221F1"/><stop offset="1" stop-color="#21C9F1"/></linearGradient><linearGradient id="paint20_linear_2_192" x1="1164.99" y1="-157.389" x2="560.38" y2="928.452" gradientUnits="userSpaceOnUse"><stop stop-color="#0963B8"/><stop offset=".172" stop-color="#6200AE"/><stop offset=".318" stop-color="#1900AE"/><stop offset=".661" stop-color="#260091"/><stop offset=".896" stop-color="#4731FC"/><stop offset=".979" stop-color="#3221F1"/><stop offset="1" stop-color="#21C9F1"/></linearGradient><linearGradient id="paint21_linear_2_192" x1="1160.66" y1="-146.498" x2="567.702" y2="918.419" gradientUnits="userSpaceOnUse"><stop stop-color="#0963B8"/><stop offset=".172" stop-color="#6200AE"/><stop offset=".318" stop-color="#1900AE"/><stop offset=".661" stop-color="#260091"/><stop offset=".896" stop-color="#4731FC"/><stop offset=".979" stop-color="#3221F1"/><stop offset="1" stop-color="#21C9F1"/></linearGradient><linearGradient id="paint22_linear_2_192" x1="1157.05" y1="-137.423" x2="573.804" y2="910.057" gradientUnits="userSpaceOnUse"><stop stop-color="#0963B8"/><stop offset=".172" stop-color="#6200AE"/><stop offset=".318" stop-color="#1900AE"/><stop offset=".661" stop-color="#260091"/><stop offset=".896" stop-color="#4731FC"/><stop offset=".979" stop-color="#3221F1"/><stop offset="1" stop-color="#21C9F1"/></linearGradient><linearGradient id="paint23_linear_2_192" x1="1153.65" y1="-128.863" x2="579.558" y2="902.173" gradientUnits="userSpaceOnUse"><stop stop-color="#0963B8"/><stop offset=".172" stop-color="#6200AE"/><stop offset=".318" stop-color="#1900AE"/><stop offset=".661" stop-color="#260091"/><stop offset=".896" stop-color="#4731FC"/><stop offset=".979" stop-color="#3221F1"/><stop offset="1" stop-color="#21C9F1"/></linearGradient><linearGradient id="paint24_linear_2_192" x1="1149.54" y1="-118.522" x2="586.51" y2="892.646" gradientUnits="userSpaceOnUse"><stop stop-color="#0963B8"/><stop offset=".172" stop-color="#6200AE"/><stop offset=".318" stop-color="#1900AE"/><stop offset=".661" stop-color="#260091"/><stop offset=".896" stop-color="#4731FC"/><stop offset=".979" stop-color="#3221F1"/><stop offset="1" stop-color="#21C9F1"/></linearGradient><linearGradient id="paint25_linear_2_192" x1="1145.49" y1="-108.325" x2="593.365" y2="883.252" gradientUnits="userSpaceOnUse"><stop stop-color="#0963B8"/><stop offset=".172" stop-color="#6200AE"/><stop offset=".318" stop-color="#1900AE"/><stop offset=".661" stop-color="#260091"/><stop offset=".896" stop-color="#4731FC"/><stop offset=".979" stop-color="#3221F1"/><stop offset="1" stop-color="#21C9F1"/></linearGradient><linearGradient id="paint26_linear_2_192" x1="1142.27" y1="-100.225" x2="598.811" y2="875.786" gradientUnits="userSpaceOnUse"><stop stop-color="#0963B8"/><stop offset=".172" stop-color="#6200AE"/><stop offset=".318" stop-color="#1900AE"/><stop offset=".661" stop-color="#260091"/><stop offset=".896" stop-color="#4731FC"/><stop offset=".979" stop-color="#3221F1"/><stop offset="1" stop-color="#21C9F1"/></linearGradient><linearGradient id="paint27_linear_2_192" x1="1138.37" y1="-90.434" x2="605.393" y2="866.769" gradientUnits="userSpaceOnUse"><stop stop-color="#0963B8"/><stop offset=".172" stop-color="#6200AE"/><stop offset=".318" stop-color="#1900AE"/><stop offset=".661" stop-color="#260091"/><stop offset=".896" stop-color="#4731FC"/><stop offset=".979" stop-color="#3221F1"/><stop offset="1" stop-color="#21C9F1"/></linearGradient><linearGradient id="paint28_linear_2_192" x1="1135.13" y1="-82.276" x2="610.877" y2="859.253" gradientUnits="userSpaceOnUse"><stop stop-color="#0963B8"/><stop offset=".172" stop-color="#6200AE"/><stop offset=".318" stop-color="#1900AE"/><stop offset=".661" stop-color="#260091"/><stop offset=".896" stop-color="#4731FC"/><stop offset=".979" stop-color="#3221F1"/><stop offset="1" stop-color="#21C9F1"/></linearGradient><linearGradient id="paint29_linear_2_192" x1="1132.07" y1="-74.584" x2="616.049" y2="852.166" gradientUnits="userSpaceOnUse"><stop stop-color="#0963B8"/><stop offset=".172" stop-color="#6200AE"/><stop offset=".318" stop-color="#1900AE"/><stop offset=".661" stop-color="#260091"/><stop offset=".896" stop-color="#4731FC"/><stop offset=".979" stop-color="#3221F1"/><stop offset="1" stop-color="#21C9F1"/></linearGradient><linearGradient id="paint30_linear_2_192" x1="1128.38" y1="-65.288" x2="622.297" y2="843.603" gradientUnits="userSpaceOnUse"><stop stop-color="#0963B8"/><stop offset=".172" stop-color="#6200AE"/><stop offset=".318" stop-color="#1900AE"/><stop offset=".661" stop-color="#260091"/><stop offset=".896" stop-color="#4731FC"/><stop offset=".979" stop-color="#3221F1"/><stop offset="1" stop-color="#21C9F1"/></linearGradient><linearGradient id="paint31_linear_2_192" x1="1125.08" y1="-56.987" x2="627.878" y2="835.956" gradientUnits="userSpaceOnUse"><stop stop-color="#0963B8"/><stop offset=".172" stop-color="#6200AE"/><stop offset=".318" stop-color="#1900AE"/><stop offset=".661" stop-color="#260091"/><stop offset=".896" stop-color="#4731FC"/><stop offset=".979" stop-color="#3221F1"/><stop offset="1" stop-color="#21C9F1"/></linearGradient><linearGradient id="paint32_linear_2_192" x1="1122.18" y1="-49.69" x2="632.783" y2="829.235" gradientUnits="userSpaceOnUse"><stop stop-color="#0963B8"/><stop offset=".172" stop-color="#6200AE"/><stop offset=".318" stop-color="#1900AE"/><stop offset=".661" stop-color="#260091"/><stop offset=".896" stop-color="#4731FC"/><stop offset=".979" stop-color="#3221F1"/><stop offset="1" stop-color="#21C9F1"/></linearGradient><linearGradient id="paint33_linear_2_192" x1="1118.67" y1="-40.876" x2="638.709" y2="821.113" gradientUnits="userSpaceOnUse"><stop stop-color="#0963B8"/><stop offset=".172" stop-color="#6200AE"/><stop offset=".318" stop-color="#1900AE"/><stop offset=".661" stop-color="#260091"/><stop offset=".896" stop-color="#4731FC"/><stop offset=".979" stop-color="#3221F1"/><stop offset="1" stop-color="#21C9F1"/></linearGradient><linearGradient id="paint34_linear_2_192" x1="1115.75" y1="-33.529" x2="643.648" y2="814.345" gradientUnits="userSpaceOnUse"><stop stop-color="#0963B8"/><stop offset=".172" stop-color="#6200AE"/><stop offset=".318" stop-color="#1900AE"/><stop offset=".661" stop-color="#260091"/><stop offset=".896" stop-color="#4731FC"/><stop offset=".979" stop-color="#3221F1"/><stop offset="1" stop-color="#21C9F1"/></linearGradient><linearGradient id="paint35_linear_2_192" x1="1113" y1="-26.602" x2="648.305" y2="807.962" gradientUnits="userSpaceOnUse"><stop stop-color="#0963B8"/><stop offset=".172" stop-color="#6200AE"/><stop offset=".318" stop-color="#1900AE"/><stop offset=".661" stop-color="#260091"/><stop offset=".896" stop-color="#4731FC"/><stop offset=".979" stop-color="#3221F1"/><stop offset="1" stop-color="#21C9F1"/></linearGradient><linearGradient id="paint36_linear_2_192" x1="1109.67" y1="-18.231" x2="653.933" y2="800.251" gradientUnits="userSpaceOnUse"><stop stop-color="#0963B8"/><stop offset=".172" stop-color="#6200AE"/><stop offset=".318" stop-color="#1900AE"/><stop offset=".661" stop-color="#260091"/><stop offset=".896" stop-color="#4731FC"/><stop offset=".979" stop-color="#3221F1"/><stop offset="1" stop-color="#21C9F1"/></linearGradient><linearGradient id="paint37_linear_2_192" x1="1106.92" y1="-11.303" x2="658.589" y2="793.869" gradientUnits="userSpaceOnUse"><stop stop-color="#0963B8"/><stop offset=".172" stop-color="#6200AE"/><stop offset=".318" stop-color="#1900AE"/><stop offset=".661" stop-color="#260091"/><stop offset=".896" stop-color="#4731FC"/><stop offset=".979" stop-color="#3221F1"/><stop offset="1" stop-color="#21C9F1"/></linearGradient><linearGradient id="paint38_linear_2_192" x1="1104.3" y1="-4.725" x2="663.012" y2="787.808" gradientUnits="userSpaceOnUse"><stop stop-color="#0963B8"/><stop offset=".172" stop-color="#6200AE"/><stop offset=".318" stop-color="#1900AE"/><stop offset=".661" stop-color="#260091"/><stop offset=".896" stop-color="#4731FC"/><stop offset=".979" stop-color="#3221F1"/><stop offset="1" stop-color="#21C9F1"/></linearGradient><linearGradient id="paint39_linear_2_192" x1="1101.14" y1="3.224" x2="668.356" y2="780.485" gradientUnits="userSpaceOnUse"><stop stop-color="#0963B8"/><stop offset=".172" stop-color="#6200AE"/><stop offset=".318" stop-color="#1900AE"/><stop offset=".661" stop-color="#260091"/><stop offset=".896" stop-color="#4731FC"/><stop offset=".979" stop-color="#3221F1"/><stop offset="1" stop-color="#21C9F1"/></linearGradient><linearGradient id="paint40_linear_2_192" x1="1098.51" y1="9.847" x2="672.809" y2="774.381" gradientUnits="userSpaceOnUse"><stop stop-color="#0963B8"/><stop offset=".172" stop-color="#6200AE"/><stop offset=".318" stop-color="#1900AE"/><stop offset=".661" stop-color="#260091"/><stop offset=".896" stop-color="#4731FC"/><stop offset=".979" stop-color="#3221F1"/><stop offset="1" stop-color="#21C9F1"/></linearGradient><linearGradient id="paint41_linear_2_192" x1="1096.03" y1="16.094" x2="677.009" y2="768.626" gradientUnits="userSpaceOnUse"><stop stop-color="#0963B8"/><stop offset=".172" stop-color="#6200AE"/><stop offset=".318" stop-color="#1900AE"/><stop offset=".661" stop-color="#260091"/><stop offset=".896" stop-color="#4731FC"/><stop offset=".979" stop-color="#3221F1"/><stop offset="1" stop-color="#21C9F1"/></linearGradient><linearGradient id="paint42_linear_2_192" x1="1093.03" y1="23.642" x2="682.083" y2="761.672" gradientUnits="userSpaceOnUse"><stop stop-color="#0963B8"/><stop offset=".172" stop-color="#6200AE"/><stop offset=".318" stop-color="#1900AE"/><stop offset=".661" stop-color="#260091"/><stop offset=".896" stop-color="#4731FC"/><stop offset=".979" stop-color="#3221F1"/><stop offset="1" stop-color="#21C9F1"/></linearGradient><linearGradient id="paint43_linear_2_192" x1="1090.35" y1="30.384" x2="686.615" y2="755.464" gradientUnits="userSpaceOnUse"><stop stop-color="#0963B8"/><stop offset=".172" stop-color="#6200AE"/><stop offset=".318" stop-color="#1900AE"/><stop offset=".661" stop-color="#260091"/><stop offset=".896" stop-color="#4731FC"/><stop offset=".979" stop-color="#3221F1"/><stop offset="1" stop-color="#21C9F1"/></linearGradient><linearGradient id="paint44_linear_2_192" x1="1087.99" y1="36.308" x2="690.597" y2="750.006" gradientUnits="userSpaceOnUse"><stop stop-color="#0963B8"/><stop offset=".172" stop-color="#6200AE"/><stop offset=".318" stop-color="#1900AE"/><stop offset=".661" stop-color="#260091"/><stop offset=".896" stop-color="#4731FC"/><stop offset=".979" stop-color="#3221F1"/><stop offset="1" stop-color="#21C9F1"/></linearGradient><linearGradient id="paint45_linear_2_192" x1="1085.15" y1="43.467" x2="695.41" y2="743.411" gradientUnits="userSpaceOnUse"><stop stop-color="#0963B8"/><stop offset=".172" stop-color="#6200AE"/><stop offset=".318" stop-color="#1900AE"/><stop offset=".661" stop-color="#260091"/><stop offset=".896" stop-color="#4731FC"/><stop offset=".979" stop-color="#3221F1"/><stop offset="1" stop-color="#21C9F1"/></linearGradient><linearGradient id="paint46_linear_2_192" x1="1082.78" y1="49.432" x2="699.421" y2="737.916" gradientUnits="userSpaceOnUse"><stop stop-color="#0963B8"/><stop offset=".172" stop-color="#6200AE"/><stop offset=".318" stop-color="#1900AE"/><stop offset=".661" stop-color="#260091"/><stop offset=".896" stop-color="#4731FC"/><stop offset=".979" stop-color="#3221F1"/><stop offset="1" stop-color="#21C9F1"/></linearGradient><linearGradient id="paint47_linear_2_192" x1="1080.54" y1="55.057" x2="703.202" y2="732.733" gradientUnits="userSpaceOnUse"><stop stop-color="#0963B8"/><stop offset=".172" stop-color="#6200AE"/><stop offset=".318" stop-color="#1900AE"/><stop offset=".661" stop-color="#260091"/><stop offset=".896" stop-color="#4731FC"/><stop offset=".979" stop-color="#3221F1"/><stop offset="1" stop-color="#21C9F1"/></linearGradient><linearGradient id="paint48_linear_2_192" x1="1077.84" y1="61.854" x2="707.771" y2="726.471" gradientUnits="userSpaceOnUse"><stop stop-color="#0963B8"/><stop offset=".172" stop-color="#6200AE"/><stop offset=".318" stop-color="#1900AE"/><stop offset=".661" stop-color="#260091"/><stop offset=".896" stop-color="#4731FC"/><stop offset=".979" stop-color="#3221F1"/><stop offset="1" stop-color="#21C9F1"/></linearGradient><linearGradient id="paint49_linear_2_192" x1="2507.24" y1="163.063" x2="1343.8" y2="403.666" gradientUnits="userSpaceOnUse"><stop stop-color="#0963B8"/><stop offset=".172" stop-color="#6200AE"/><stop offset=".318" stop-color="#1900AE"/><stop offset=".661" stop-color="#260091"/><stop offset=".896" stop-color="#4731FC"/><stop offset=".979" stop-color="#3221F1"/><stop offset="1" stop-color="#21C9F1"/></linearGradient><linearGradient id="paint50_linear_2_192" x1="2499.68" y1="171.189" x2="1354.51" y2="408.015" gradientUnits="userSpaceOnUse"><stop stop-color="#0963B8"/><stop offset=".172" stop-color="#6200AE"/><stop offset=".318" stop-color="#1900AE"/><stop offset=".661" stop-color="#260091"/><stop offset=".896" stop-color="#4731FC"/><stop offset=".979" stop-color="#3221F1"/><stop offset="1" stop-color="#21C9F1"/></linearGradient><linearGradient id="paint51_linear_2_192" x1="2490.55" y1="181.007" x2="1367.44" y2="413.27" gradientUnits="userSpaceOnUse"><stop stop-color="#0963B8"/><stop offset=".172" stop-color="#6200AE"/><stop offset=".318" stop-color="#1900AE"/><stop offset=".661" stop-color="#260091"/><stop offset=".896" stop-color="#4731FC"/><stop offset=".979" stop-color="#3221F1"/><stop offset="1" stop-color="#21C9F1"/></linearGradient><linearGradient id="paint52_linear_2_192" x1="2482.93" y1="189.19" x2="1378.21" y2="417.649" gradientUnits="userSpaceOnUse"><stop stop-color="#0963B8"/><stop offset=".172" stop-color="#6200AE"/><stop offset=".318" stop-color="#1900AE"/><stop offset=".661" stop-color="#260091"/><stop offset=".896" stop-color="#4731FC"/><stop offset=".979" stop-color="#3221F1"/><stop offset="1" stop-color="#21C9F1"/></linearGradient><linearGradient id="paint53_linear_2_192" x1="2475.75" y1="196.905" x2="1388.38" y2="421.778" gradientUnits="userSpaceOnUse"><stop stop-color="#0963B8"/><stop offset=".172" stop-color="#6200AE"/><stop offset=".318" stop-color="#1900AE"/><stop offset=".661" stop-color="#260091"/><stop offset=".896" stop-color="#4731FC"/><stop offset=".979" stop-color="#3221F1"/><stop offset="1" stop-color="#21C9F1"/></linearGradient><linearGradient id="paint54_linear_2_192" x1="2467.08" y1="206.228" x2="1400.66" y2="426.767" gradientUnits="userSpaceOnUse"><stop stop-color="#0963B8"/><stop offset=".172" stop-color="#6200AE"/><stop offset=".318" stop-color="#1900AE"/><stop offset=".661" stop-color="#260091"/><stop offset=".896" stop-color="#4731FC"/><stop offset=".979" stop-color="#3221F1"/><stop offset="1" stop-color="#21C9F1"/></linearGradient><linearGradient id="paint55_linear_2_192" x1="2459.33" y1="214.554" x2="1411.62" y2="431.224" gradientUnits="userSpaceOnUse"><stop stop-color="#0963B8"/><stop offset=".172" stop-color="#6200AE"/><stop offset=".318" stop-color="#1900AE"/><stop offset=".661" stop-color="#260091"/><stop offset=".896" stop-color="#4731FC"/><stop offset=".979" stop-color="#3221F1"/><stop offset="1" stop-color="#21C9F1"/></linearGradient><linearGradient id="paint56_linear_2_192" x1="2452.52" y1="221.872" x2="1421.26" y2="435.141" gradientUnits="userSpaceOnUse"><stop stop-color="#0963B8"/><stop offset=".172" stop-color="#6200AE"/><stop offset=".318" stop-color="#1900AE"/><stop offset=".661" stop-color="#260091"/><stop offset=".896" stop-color="#4731FC"/><stop offset=".979" stop-color="#3221F1"/><stop offset="1" stop-color="#21C9F1"/></linearGradient><linearGradient id="paint57_linear_2_192" x1="2444.3" y1="230.714" x2="1432.91" y2="439.873" gradientUnits="userSpaceOnUse"><stop stop-color="#0963B8"/><stop offset=".172" stop-color="#6200AE"/><stop offset=".318" stop-color="#1900AE"/><stop offset=".661" stop-color="#260091"/><stop offset=".896" stop-color="#4731FC"/><stop offset=".979" stop-color="#3221F1"/><stop offset="1" stop-color="#21C9F1"/></linearGradient><linearGradient id="paint58_linear_2_192" x1="2437.44" y1="238.081" x2="1442.61" y2="443.815" gradientUnits="userSpaceOnUse"><stop stop-color="#0963B8"/><stop offset=".172" stop-color="#6200AE"/><stop offset=".318" stop-color="#1900AE"/><stop offset=".661" stop-color="#260091"/><stop offset=".896" stop-color="#4731FC"/><stop offset=".979" stop-color="#3221F1"/><stop offset="1" stop-color="#21C9F1"/></linearGradient><linearGradient id="paint59_linear_2_192" x1="2430.98" y1="245.03" x2="1451.76" y2="447.534" gradientUnits="userSpaceOnUse"><stop stop-color="#0963B8"/><stop offset=".172" stop-color="#6200AE"/><stop offset=".318" stop-color="#1900AE"/><stop offset=".661" stop-color="#260091"/><stop offset=".896" stop-color="#4731FC"/><stop offset=".979" stop-color="#3221F1"/><stop offset="1" stop-color="#21C9F1"/></linearGradient><linearGradient id="paint60_linear_2_192" x1="2423.16" y1="253.426" x2="1462.82" y2="452.029" gradientUnits="userSpaceOnUse"><stop stop-color="#0963B8"/><stop offset=".172" stop-color="#6200AE"/><stop offset=".318" stop-color="#1900AE"/><stop offset=".661" stop-color="#260091"/><stop offset=".896" stop-color="#4731FC"/><stop offset=".979" stop-color="#3221F1"/><stop offset="1" stop-color="#21C9F1"/></linearGradient><linearGradient id="paint61_linear_2_192" x1="2416.7" y1="260.374" x2="1471.97" y2="455.746" gradientUnits="userSpaceOnUse"><stop stop-color="#0963B8"/><stop offset=".172" stop-color="#6200AE"/><stop offset=".318" stop-color="#1900AE"/><stop offset=".661" stop-color="#260091"/><stop offset=".896" stop-color="#4731FC"/><stop offset=".979" stop-color="#3221F1"/><stop offset="1" stop-color="#21C9F1"/></linearGradient><linearGradient id="paint62_linear_2_192" x1="2410.56" y1="266.972" x2="1480.66" y2="459.278" gradientUnits="userSpaceOnUse"><stop stop-color="#0963B8"/><stop offset=".172" stop-color="#6200AE"/><stop offset=".318" stop-color="#1900AE"/><stop offset=".661" stop-color="#260091"/><stop offset=".896" stop-color="#4731FC"/><stop offset=".979" stop-color="#3221F1"/><stop offset="1" stop-color="#21C9F1"/></linearGradient><linearGradient id="paint63_linear_2_192" x1="2403.14" y1="274.945" x2="1491.16" y2="463.545" gradientUnits="userSpaceOnUse"><stop stop-color="#0963B8"/><stop offset=".172" stop-color="#6200AE"/><stop offset=".318" stop-color="#1900AE"/><stop offset=".661" stop-color="#260091"/><stop offset=".896" stop-color="#4731FC"/><stop offset=".979" stop-color="#3221F1"/><stop offset="1" stop-color="#21C9F1"/></linearGradient><linearGradient id="paint64_linear_2_192" x1="2396.96" y1="281.589" x2="1499.91" y2="467.101" gradientUnits="userSpaceOnUse"><stop stop-color="#0963B8"/><stop offset=".172" stop-color="#6200AE"/><stop offset=".318" stop-color="#1900AE"/><stop offset=".661" stop-color="#260091"/><stop offset=".896" stop-color="#4731FC"/><stop offset=".979" stop-color="#3221F1"/><stop offset="1" stop-color="#21C9F1"/></linearGradient><linearGradient id="paint65_linear_2_192" x1="2391.13" y1="287.855" x2="1508.17" y2="470.454" gradientUnits="userSpaceOnUse"><stop stop-color="#0963B8"/><stop offset=".172" stop-color="#6200AE"/><stop offset=".318" stop-color="#1900AE"/><stop offset=".661" stop-color="#260091"/><stop offset=".896" stop-color="#4731FC"/><stop offset=".979" stop-color="#3221F1"/><stop offset="1" stop-color="#21C9F1"/></linearGradient><linearGradient id="paint66_linear_2_192" x1="2384.09" y1="295.425" x2="1518.14" y2="474.506" gradientUnits="userSpaceOnUse"><stop stop-color="#0963B8"/><stop offset=".172" stop-color="#6200AE"/><stop offset=".318" stop-color="#1900AE"/><stop offset=".661" stop-color="#260091"/><stop offset=".896" stop-color="#4731FC"/><stop offset=".979" stop-color="#3221F1"/><stop offset="1" stop-color="#21C9F1"/></linearGradient><linearGradient id="paint67_linear_2_192" x1="2377.79" y1="302.185" x2="1527.04" y2="478.124" gradientUnits="userSpaceOnUse"><stop stop-color="#0963B8"/><stop offset=".172" stop-color="#6200AE"/><stop offset=".318" stop-color="#1900AE"/><stop offset=".661" stop-color="#260091"/><stop offset=".896" stop-color="#4731FC"/><stop offset=".979" stop-color="#3221F1"/><stop offset="1" stop-color="#21C9F1"/></linearGradient><linearGradient id="paint68_linear_2_192" x1="2372.27" y1="308.128" x2="1534.87" y2="481.304" gradientUnits="userSpaceOnUse"><stop stop-color="#0963B8"/><stop offset=".172" stop-color="#6200AE"/><stop offset=".318" stop-color="#1900AE"/><stop offset=".661" stop-color="#260091"/><stop offset=".896" stop-color="#4731FC"/><stop offset=".979" stop-color="#3221F1"/><stop offset="1" stop-color="#21C9F1"/></linearGradient><linearGradient id="paint69_linear_2_192" x1="2365.58" y1="315.308" x2="1544.32" y2="485.147" gradientUnits="userSpaceOnUse"><stop stop-color="#0963B8"/><stop offset=".172" stop-color="#6200AE"/><stop offset=".318" stop-color="#1900AE"/><stop offset=".661" stop-color="#260091"/><stop offset=".896" stop-color="#4731FC"/><stop offset=".979" stop-color="#3221F1"/><stop offset="1" stop-color="#21C9F1"/></linearGradient><linearGradient id="paint70_linear_2_192" x1="2360.02" y1="321.29" x2="1552.2" y2="488.349" gradientUnits="userSpaceOnUse"><stop stop-color="#0963B8"/><stop offset=".172" stop-color="#6200AE"/><stop offset=".318" stop-color="#1900AE"/><stop offset=".661" stop-color="#260091"/><stop offset=".896" stop-color="#4731FC"/><stop offset=".979" stop-color="#3221F1"/><stop offset="1" stop-color="#21C9F1"/></linearGradient><linearGradient id="paint71_linear_2_192" x1="2354.77" y1="326.933" x2="1559.63" y2="491.369" gradientUnits="userSpaceOnUse"><stop stop-color="#0963B8"/><stop offset=".172" stop-color="#6200AE"/><stop offset=".318" stop-color="#1900AE"/><stop offset=".661" stop-color="#260091"/><stop offset=".896" stop-color="#4731FC"/><stop offset=".979" stop-color="#3221F1"/><stop offset="1" stop-color="#21C9F1"/></linearGradient><linearGradient id="paint72_linear_2_192" x1="2348.42" y1="333.75" x2="1568.61" y2="495.018" gradientUnits="userSpaceOnUse"><stop stop-color="#0963B8"/><stop offset=".172" stop-color="#6200AE"/><stop offset=".318" stop-color="#1900AE"/><stop offset=".661" stop-color="#260091"/><stop offset=".896" stop-color="#4731FC"/><stop offset=".979" stop-color="#3221F1"/><stop offset="1" stop-color="#21C9F1"/></linearGradient><linearGradient id="paint73_linear_2_192" x1="2342.17" y1="340.473" x2="1577.47" y2="498.616" gradientUnits="userSpaceOnUse"><stop stop-color="#0963B8"/><stop offset=".172" stop-color="#6200AE"/><stop offset=".318" stop-color="#1900AE"/><stop offset=".661" stop-color="#260091"/><stop offset=".896" stop-color="#4731FC"/><stop offset=".979" stop-color="#3221F1"/><stop offset="1" stop-color="#21C9F1"/></linearGradient><linearGradient id="paint74_linear_2_192" x1="2337.2" y1="345.811" x2="1584.5" y2="501.472" gradientUnits="userSpaceOnUse"><stop stop-color="#0963B8"/><stop offset=".172" stop-color="#6200AE"/><stop offset=".318" stop-color="#1900AE"/><stop offset=".661" stop-color="#260091"/><stop offset=".896" stop-color="#4731FC"/><stop offset=".979" stop-color="#3221F1"/><stop offset="1" stop-color="#21C9F1"/></linearGradient><linearGradient id="paint75_linear_2_192" x1="2331.2" y1="352.267" x2="1593" y2="504.928" gradientUnits="userSpaceOnUse"><stop stop-color="#0963B8"/><stop offset=".172" stop-color="#6200AE"/><stop offset=".318" stop-color="#1900AE"/><stop offset=".661" stop-color="#260091"/><stop offset=".896" stop-color="#4731FC"/><stop offset=".979" stop-color="#3221F1"/><stop offset="1" stop-color="#21C9F1"/></linearGradient><linearGradient id="paint76_linear_2_192" x1="2326.19" y1="357.645" x2="1600.09" y2="507.806" gradientUnits="userSpaceOnUse"><stop stop-color="#0963B8"/><stop offset=".172" stop-color="#6200AE"/><stop offset=".318" stop-color="#1900AE"/><stop offset=".661" stop-color="#260091"/><stop offset=".896" stop-color="#4731FC"/><stop offset=".979" stop-color="#3221F1"/><stop offset="1" stop-color="#21C9F1"/></linearGradient><linearGradient id="paint77_linear_2_192" x1="2321.47" y1="362.716" x2="1606.77" y2="510.52" gradientUnits="userSpaceOnUse"><stop stop-color="#0963B8"/><stop offset=".172" stop-color="#6200AE"/><stop offset=".318" stop-color="#1900AE"/><stop offset=".661" stop-color="#260091"/><stop offset=".896" stop-color="#4731FC"/><stop offset=".979" stop-color="#3221F1"/><stop offset="1" stop-color="#21C9F1"/></linearGradient><linearGradient id="paint78_linear_2_192" x1="2315.77" y1="368.844" x2="1614.84" y2="513.8" gradientUnits="userSpaceOnUse"><stop stop-color="#0963B8"/><stop offset=".172" stop-color="#6200AE"/><stop offset=".318" stop-color="#1900AE"/><stop offset=".661" stop-color="#260091"/><stop offset=".896" stop-color="#4731FC"/><stop offset=".979" stop-color="#3221F1"/><stop offset="1" stop-color="#21C9F1"/></linearGradient><linearGradient id="paint79_linear_2_192" x1="2310.68" y1="374.316" x2="1622.04" y2="516.729" gradientUnits="userSpaceOnUse"><stop stop-color="#0963B8"/><stop offset=".172" stop-color="#6200AE"/><stop offset=".318" stop-color="#1900AE"/><stop offset=".661" stop-color="#260091"/><stop offset=".896" stop-color="#4731FC"/><stop offset=".979" stop-color="#3221F1"/><stop offset="1" stop-color="#21C9F1"/></linearGradient><linearGradient id="paint80_linear_2_192" x1="2306.2" y1="379.127" x2="1628.38" y2="519.303" gradientUnits="userSpaceOnUse"><stop stop-color="#0963B8"/><stop offset=".172" stop-color="#6200AE"/><stop offset=".318" stop-color="#1900AE"/><stop offset=".661" stop-color="#260091"/><stop offset=".896" stop-color="#4731FC"/><stop offset=".979" stop-color="#3221F1"/><stop offset="1" stop-color="#21C9F1"/></linearGradient><linearGradient id="paint81_linear_2_192" x1="2300.8" y1="384.938" x2="1636.03" y2="522.413" gradientUnits="userSpaceOnUse"><stop stop-color="#0963B8"/><stop offset=".172" stop-color="#6200AE"/><stop offset=".318" stop-color="#1900AE"/><stop offset=".661" stop-color="#260091"/><stop offset=".896" stop-color="#4731FC"/><stop offset=".979" stop-color="#3221F1"/><stop offset="1" stop-color="#21C9F1"/></linearGradient><linearGradient id="paint82_linear_2_192" x1="2296.29" y1="389.781" x2="1642.41" y2="525.005" gradientUnits="userSpaceOnUse"><stop stop-color="#0963B8"/><stop offset=".172" stop-color="#6200AE"/><stop offset=".318" stop-color="#1900AE"/><stop offset=".661" stop-color="#260091"/><stop offset=".896" stop-color="#4731FC"/><stop offset=".979" stop-color="#3221F1"/><stop offset="1" stop-color="#21C9F1"/></linearGradient><linearGradient id="paint83_linear_2_192" x1="2292.04" y1="394.347" x2="1648.43" y2="527.449" gradientUnits="userSpaceOnUse"><stop stop-color="#0963B8"/><stop offset=".172" stop-color="#6200AE"/><stop offset=".318" stop-color="#1900AE"/><stop offset=".661" stop-color="#260091"/><stop offset=".896" stop-color="#4731FC"/><stop offset=".979" stop-color="#3221F1"/><stop offset="1" stop-color="#21C9F1"/></linearGradient><linearGradient id="paint84_linear_2_192" x1="2286.91" y1="399.866" x2="1655.69" y2="530.403" gradientUnits="userSpaceOnUse"><stop stop-color="#0963B8"/><stop offset=".172" stop-color="#6200AE"/><stop offset=".318" stop-color="#1900AE"/><stop offset=".661" stop-color="#260091"/><stop offset=".896" stop-color="#4731FC"/><stop offset=".979" stop-color="#3221F1"/><stop offset="1" stop-color="#21C9F1"/></linearGradient><linearGradient id="paint85_linear_2_192" x1="2282.66" y1="404.433" x2="1661.71" y2="532.846" gradientUnits="userSpaceOnUse"><stop stop-color="#0963B8"/><stop offset=".172" stop-color="#6200AE"/><stop offset=".318" stop-color="#1900AE"/><stop offset=".661" stop-color="#260091"/><stop offset=".896" stop-color="#4731FC"/><stop offset=".979" stop-color="#3221F1"/><stop offset="1" stop-color="#21C9F1"/></linearGradient><linearGradient id="paint86_linear_2_192" x1="2278.62" y1="408.77" x2="1667.42" y2="535.168" gradientUnits="userSpaceOnUse"><stop stop-color="#0963B8"/><stop offset=".172" stop-color="#6200AE"/><stop offset=".318" stop-color="#1900AE"/><stop offset=".661" stop-color="#260091"/><stop offset=".896" stop-color="#4731FC"/><stop offset=".979" stop-color="#3221F1"/><stop offset="1" stop-color="#21C9F1"/></linearGradient><linearGradient id="paint87_linear_2_192" x1="2273.75" y1="414.01" x2="1674.32" y2="537.972" gradientUnits="userSpaceOnUse"><stop stop-color="#0963B8"/><stop offset=".172" stop-color="#6200AE"/><stop offset=".318" stop-color="#1900AE"/><stop offset=".661" stop-color="#260091"/><stop offset=".896" stop-color="#4731FC"/><stop offset=".979" stop-color="#3221F1"/><stop offset="1" stop-color="#21C9F1"/></linearGradient><linearGradient id="paint88_linear_2_192" x1="2269.68" y1="418.376" x2="1680.08" y2="540.308" gradientUnits="userSpaceOnUse"><stop stop-color="#0963B8"/><stop offset=".172" stop-color="#6200AE"/><stop offset=".318" stop-color="#1900AE"/><stop offset=".661" stop-color="#260091"/><stop offset=".896" stop-color="#4731FC"/><stop offset=".979" stop-color="#3221F1"/><stop offset="1" stop-color="#21C9F1"/></linearGradient><linearGradient id="paint89_linear_2_192" x1="2265.85" y1="422.494" x2="1685.5" y2="542.512" gradientUnits="userSpaceOnUse"><stop stop-color="#0963B8"/><stop offset=".172" stop-color="#6200AE"/><stop offset=".318" stop-color="#1900AE"/><stop offset=".661" stop-color="#260091"/><stop offset=".896" stop-color="#4731FC"/><stop offset=".979" stop-color="#3221F1"/><stop offset="1" stop-color="#21C9F1"/></linearGradient><linearGradient id="paint90_linear_2_192" x1="2261.22" y1="427.469" x2="1692.05" y2="545.175" gradientUnits="userSpaceOnUse"><stop stop-color="#0963B8"/><stop offset=".172" stop-color="#6200AE"/><stop offset=".318" stop-color="#1900AE"/><stop offset=".661" stop-color="#260091"/><stop offset=".896" stop-color="#4731FC"/><stop offset=".979" stop-color="#3221F1"/><stop offset="1" stop-color="#21C9F1"/></linearGradient><linearGradient id="paint91_linear_2_192" x1="2257.09" y1="431.915" x2="1697.91" y2="547.555" gradientUnits="userSpaceOnUse"><stop stop-color="#0963B8"/><stop offset=".172" stop-color="#6200AE"/><stop offset=".318" stop-color="#1900AE"/><stop offset=".661" stop-color="#260091"/><stop offset=".896" stop-color="#4731FC"/><stop offset=".979" stop-color="#3221F1"/><stop offset="1" stop-color="#21C9F1"/></linearGradient><linearGradient id="paint92_linear_2_192" x1="2253.45" y1="435.82" x2="1703.05" y2="549.645" gradientUnits="userSpaceOnUse"><stop stop-color="#0963B8"/><stop offset=".172" stop-color="#6200AE"/><stop offset=".318" stop-color="#1900AE"/><stop offset=".661" stop-color="#260091"/><stop offset=".896" stop-color="#4731FC"/><stop offset=".979" stop-color="#3221F1"/><stop offset="1" stop-color="#21C9F1"/></linearGradient><linearGradient id="paint93_linear_2_192" x1="2249.06" y1="440.539" x2="1709.26" y2="552.171" gradientUnits="userSpaceOnUse"><stop stop-color="#0963B8"/><stop offset=".172" stop-color="#6200AE"/><stop offset=".318" stop-color="#1900AE"/><stop offset=".661" stop-color="#260091"/><stop offset=".896" stop-color="#4731FC"/><stop offset=".979" stop-color="#3221F1"/><stop offset="1" stop-color="#21C9F1"/></linearGradient><linearGradient id="paint94_linear_2_192" x1="2245.4" y1="444.472" x2="1714.44" y2="554.276" gradientUnits="userSpaceOnUse"><stop stop-color="#0963B8"/><stop offset=".172" stop-color="#6200AE"/><stop offset=".318" stop-color="#1900AE"/><stop offset=".661" stop-color="#260091"/><stop offset=".896" stop-color="#4731FC"/><stop offset=".979" stop-color="#3221F1"/><stop offset="1" stop-color="#21C9F1"/></linearGradient><linearGradient id="paint95_linear_2_192" x1="2241.95" y1="448.18" x2="1719.33" y2="556.26" gradientUnits="userSpaceOnUse"><stop stop-color="#0963B8"/><stop offset=".172" stop-color="#6200AE"/><stop offset=".318" stop-color="#1900AE"/><stop offset=".661" stop-color="#260091"/><stop offset=".896" stop-color="#4731FC"/><stop offset=".979" stop-color="#3221F1"/><stop offset="1" stop-color="#21C9F1"/></linearGradient><linearGradient id="paint96_linear_2_192" x1="2237.78" y1="452.66" x2="1725.23" y2="558.658" gradientUnits="userSpaceOnUse"><stop stop-color="#0963B8"/><stop offset=".172" stop-color="#6200AE"/><stop offset=".318" stop-color="#1900AE"/><stop offset=".661" stop-color="#260091"/><stop offset=".896" stop-color="#4731FC"/><stop offset=".979" stop-color="#3221F1"/><stop offset="1" stop-color="#21C9F1"/></linearGradient></defs></svg>