<svg width="61" height="40" fill="none" xmlns="http://www.w3.org/2000/svg"><path d="M59.325 20.04h-5.101v-8.591a.956.956 0 00-.955-.956H37.355V1.925a.956.956 0 00-.956-.955H1.28a.956.956 0 00-.955.955v32.162c0 .528.428.956.955.956h8.218a5.162 5.162 0 005.11 4.49c2.613 0 4.773-1.96 5.101-4.49H42.76c.327 2.529 2.488 4.49 5.103 4.49a5.16 5.16 0 005.109-4.49h6.354a.956.956 0 00.955-.956V20.995a.956.956 0 00-.956-.955zm-44.72 17.583a3.25 3.25 0 01-3.247-3.246 3.25 3.25 0 013.247-3.248 3.247 3.247 0 010 6.494zm0-8.403a5.16 5.16 0 00-4.999 3.913H2.234V2.88h33.21v30.252H19.597c-.557-2.243-2.581-3.912-4.992-3.912zm33.258 8.403a3.248 3.248 0 01-3.242-3.246 3.248 3.248 0 013.242-3.248 3.25 3.25 0 013.246 3.248 3.251 3.251 0 01-3.246 3.246zm10.507-4.49h-5.51c-.558-2.244-2.584-3.914-4.997-3.914-2.412 0-4.437 1.67-4.995 3.913h-5.514V12.403h14.96v8.592c0 .527.427.955.955.955h5.101v11.182z" fill="#F4F4F6"/></svg>