<svg width="1487" height="1477" fill="none" xmlns="http://www.w3.org/2000/svg"><path d="M242.129 638.536c135.462 23.191 120.257 121.552 95.722 167.834-48.456 168.606-68.826 342.44-72.953 408.28 28.594 542.16 359.928 23.38 363.825-56.78 3.118-64.13 133.168-49.75 197.803-34.55 634.034 57.74 441.834-230.99 328.014-321.956-113.82-90.966 90.76 27.201 92-406.323 1.24-433.523-251.291-443.255-365.098-210.687C767.634 416.923 609.525 339.917 375.58 384.395 141.635 428.873 72.802 609.547 242.129 638.536z" stroke="url(#paint0_linear_2_196)" stroke-opacity=".8"/><path d="M249.999 640.101c133.335 22.827 118.369 119.644 94.219 165.2-47.696 165.959-67.745 337.069-71.808 401.869 28.145 533.66 354.278 23.01 358.114-55.89 3.069-63.12 131.077-48.97 194.698-34.01 624.078 56.84 434.898-227.358 322.868-316.896-112.04-89.538 89.33 26.773 90.55-399.945 1.23-426.718-247.344-436.297-359.365-207.38C767.254 421.967 611.627 346.17 381.354 389.95 151.082 433.73 83.33 611.567 249.999 640.101z" stroke="url(#paint1_linear_2_196)" stroke-opacity=".8"/><path d="M259.508 641.992c130.765 22.388 116.088 117.339 92.403 162.017-46.776 162.761-66.44 330.571-70.424 394.131 27.603 523.37 347.451 22.56 351.213-54.82 3.01-61.9 128.552-48.02 190.946-33.35 612.054 55.74 426.524-222.981 316.644-310.794-109.88-87.812 87.61 26.258 88.81-392.237 1.2-418.495-242.579-427.89-352.442-203.384-109.862 224.507-262.491 150.171-488.326 193.107-225.834 42.936-292.282 217.346-128.824 245.33z" stroke="url(#paint2_linear_2_196)" stroke-opacity=".8"/><path d="M267.432 643.568c128.625 22.021 114.187 115.418 90.891 159.364-46.011 160.096-65.352 325.158-69.272 387.678 27.151 514.8 341.762 22.19 345.463-53.92 2.96-60.89 126.446-47.24 187.819-32.81 602.037 54.83 419.537-219.327 311.457-305.701-108.07-86.375 86.18 25.827 87.36-385.815C1222.33.721 982.54-8.52 874.477 212.311c-108.063 220.83-258.193 147.711-480.33 189.944-222.137 42.233-287.496 213.788-126.715 241.313z" stroke="url(#paint3_linear_2_196)" stroke-opacity=".8"/><path d="M274.904 645.055c126.605 21.674 112.395 113.605 89.464 156.861-45.289 157.583-64.326 320.054-68.184 381.594 26.725 506.71 336.396 21.84 340.039-53.07 2.914-59.94 124.462-46.5 184.871-32.3 592.586 53.97 412.956-215.884 306.566-300.902-106.38-85.019 84.83 25.422 85.99-379.759 1.16-405.18-234.863-414.276-341.23-196.913C766.053 437.93 618.28 365.959 399.63 407.529c-218.65 41.57-282.983 210.432-124.726 237.526z" stroke="url(#paint4_linear_2_196)" stroke-opacity=".8"/><path d="M283.933 646.85c124.166 21.257 110.229 111.417 87.74 153.839-44.416 154.547-63.087 313.881-66.87 374.241 26.21 496.95 329.914 21.42 333.487-52.05 2.857-58.78 122.063-45.61 181.308-31.67 581.162 52.92 404.992-211.729 300.662-295.109-104.33-83.381 83.19 24.932 84.33-372.441 1.14-397.373-230.338-406.293-334.655-193.118-104.318 213.175-249.243 142.591-463.679 183.36-214.437 40.769-277.53 206.376-122.323 232.948z" stroke="url(#paint5_linear_2_196)" stroke-opacity=".8"/><path d="M291.996 648.454c121.987 20.884 108.295 109.461 86.201 151.139-43.637 151.835-61.98 308.377-65.697 367.667 25.75 488.24 324.125 21.05 327.635-51.13 2.807-57.75 119.921-44.81 178.127-31.12 570.968 52 397.888-208.007 295.388-289.925-102.5-81.917 81.73 24.495 82.85-365.905 1.12-390.4-226.298-399.164-328.785-189.729C765.228 448.885 622.846 379.54 412.172 419.593c-210.673 40.054-272.66 202.755-120.176 228.861z" stroke="url(#paint6_linear_2_196)" stroke-opacity=".8"/><path d="M299.083 649.864c120.072 20.556 106.595 107.743 84.847 148.767-42.951 149.451-61.006 303.539-64.665 361.899 25.346 480.57 319.037 20.72 322.492-50.33 2.763-56.84 118.039-44.1 175.331-30.63 562.002 51.18 391.642-204.745 290.752-285.376-100.89-80.632 80.44 24.11 81.55-360.162 1.1-384.271-222.747-392.898-323.625-186.751-100.878 206.147-241.026 137.89-448.392 177.315-207.367 39.425-268.38 199.572-118.29 225.268z" stroke="url(#paint7_linear_2_196)" stroke-opacity=".8"/><path d="M307.646 651.567c117.758 20.16 104.541 105.667 83.212 145.9-42.124 146.571-59.831 297.683-63.419 354.923 24.857 471.31 312.889 20.32 316.277-49.36 2.711-55.74 115.765-43.25 171.953-30.04 551.171 50.2 384.091-200.797 285.151-279.874-98.95-79.078 78.89 23.645 79.97-353.221 1.08-376.867-218.448-385.327-317.382-183.153-98.934 202.175-236.381 135.233-439.752 173.898-203.37 38.665-263.208 195.727-116.01 220.927z" stroke="url(#paint8_linear_2_196)" stroke-opacity=".8"/><path d="M314.782 652.985c115.83 19.831 102.829 103.937 81.85 143.512-41.434 144.171-58.852 292.813-62.381 349.113 24.45 463.59 307.766 19.99 311.098-48.55 2.666-54.84 113.869-42.55 169.137-29.55 542.144 49.37 377.804-197.511 280.474-275.294-97.322-77.783 77.61 23.259 78.67-347.437 1.06-370.696-214.873-379.017-312.187-180.153-97.314 198.864-232.51 133.018-432.55 171.05-200.041 38.032-258.899 192.522-114.111 217.309z" stroke="url(#paint9_linear_2_196)" stroke-opacity=".8"/><path d="M321.511 654.324c114.012 19.519 101.215 102.305 80.565 141.258-40.784 141.908-57.928 288.218-61.402 343.628 24.067 456.32 302.935 19.68 306.215-47.79 2.624-53.97 112.081-41.87 166.482-29.08 533.639 48.6 371.879-194.409 276.079-270.971-95.803-76.562 76.38 22.893 77.43-341.983 1.04-364.877-211.503-373.068-307.289-177.326-95.787 195.743-228.86 130.931-425.761 168.366-196.9 37.435-254.834 189.499-112.319 213.898z" stroke="url(#paint10_linear_2_196)" stroke-opacity=".8"/><path d="M329.642 655.942c111.815 19.143 99.264 100.334 79.012 138.536-39.998 139.174-56.811 282.662-60.218 337.012 23.602 447.52 297.097 19.29 300.314-46.87 2.574-52.93 109.921-41.07 163.274-28.52 523.356 47.66 364.706-190.667 270.756-265.754-93.954-75.086 74.91 22.452 75.94-335.393 1.02-357.845-207.426-365.878-301.367-173.908-93.941 191.97-224.45 128.407-417.556 165.121-193.106 36.713-249.924 185.848-110.155 209.776z" stroke="url(#paint11_linear_2_196)" stroke-opacity=".8"/><path d="M336.371 657.28c109.996 18.831 97.65 98.702 77.727 136.283-39.347 136.91-55.887 278.067-59.239 331.527 23.219 440.25 292.266 18.98 295.431-46.1 2.531-52.08 108.134-40.4 160.618-28.06 514.842 46.88 358.782-187.566 266.352-261.432-92.424-73.865 73.7 22.087 74.71-329.939 1-352.026-204.056-359.929-296.47-171.08-92.413 188.848-220.8 126.319-410.765 162.436-189.966 36.116-245.86 182.825-108.364 206.365z" stroke="url(#paint12_linear_2_196)" stroke-opacity=".8"/><path d="M342.761 658.551c108.27 18.536 96.117 97.153 76.507 134.144-38.729 134.761-55.01 273.705-58.309 326.325 22.855 433.33 287.678 18.68 290.793-45.38 2.492-51.26 106.437-39.77 158.097-27.62 506.761 46.15 353.141-184.62 262.171-257.326-90.973-72.706 72.54 21.74 73.53-324.76 1-346.5-200.846-354.278-291.808-168.394-90.963 185.884-217.334 124.336-404.318 159.885-186.984 35.55-242 179.956-106.663 203.126z" stroke="url(#paint13_linear_2_196)" stroke-opacity=".8"/><path d="M350.483 660.087c106.183 18.178 94.265 95.28 75.033 131.559-37.984 132.164-53.95 268.424-57.186 320.034 22.414 424.98 282.134 18.33 285.189-44.51 2.444-50.26 104.386-39 155.051-27.08 497 45.26 346.34-181.063 257.12-252.368-89.222-71.305 71.14 21.321 72.11-318.502.98-339.823-196.974-347.452-286.184-165.15C762.407 486.372 638.47 426.011 455.09 460.875 271.709 495.74 217.753 637.363 350.483 660.087z" stroke="url(#paint14_linear_2_196)" stroke-opacity=".8"/><path d="M356.917 661.366c104.445 17.881 92.722 93.72 73.805 129.405-37.362 130-53.067 264.029-56.25 314.799 22.047 418.02 277.515 18.02 280.52-43.78 2.404-49.44 102.676-38.36 152.512-26.64 488.856 44.52 340.666-178.101 252.906-248.239-87.757-70.137 69.98 20.973 70.94-313.286.96-334.259-193.756-341.762-281.505-162.446-87.748 179.317-209.656 119.944-390.033 154.238-180.378 34.293-233.451 173.598-102.895 195.949z" stroke="url(#paint15_linear_2_196)" stroke-opacity=".8"/><path d="M362.985 662.574c102.805 17.6 91.266 92.249 72.646 127.373-36.775 127.96-52.234 259.883-55.367 309.853 21.701 411.46 273.158 17.74 276.116-43.09 2.367-48.67 101.065-37.76 150.118-26.22 481.182 43.82 335.322-175.306 248.942-244.342-86.386-69.036 68.88 20.643 69.82-308.368.94-329.012-190.714-336.398-277.085-159.896C761.804 494.386 641.81 435.945 464.264 469.7c-177.546 33.756-229.786 170.873-101.279 192.874z" stroke="url(#paint16_linear_2_196)" stroke-opacity=".8"/><path d="M370.317 664.031c100.824 17.262 89.507 90.472 71.246 124.919-36.067 125.494-51.228 254.88-54.3 303.88 21.283 403.54 267.895 17.4 270.795-42.26 2.321-47.73 99.117-37.03 147.225-25.71 471.907 42.97 328.857-171.929 244.147-239.635-84.723-67.706 67.55 20.245 68.47-302.427.93-322.671-187.036-329.915-271.743-156.814C761.45 499.085 643.769 441.77 469.644 474.875c-174.125 33.105-225.358 167.58-99.327 189.156z" stroke="url(#paint17_linear_2_196)" stroke-opacity=".8"/><path d="M376.864 665.334c99.055 16.958 87.937 88.884 69.996 122.727-35.434 123.292-50.329 250.409-53.347 298.549 20.909 396.45 263.194 17.1 266.044-41.52 2.279-46.889 97.377-36.38 144.641-25.26 463.632 42.22 323.092-168.911 239.862-235.429-83.235-66.518 66.36 19.89 67.27-297.12.91-317.009-183.755-324.126-266.975-154.062-83.221 170.063-198.837 113.753-369.907 146.278-171.069 32.524-221.403 164.639-97.584 185.837z" stroke="url(#paint18_linear_2_196)" stroke-opacity=".8"/><path d="M382.618 666.478c97.5 16.693 86.557 87.489 68.897 120.801-34.877 121.356-49.538 246.471-52.509 293.861 20.581 390.23 259.062 16.83 261.867-40.86 2.245-46.16 95.849-35.82 142.371-24.87 456.356 41.56 318.016-166.26 236.096-231.734-81.928-65.474 65.32 19.578 66.21-292.455.9-312.033-180.865-319.038-262.779-151.644-81.915 167.393-195.716 111.968-364.1 143.981-168.384 32.014-217.928 162.055-96.053 182.92z" stroke="url(#paint19_linear_2_196)" stroke-opacity=".8"/><path d="M389.572 667.862c95.621 16.37 84.888 85.803 67.569 118.472-34.205 119.018-48.583 241.726-51.497 288.206 20.184 382.7 254.07 16.5 256.821-40.08 2.201-45.27 94.002-35.125 139.627-24.39 447.558 40.75 311.888-163.057 231.548-227.269-80.351-64.212 64.06 19.2 64.94-286.82.87-306.02-177.388-312.89-257.723-148.722-80.336 164.168-191.944 109.811-357.084 141.207-165.139 31.397-213.728 158.933-94.201 179.396z" stroke="url(#paint20_linear_2_196)" stroke-opacity=".8"/><path d="M395.366 669.013c94.056 16.103 83.499 84.398 66.463 116.533-33.645 117.069-47.788 237.764-50.654 283.484 19.854 376.44 249.91 16.23 252.616-39.43 2.165-44.52 92.463-34.541 137.341-23.99 440.228 40.09 306.778-160.379 227.748-223.539-79.027-63.161 63.02 18.886 63.88-282.124.86-301.009-174.478-307.766-253.498-146.286-79.02 161.479-188.801 108.012-351.236 138.895-162.436 30.882-210.229 156.329-92.66 176.457z" stroke="url(#paint21_linear_2_196)" stroke-opacity=".8"/><path d="M400.831 670.101c92.579 15.85 82.187 83.073 65.419 114.704-33.117 115.231-47.038 234.035-49.859 279.035 19.542 370.53 245.987 15.97 248.65-38.81 2.131-43.824 91.012-34.001 135.186-23.61 433.323 39.46 301.963-157.867 224.173-220.036-77.787-62.169 62.03 18.589 62.88-277.695.85-296.284-171.742-302.935-249.522-143.99S651.921 466.016 492.035 496.414c-159.885 30.397-206.928 153.875-91.204 173.687z" stroke="url(#paint22_linear_2_196)" stroke-opacity=".8"/><path d="M407.433 671.415c90.795 15.544 80.604 81.472 64.159 112.493-32.479 113.01-46.132 229.522-48.898 273.652 19.165 363.4 241.246 15.67 243.858-38.05 2.09-42.986 89.258-33.352 132.581-23.163 424.967 38.703 296.147-154.823 219.857-215.794-76.292-60.972 60.83 18.231 61.66-272.344.84-290.574-168.429-297.097-244.71-141.215-76.28 155.882-182.256 104.268-339.06 134.08-156.805 29.812-202.941 150.91-89.447 170.341z" stroke="url(#paint23_linear_2_196)" stroke-opacity=".8"/><path d="M413.943 672.709c89.036 15.243 79.042 79.894 62.916 110.314-31.849 110.821-45.237 225.077-47.95 268.357 18.794 356.35 236.572 15.36 239.133-37.32 2.05-42.152 87.529-32.706 130.012-22.714 416.736 37.954 290.406-151.823 215.596-211.613-74.812-59.79 59.65 17.878 60.47-267.067.82-284.945-165.168-291.341-239.971-138.479-74.803 152.861-178.725 102.248-332.492 131.482-153.766 29.234-199.008 147.987-87.714 167.04z" stroke="url(#paint24_linear_2_196)" stroke-opacity=".8"/><path d="M419.115 673.736c87.638 15.004 77.801 78.639 61.928 108.582-31.349 109.081-44.527 221.542-47.198 264.142 18.499 350.76 232.859 15.12 235.38-36.74 2.017-41.483 86.154-32.184 127.971-22.349 410.194 37.359 285.854-149.441 212.214-208.292-73.64-58.851 58.71 17.598 59.52-262.874.8-280.472-162.578-286.768-236.206-136.306-73.629 150.463-175.919 100.643-327.272 129.419-151.353 28.775-195.885 145.663-86.337 164.418z" stroke="url(#paint25_linear_2_196)" stroke-opacity=".8"/><path d="M425.366 674.981c85.949 14.715 76.302 77.124 60.735 106.489-30.746 106.98-43.67 217.276-46.289 259.05 18.143 344 228.372 14.83 230.844-36.03 1.979-40.683 84.494-31.564 125.505-21.918 402.289 36.638 280.339-146.561 208.119-204.278-72.215-57.717 57.59 17.259 58.38-257.808.79-275.067-159.446-281.242-231.656-133.679-72.21 147.562-172.529 98.703-320.965 126.924-148.436 28.221-192.11 142.857-84.673 161.25z" stroke="url(#paint26_linear_2_196)" stroke-opacity=".8"/><path d="M430.574 676.017c84.542 14.473 75.053 75.861 59.74 104.745-30.242 105.228-42.954 213.719-45.53 254.808 17.845 338.37 224.632 14.59 227.064-35.43 1.946-40.026 83.11-31.057 123.449-21.569C1191 1014.61 1071.05 834.41 1000.01 777.638c-71.034-56.772 56.64 16.976 57.42-253.587.78-270.563-156.832-276.637-227.86-131.49-71.027 145.147-169.704 97.087-315.709 124.846-146.006 27.759-188.965 140.518-83.287 158.61z" stroke="url(#paint27_linear_2_196)" stroke-opacity=".8"/><path d="M435.485 676.993c83.215 14.246 73.875 74.67 58.803 103.101-29.767 103.576-42.28 210.364-44.816 250.806 17.566 333.06 221.106 14.36 223.5-34.877 1.915-39.393 81.806-30.564 121.512-21.225C1183.97 1010.27 1065.91 832.9 995.985 777.019c-69.921-55.881 55.755 16.71 56.515-249.606.76-266.316-154.369-272.294-224.282-129.426-69.912 142.868-167.04 95.563-310.753 122.886-143.714 27.323-185.998 138.312-81.98 156.12z" stroke="url(#paint28_linear_2_196)" stroke-opacity=".8"/><path d="M441.42 678.174c81.611 13.972 72.451 73.232 57.669 101.115-29.193 101.58-41.465 206.309-43.952 245.981 17.227 326.63 216.845 14.08 219.193-34.213 1.879-38.634 80.23-29.975 119.17-20.817 381.99 34.79 266.19-139.163 197.619-193.967-68.574-54.804 54.681 16.387 55.431-244.796.74-261.184-151.4-267.048-219.965-126.933C758.02 544.66 662.764 498.266 521.82 525.063c-140.944 26.796-182.414 135.646-80.4 153.111z" stroke="url(#paint29_linear_2_196)" stroke-opacity=".8"/><path d="M446.719 679.228c80.18 13.727 71.18 71.947 56.658 99.341-28.681 99.797-40.738 202.689-43.181 241.661 16.925 320.9 213.04 13.84 215.347-33.609 1.845-37.956 78.821-29.45 117.079-20.452 375.278 34.181 261.518-136.721 194.151-190.563-67.371-53.843 53.717 16.1 54.457-240.501.73-256.601-148.742-262.361-216.104-124.705-67.362 137.656-160.947 92.077-299.418 118.404-138.47 26.326-179.213 133.266-78.989 150.424z" stroke="url(#paint30_linear_2_196)" stroke-opacity=".8"/><path d="M451.378 680.155c78.92 13.511 70.062 70.817 55.768 97.781-28.231 98.231-40.098 199.508-42.503 237.864 16.659 315.87 209.695 13.62 211.966-33.078 1.816-37.36 77.584-28.987 115.241-20.13 369.39 33.64 257.42-134.575 191.103-187.572-66.313-52.997 52.877 15.847 53.597-236.726.73-252.573-146.401-258.243-212.706-122.747-66.305 135.496-158.42 90.632-294.717 116.545-136.297 25.913-176.4 131.174-77.749 148.063z" stroke="url(#paint31_linear_2_196)" stroke-opacity=".8"/><path d="M457.006 681.274c77.4 13.251 68.712 69.452 54.693 95.897-27.687 96.337-39.325 195.663-41.684 233.279 16.338 309.78 205.655 13.36 207.882-32.44 1.781-36.64 76.089-28.428 113.02-19.742 362.273 32.991 252.453-131.982 187.421-183.958-65.036-51.975 51.852 15.542 52.562-232.164.71-247.705-143.578-253.266-208.605-120.381-65.027 132.884-155.368 88.885-289.038 114.299-133.671 25.413-173.001 128.646-76.251 145.21z" stroke="url(#paint32_linear_2_196)" stroke-opacity=".8"/><path d="M461.696 682.207c76.133 13.034 67.587 68.315 53.798 94.326-27.234 94.761-38.682 192.46-41.001 229.467 16.07 304.7 202.287 13.13 204.477-31.915 1.753-36.041 74.844-27.963 111.17-19.42 356.34 32.452 248.32-129.82 184.352-180.945-63.971-51.125 51.008 15.287 51.708-228.362.7-243.65-141.234-249.12-205.196-118.411-63.962 130.709-152.824 87.43-284.306 112.427-131.482 24.998-170.167 126.54-75.002 142.833z" stroke="url(#paint33_linear_2_196)" stroke-opacity=".8"/><path d="M466.119 683.086c74.937 12.829 66.526 67.243 52.953 92.846-26.806 93.273-38.074 189.438-40.358 225.858 15.819 299.93 199.112 12.93 201.268-31.408 1.725-35.475 73.669-27.524 109.425-19.115 350.743 31.942 244.423-127.782 181.458-178.105-62.967-50.322 50.205 15.048 50.895-224.777.69-239.825-139.016-245.209-201.974-116.552-62.958 128.657-150.424 86.057-279.842 110.663-129.418 24.605-167.497 124.553-73.825 140.59z" stroke="url(#paint34_linear_2_196)" stroke-opacity=".8"/><path d="M471.463 684.149c73.494 12.583 65.245 65.947 51.933 91.057-26.289 91.476-37.34 185.788-39.58 221.509 15.514 294.145 195.275 12.685 197.39-30.806 1.691-34.791 72.249-26.993 107.316-18.746 343.988 31.327 239.718-125.32 177.961-174.673-61.753-49.352 49.237 14.758 49.917-220.446.67-235.203-136.339-240.483-198.084-114.306-61.745 126.178-147.526 84.399-274.45 108.53-126.924 24.131-164.269 122.154-72.403 137.881z" stroke="url(#paint35_linear_2_196)" stroke-opacity=".8"/><path d="M475.886 685.029c72.298 12.377 64.183 64.874 51.088 89.576-25.862 89.988-36.733 182.766-38.936 217.907 15.261 289.358 192.099 12.478 194.179-30.305 1.664-34.225 71.074-26.555 105.571-18.441 338.392 30.817 235.812-123.283 175.067-171.833-60.748-48.55 48.435 14.517 49.105-216.861.66-231.379-134.122-236.573-194.863-112.447-60.74 124.125-145.126 83.026-269.986 106.765-124.86 23.739-161.598 120.167-71.225 135.639z" stroke="url(#paint36_linear_2_196)" stroke-opacity=".8"/><path d="M480.086 685.864c71.163 12.183 63.176 63.856 50.286 88.17-25.456 88.575-36.156 179.897-38.325 214.486 15.022 284.82 189.084 12.28 191.132-29.829 1.637-33.688 69.958-26.138 103.913-18.152 333.078 30.333 232.118-121.347 172.319-169.135-59.795-47.788 47.679 14.289 48.329-213.457.65-227.746-132.011-232.859-191.799-110.682-59.787 122.177-142.848 81.723-265.748 105.089-122.9 23.366-159.061 118.281-70.107 133.51z" stroke="url(#paint37_linear_2_196)" stroke-opacity=".8"/><path d="M485.161 686.874c69.792 11.948 61.958 62.625 49.317 86.47-24.965 86.869-35.46 176.431-37.586 210.353 14.732 279.333 185.44 12.044 187.448-29.254 1.606-33.039 68.61-25.634 101.911-17.802 326.659 29.749 227.639-119.009 168.998-165.876-58.642-46.867 46.761 14.014 47.401-209.343.64-223.358-129.47-228.372-188.106-108.549-58.635 119.822-140.095 80.148-260.627 103.064-120.532 22.915-155.996 116.001-68.756 130.937z" stroke="url(#paint38_linear_2_196)" stroke-opacity=".8"/><path d="M489.39 687.713c68.649 11.753 60.944 61.6 48.51 85.055-24.557 85.446-34.88 173.542-36.971 206.909 14.491 274.753 182.403 11.846 184.379-28.776 1.58-32.497 67.486-25.214 100.242-17.51 321.31 29.262 223.91-117.06 166.231-163.16-57.683-46.099 45.994 13.785 46.624-205.916.629-219.7-127.35-224.632-185.025-106.771-57.675 117.861-137.802 78.836-256.36 101.376-118.558 22.541-153.441 114.102-67.63 128.793z" stroke="url(#paint39_linear_2_196)" stroke-opacity=".8"/><path d="M493.378 688.507c67.572 11.568 59.987 60.633 47.749 83.72-24.172 84.104-34.332 170.817-36.391 203.66 14.263 270.443 179.54 11.661 181.484-28.323 1.555-31.988 66.428-24.819 98.669-17.236C1101.16 959.13 1005.29 815.106 948.511 769.73c-56.777-45.376 45.272 13.568 45.891-202.684.62-216.251-125.35-221.106-182.12-105.095-56.77 116.01-135.638 77.598-252.335 99.785-116.697 22.187-151.033 112.311-66.569 126.771z" stroke="url(#paint40_linear_2_196)" stroke-opacity=".8"/><path d="M498.197 689.465c66.27 11.345 58.831 59.465 46.829 82.106-23.706 82.484-33.671 167.526-35.69 199.736 13.988 265.233 176.081 11.436 177.987-27.778 1.526-31.371 65.148-24.34 96.768-16.903 310.179 28.247 216.149-113.002 160.469-157.504-55.684-44.501 44.399 13.307 45.007-198.777.608-212.085-122.935-216.846-178.611-103.071-55.676 113.776-133.025 76.104-247.473 97.863-114.448 21.759-148.122 110.146-65.286 124.328z" stroke="url(#paint41_linear_2_196)" stroke-opacity=".8"/><path d="M502.501 690.323c65.106 11.146 57.799 58.421 46.007 80.665-23.29 81.037-33.08 164.587-35.064 196.232 13.743 260.58 172.991 11.235 174.864-27.291 1.499-30.821 64.004-23.913 95.07-16.607 304.732 27.752 212.359-111.019 157.653-154.739-54.706-43.721 43.62 13.073 44.217-195.29.597-208.363-120.777-213.041-175.476-101.262s-130.691 74.768-243.131 96.145c-112.44 21.377-145.523 108.214-64.14 122.147z" stroke="url(#paint42_linear_2_196)" stroke-opacity=".8"/><path d="M506.283 691.074c64.085 10.972 56.892 57.505 45.284 79.4-22.923 79.764-32.56 162.002-34.512 193.151 13.527 256.485 170.275 11.059 172.119-26.862 1.475-30.337 62.999-23.538 93.577-16.347 299.949 27.316 209.025-109.276 155.178-152.31-53.847-43.035 42.936 12.868 43.523-192.224.588-205.092-118.881-209.697-172.722-99.673-53.84 110.024-128.639 73.595-239.314 94.636-110.675 21.042-143.238 106.515-63.133 120.229z" stroke="url(#paint43_linear_2_196)" stroke-opacity=".8"/><path d="M510.854 691.984c62.849 10.76 55.795 56.396 44.412 77.869-22.483 78.228-31.933 158.881-33.848 189.429 13.266 251.548 166.994 10.846 168.802-26.345 1.447-29.752 61.785-23.084 91.774-16.031 294.166 26.79 204.997-107.17 152.188-149.375-52.81-42.205 42.108 12.62 42.684-188.52.577-201.14-116.59-205.656-169.393-97.752-52.803 107.904-126.16 72.176-234.703 92.812-108.542 20.637-140.478 104.463-61.916 117.913z" stroke="url(#paint44_linear_2_196)" stroke-opacity=".8"/><path d="M514.662 692.741c61.821 10.584 54.882 55.473 43.685 76.594-22.114 76.947-31.41 156.28-33.294 186.328 13.049 247.427 164.26 10.668 166.038-25.914 1.423-29.265 60.774-22.706 90.271-15.768 289.358 26.351 201.641-105.416 149.696-146.93-51.945-41.514 41.419 12.413 41.986-185.433.567-197.846-114.682-202.288-166.62-96.151-51.938 106.137-124.094 70.994-230.859 91.293-106.765 20.298-138.178 102.752-60.903 115.981z" stroke="url(#paint45_linear_2_196)" stroke-opacity=".8"/><path d="M518.254 693.455c60.85 10.418 54.02 54.602 42.998 75.392-21.767 75.739-30.917 153.826-32.771 183.402 12.845 243.541 161.682 10.501 163.432-25.506 1.401-28.806 59.82-22.35 88.854-15.521 284.813 25.937 198.476-103.761 147.346-144.623-51.129-40.863 40.769 12.218 41.327-182.523.558-194.74-112.882-199.112-164.004-94.641-51.123 104.471-122.147 69.88-227.236 89.859-105.089 19.98-136.009 101.139-59.946 114.161z" stroke="url(#paint46_linear_2_196)" stroke-opacity=".8"/><path d="M522.593 694.318c59.677 10.217 52.979 53.55 42.17 73.939-21.347 74.279-30.321 150.862-32.14 179.868 12.598 238.845 158.566 10.299 160.283-25.015 1.374-28.25 58.667-21.919 87.142-15.222 279.322 25.438 194.651-101.761 144.506-141.836-50.144-40.075 39.983 11.983 40.531-179.005.547-190.988-110.707-195.275-160.844-92.818-50.138 102.458-119.793 68.533-222.857 88.128s-133.388 99.19-58.791 111.961z" stroke="url(#paint47_linear_2_196)" stroke-opacity=".8"/><defs><linearGradient id="paint0_linear_2_196" x1="1055.58" y1="-46.975" x2="215.567" y2="1461.64" gradientUnits="userSpaceOnUse"><stop stop-color="#0963B8"/><stop offset=".172" stop-color="#6200AE"/><stop offset=".318" stop-color="#1900AE"/><stop offset=".661" stop-color="#260091"/><stop offset=".896" stop-color="#4731FC"/><stop offset=".979" stop-color="#3221F1"/><stop offset="1" stop-color="#21C9F1"/></linearGradient><linearGradient id="paint1_linear_2_196" x1="1050.68" y1="-34.649" x2="223.853" y2="1450.28" gradientUnits="userSpaceOnUse"><stop stop-color="#0963B8"/><stop offset=".172" stop-color="#6200AE"/><stop offset=".318" stop-color="#1900AE"/><stop offset=".661" stop-color="#260091"/><stop offset=".896" stop-color="#4731FC"/><stop offset=".979" stop-color="#3221F1"/><stop offset="1" stop-color="#21C9F1"/></linearGradient><linearGradient id="paint2_linear_2_196" x1="1044.76" y1="-19.755" x2="233.866" y2="1436.56" gradientUnits="userSpaceOnUse"><stop stop-color="#0963B8"/><stop offset=".172" stop-color="#6200AE"/><stop offset=".318" stop-color="#1900AE"/><stop offset=".661" stop-color="#260091"/><stop offset=".896" stop-color="#4731FC"/><stop offset=".979" stop-color="#3221F1"/><stop offset="1" stop-color="#21C9F1"/></linearGradient><linearGradient id="paint3_linear_2_196" x1="1039.83" y1="-7.344" x2="242.21" y2="1425.13" gradientUnits="userSpaceOnUse"><stop stop-color="#0963B8"/><stop offset=".172" stop-color="#6200AE"/><stop offset=".318" stop-color="#1900AE"/><stop offset=".661" stop-color="#260091"/><stop offset=".896" stop-color="#4731FC"/><stop offset=".979" stop-color="#3221F1"/><stop offset="1" stop-color="#21C9F1"/></linearGradient><linearGradient id="paint4_linear_2_196" x1="1035.17" y1="4.36" x2="250.078" y2="1414.34" gradientUnits="userSpaceOnUse"><stop stop-color="#0963B8"/><stop offset=".172" stop-color="#6200AE"/><stop offset=".318" stop-color="#1900AE"/><stop offset=".661" stop-color="#260091"/><stop offset=".896" stop-color="#4731FC"/><stop offset=".979" stop-color="#3221F1"/><stop offset="1" stop-color="#21C9F1"/></linearGradient><linearGradient id="paint5_linear_2_196" x1="1029.55" y1="18.502" x2="259.586" y2="1401.32" gradientUnits="userSpaceOnUse"><stop stop-color="#0963B8"/><stop offset=".172" stop-color="#6200AE"/><stop offset=".318" stop-color="#1900AE"/><stop offset=".661" stop-color="#260091"/><stop offset=".896" stop-color="#4731FC"/><stop offset=".979" stop-color="#3221F1"/><stop offset="1" stop-color="#21C9F1"/></linearGradient><linearGradient id="paint6_linear_2_196" x1="1024.53" y1="31.132" x2="268.076" y2="1389.68" gradientUnits="userSpaceOnUse"><stop stop-color="#0963B8"/><stop offset=".172" stop-color="#6200AE"/><stop offset=".318" stop-color="#1900AE"/><stop offset=".661" stop-color="#260091"/><stop offset=".896" stop-color="#4731FC"/><stop offset=".979" stop-color="#3221F1"/><stop offset="1" stop-color="#21C9F1"/></linearGradient><linearGradient id="paint7_linear_2_196" x1="1020.12" y1="42.232" x2="275.539" y2="1379.46" gradientUnits="userSpaceOnUse"><stop stop-color="#0963B8"/><stop offset=".172" stop-color="#6200AE"/><stop offset=".318" stop-color="#1900AE"/><stop offset=".661" stop-color="#260091"/><stop offset=".896" stop-color="#4731FC"/><stop offset=".979" stop-color="#3221F1"/><stop offset="1" stop-color="#21C9F1"/></linearGradient><linearGradient id="paint8_linear_2_196" x1="1014.79" y1="55.645" x2="284.555" y2="1367.1" gradientUnits="userSpaceOnUse"><stop stop-color="#0963B8"/><stop offset=".172" stop-color="#6200AE"/><stop offset=".318" stop-color="#1900AE"/><stop offset=".661" stop-color="#260091"/><stop offset=".896" stop-color="#4731FC"/><stop offset=".979" stop-color="#3221F1"/><stop offset="1" stop-color="#21C9F1"/></linearGradient><linearGradient id="paint9_linear_2_196" x1="1010.35" y1="66.821" x2="292.069" y2="1356.8" gradientUnits="userSpaceOnUse"><stop stop-color="#0963B8"/><stop offset=".172" stop-color="#6200AE"/><stop offset=".318" stop-color="#1900AE"/><stop offset=".661" stop-color="#260091"/><stop offset=".896" stop-color="#4731FC"/><stop offset=".979" stop-color="#3221F1"/><stop offset="1" stop-color="#21C9F1"/></linearGradient><linearGradient id="paint10_linear_2_196" x1="1006.16" y1="77.361" x2="299.155" y2="1347.09" gradientUnits="userSpaceOnUse"><stop stop-color="#0963B8"/><stop offset=".172" stop-color="#6200AE"/><stop offset=".318" stop-color="#1900AE"/><stop offset=".661" stop-color="#260091"/><stop offset=".896" stop-color="#4731FC"/><stop offset=".979" stop-color="#3221F1"/><stop offset="1" stop-color="#21C9F1"/></linearGradient><linearGradient id="paint11_linear_2_196" x1="1001.09" y1="90.097" x2="307.716" y2="1335.36" gradientUnits="userSpaceOnUse"><stop stop-color="#0963B8"/><stop offset=".172" stop-color="#6200AE"/><stop offset=".318" stop-color="#1900AE"/><stop offset=".661" stop-color="#260091"/><stop offset=".896" stop-color="#4731FC"/><stop offset=".979" stop-color="#3221F1"/><stop offset="1" stop-color="#21C9F1"/></linearGradient><linearGradient id="paint12_linear_2_196" x1="996.904" y1="100.636" x2="314.802" y2="1325.65" gradientUnits="userSpaceOnUse"><stop stop-color="#0963B8"/><stop offset=".172" stop-color="#6200AE"/><stop offset=".318" stop-color="#1900AE"/><stop offset=".661" stop-color="#260091"/><stop offset=".896" stop-color="#4731FC"/><stop offset=".979" stop-color="#3221F1"/><stop offset="1" stop-color="#21C9F1"/></linearGradient><linearGradient id="paint13_linear_2_196" x1="992.925" y1="110.646" x2="321.531" y2="1316.43" gradientUnits="userSpaceOnUse"><stop stop-color="#0963B8"/><stop offset=".172" stop-color="#6200AE"/><stop offset=".318" stop-color="#1900AE"/><stop offset=".661" stop-color="#260091"/><stop offset=".896" stop-color="#4731FC"/><stop offset=".979" stop-color="#3221F1"/><stop offset="1" stop-color="#21C9F1"/></linearGradient><linearGradient id="paint14_linear_2_196" x1="988.118" y1="122.74" x2="329.661" y2="1305.29" gradientUnits="userSpaceOnUse"><stop stop-color="#0963B8"/><stop offset=".172" stop-color="#6200AE"/><stop offset=".318" stop-color="#1900AE"/><stop offset=".661" stop-color="#260091"/><stop offset=".896" stop-color="#4731FC"/><stop offset=".979" stop-color="#3221F1"/><stop offset="1" stop-color="#21C9F1"/></linearGradient><linearGradient id="paint15_linear_2_196" x1="984.112" y1="132.818" x2="336.437" y2="1296" gradientUnits="userSpaceOnUse"><stop stop-color="#0963B8"/><stop offset=".172" stop-color="#6200AE"/><stop offset=".318" stop-color="#1900AE"/><stop offset=".661" stop-color="#260091"/><stop offset=".896" stop-color="#4731FC"/><stop offset=".979" stop-color="#3221F1"/><stop offset="1" stop-color="#21C9F1"/></linearGradient><linearGradient id="paint16_linear_2_196" x1="980.333" y1="142.322" x2="342.826" y2="1287.25" gradientUnits="userSpaceOnUse"><stop stop-color="#0963B8"/><stop offset=".172" stop-color="#6200AE"/><stop offset=".318" stop-color="#1900AE"/><stop offset=".661" stop-color="#260091"/><stop offset=".896" stop-color="#4731FC"/><stop offset=".979" stop-color="#3221F1"/><stop offset="1" stop-color="#21C9F1"/></linearGradient><linearGradient id="paint17_linear_2_196" x1="975.769" y1="153.805" x2="350.546" y2="1276.67" gradientUnits="userSpaceOnUse"><stop stop-color="#0963B8"/><stop offset=".172" stop-color="#6200AE"/><stop offset=".318" stop-color="#1900AE"/><stop offset=".661" stop-color="#260091"/><stop offset=".896" stop-color="#4731FC"/><stop offset=".979" stop-color="#3221F1"/><stop offset="1" stop-color="#21C9F1"/></linearGradient><linearGradient id="paint18_linear_2_196" x1="971.692" y1="164.061" x2="357.44" y2="1267.22" gradientUnits="userSpaceOnUse"><stop stop-color="#0963B8"/><stop offset=".172" stop-color="#6200AE"/><stop offset=".318" stop-color="#1900AE"/><stop offset=".661" stop-color="#260091"/><stop offset=".896" stop-color="#4731FC"/><stop offset=".979" stop-color="#3221F1"/><stop offset="1" stop-color="#21C9F1"/></linearGradient><linearGradient id="paint19_linear_2_196" x1="968.109" y1="173.074" x2="363.5" y2="1258.92" gradientUnits="userSpaceOnUse"><stop stop-color="#0963B8"/><stop offset=".172" stop-color="#6200AE"/><stop offset=".318" stop-color="#1900AE"/><stop offset=".661" stop-color="#260091"/><stop offset=".896" stop-color="#4731FC"/><stop offset=".979" stop-color="#3221F1"/><stop offset="1" stop-color="#21C9F1"/></linearGradient><linearGradient id="paint20_linear_2_196" x1="963.78" y1="183.966" x2="370.822" y2="1248.88" gradientUnits="userSpaceOnUse"><stop stop-color="#0963B8"/><stop offset=".172" stop-color="#6200AE"/><stop offset=".318" stop-color="#1900AE"/><stop offset=".661" stop-color="#260091"/><stop offset=".896" stop-color="#4731FC"/><stop offset=".979" stop-color="#3221F1"/><stop offset="1" stop-color="#21C9F1"/></linearGradient><linearGradient id="paint21_linear_2_196" x1="960.173" y1="193.041" x2="376.923" y2="1240.52" gradientUnits="userSpaceOnUse"><stop stop-color="#0963B8"/><stop offset=".172" stop-color="#6200AE"/><stop offset=".318" stop-color="#1900AE"/><stop offset=".661" stop-color="#260091"/><stop offset=".896" stop-color="#4731FC"/><stop offset=".979" stop-color="#3221F1"/><stop offset="1" stop-color="#21C9F1"/></linearGradient><linearGradient id="paint22_linear_2_196" x1="956.77" y1="201.601" x2="382.677" y2="1232.64" gradientUnits="userSpaceOnUse"><stop stop-color="#0963B8"/><stop offset=".172" stop-color="#6200AE"/><stop offset=".318" stop-color="#1900AE"/><stop offset=".661" stop-color="#260091"/><stop offset=".896" stop-color="#4731FC"/><stop offset=".979" stop-color="#3221F1"/><stop offset="1" stop-color="#21C9F1"/></linearGradient><linearGradient id="paint23_linear_2_196" x1="952.66" y1="211.942" x2="389.629" y2="1223.11" gradientUnits="userSpaceOnUse"><stop stop-color="#0963B8"/><stop offset=".172" stop-color="#6200AE"/><stop offset=".318" stop-color="#1900AE"/><stop offset=".661" stop-color="#260091"/><stop offset=".896" stop-color="#4731FC"/><stop offset=".979" stop-color="#3221F1"/><stop offset="1" stop-color="#21C9F1"/></linearGradient><linearGradient id="paint24_linear_2_196" x1="948.606" y1="222.139" x2="396.485" y2="1213.72" gradientUnits="userSpaceOnUse"><stop stop-color="#0963B8"/><stop offset=".172" stop-color="#6200AE"/><stop offset=".318" stop-color="#1900AE"/><stop offset=".661" stop-color="#260091"/><stop offset=".896" stop-color="#4731FC"/><stop offset=".979" stop-color="#3221F1"/><stop offset="1" stop-color="#21C9F1"/></linearGradient><linearGradient id="paint25_linear_2_196" x1="945.385" y1="230.238" x2="401.93" y2="1206.25" gradientUnits="userSpaceOnUse"><stop stop-color="#0963B8"/><stop offset=".172" stop-color="#6200AE"/><stop offset=".318" stop-color="#1900AE"/><stop offset=".661" stop-color="#260091"/><stop offset=".896" stop-color="#4731FC"/><stop offset=".979" stop-color="#3221F1"/><stop offset="1" stop-color="#21C9F1"/></linearGradient><linearGradient id="paint26_linear_2_196" x1="941.494" y1="240.03" x2="408.512" y2="1197.23" gradientUnits="userSpaceOnUse"><stop stop-color="#0963B8"/><stop offset=".172" stop-color="#6200AE"/><stop offset=".318" stop-color="#1900AE"/><stop offset=".661" stop-color="#260091"/><stop offset=".896" stop-color="#4731FC"/><stop offset=".979" stop-color="#3221F1"/><stop offset="1" stop-color="#21C9F1"/></linearGradient><linearGradient id="paint27_linear_2_196" x1="938.251" y1="248.187" x2="413.996" y2="1189.72" gradientUnits="userSpaceOnUse"><stop stop-color="#0963B8"/><stop offset=".172" stop-color="#6200AE"/><stop offset=".318" stop-color="#1900AE"/><stop offset=".661" stop-color="#260091"/><stop offset=".896" stop-color="#4731FC"/><stop offset=".979" stop-color="#3221F1"/><stop offset="1" stop-color="#21C9F1"/></linearGradient><linearGradient id="paint28_linear_2_196" x1="935.193" y1="255.88" x2="419.168" y2="1182.63" gradientUnits="userSpaceOnUse"><stop stop-color="#0963B8"/><stop offset=".172" stop-color="#6200AE"/><stop offset=".318" stop-color="#1900AE"/><stop offset=".661" stop-color="#260091"/><stop offset=".896" stop-color="#4731FC"/><stop offset=".979" stop-color="#3221F1"/><stop offset="1" stop-color="#21C9F1"/></linearGradient><linearGradient id="paint29_linear_2_196" x1="931.499" y1="265.176" x2="425.417" y2="1174.07" gradientUnits="userSpaceOnUse"><stop stop-color="#0963B8"/><stop offset=".172" stop-color="#6200AE"/><stop offset=".318" stop-color="#1900AE"/><stop offset=".661" stop-color="#260091"/><stop offset=".896" stop-color="#4731FC"/><stop offset=".979" stop-color="#3221F1"/><stop offset="1" stop-color="#21C9F1"/></linearGradient><linearGradient id="paint30_linear_2_196" x1="928.199" y1="273.477" x2="430.997" y2="1166.42" gradientUnits="userSpaceOnUse"><stop stop-color="#0963B8"/><stop offset=".172" stop-color="#6200AE"/><stop offset=".318" stop-color="#1900AE"/><stop offset=".661" stop-color="#260091"/><stop offset=".896" stop-color="#4731FC"/><stop offset=".979" stop-color="#3221F1"/><stop offset="1" stop-color="#21C9F1"/></linearGradient><linearGradient id="paint31_linear_2_196" x1="925.299" y1="280.773" x2="435.902" y2="1159.7" gradientUnits="userSpaceOnUse"><stop stop-color="#0963B8"/><stop offset=".172" stop-color="#6200AE"/><stop offset=".318" stop-color="#1900AE"/><stop offset=".661" stop-color="#260091"/><stop offset=".896" stop-color="#4731FC"/><stop offset=".979" stop-color="#3221F1"/><stop offset="1" stop-color="#21C9F1"/></linearGradient><linearGradient id="paint32_linear_2_196" x1="921.794" y1="289.588" x2="441.829" y2="1151.58" gradientUnits="userSpaceOnUse"><stop stop-color="#0963B8"/><stop offset=".172" stop-color="#6200AE"/><stop offset=".318" stop-color="#1900AE"/><stop offset=".661" stop-color="#260091"/><stop offset=".896" stop-color="#4731FC"/><stop offset=".979" stop-color="#3221F1"/><stop offset="1" stop-color="#21C9F1"/></linearGradient><linearGradient id="paint33_linear_2_196" x1="918.874" y1="296.935" x2="446.768" y2="1144.81" gradientUnits="userSpaceOnUse"><stop stop-color="#0963B8"/><stop offset=".172" stop-color="#6200AE"/><stop offset=".318" stop-color="#1900AE"/><stop offset=".661" stop-color="#260091"/><stop offset=".896" stop-color="#4731FC"/><stop offset=".979" stop-color="#3221F1"/><stop offset="1" stop-color="#21C9F1"/></linearGradient><linearGradient id="paint34_linear_2_196" x1="916.12" y1="303.862" x2="451.425" y2="1138.43" gradientUnits="userSpaceOnUse"><stop stop-color="#0963B8"/><stop offset=".172" stop-color="#6200AE"/><stop offset=".318" stop-color="#1900AE"/><stop offset=".661" stop-color="#260091"/><stop offset=".896" stop-color="#4731FC"/><stop offset=".979" stop-color="#3221F1"/><stop offset="1" stop-color="#21C9F1"/></linearGradient><linearGradient id="paint35_linear_2_196" x1="912.793" y1="312.233" x2="457.052" y2="1130.71" gradientUnits="userSpaceOnUse"><stop stop-color="#0963B8"/><stop offset=".172" stop-color="#6200AE"/><stop offset=".318" stop-color="#1900AE"/><stop offset=".661" stop-color="#260091"/><stop offset=".896" stop-color="#4731FC"/><stop offset=".979" stop-color="#3221F1"/><stop offset="1" stop-color="#21C9F1"/></linearGradient><linearGradient id="paint36_linear_2_196" x1="910.039" y1="319.16" x2="461.709" y2="1124.33" gradientUnits="userSpaceOnUse"><stop stop-color="#0963B8"/><stop offset=".172" stop-color="#6200AE"/><stop offset=".318" stop-color="#1900AE"/><stop offset=".661" stop-color="#260091"/><stop offset=".896" stop-color="#4731FC"/><stop offset=".979" stop-color="#3221F1"/><stop offset="1" stop-color="#21C9F1"/></linearGradient><linearGradient id="paint37_linear_2_196" x1="907.424" y1="325.739" x2="466.132" y2="1118.27" gradientUnits="userSpaceOnUse"><stop stop-color="#0963B8"/><stop offset=".172" stop-color="#6200AE"/><stop offset=".318" stop-color="#1900AE"/><stop offset=".661" stop-color="#260091"/><stop offset=".896" stop-color="#4731FC"/><stop offset=".979" stop-color="#3221F1"/><stop offset="1" stop-color="#21C9F1"/></linearGradient><linearGradient id="paint38_linear_2_196" x1="904.264" y1="333.688" x2="471.476" y2="1110.95" gradientUnits="userSpaceOnUse"><stop stop-color="#0963B8"/><stop offset=".172" stop-color="#6200AE"/><stop offset=".318" stop-color="#1900AE"/><stop offset=".661" stop-color="#260091"/><stop offset=".896" stop-color="#4731FC"/><stop offset=".979" stop-color="#3221F1"/><stop offset="1" stop-color="#21C9F1"/></linearGradient><linearGradient id="paint39_linear_2_196" x1="901.63" y1="340.311" x2="475.929" y2="1104.84" gradientUnits="userSpaceOnUse"><stop stop-color="#0963B8"/><stop offset=".172" stop-color="#6200AE"/><stop offset=".318" stop-color="#1900AE"/><stop offset=".661" stop-color="#260091"/><stop offset=".896" stop-color="#4731FC"/><stop offset=".979" stop-color="#3221F1"/><stop offset="1" stop-color="#21C9F1"/></linearGradient><linearGradient id="paint40_linear_2_196" x1="899.147" y1="346.558" x2="480.128" y2="1099.09" gradientUnits="userSpaceOnUse"><stop stop-color="#0963B8"/><stop offset=".172" stop-color="#6200AE"/><stop offset=".318" stop-color="#1900AE"/><stop offset=".661" stop-color="#260091"/><stop offset=".896" stop-color="#4731FC"/><stop offset=".979" stop-color="#3221F1"/><stop offset="1" stop-color="#21C9F1"/></linearGradient><linearGradient id="paint41_linear_2_196" x1="896.147" y1="354.105" x2="485.203" y2="1092.14" gradientUnits="userSpaceOnUse"><stop stop-color="#0963B8"/><stop offset=".172" stop-color="#6200AE"/><stop offset=".318" stop-color="#1900AE"/><stop offset=".661" stop-color="#260091"/><stop offset=".896" stop-color="#4731FC"/><stop offset=".979" stop-color="#3221F1"/><stop offset="1" stop-color="#21C9F1"/></linearGradient><linearGradient id="paint42_linear_2_196" x1="893.468" y1="360.848" x2="489.734" y2="1085.93" gradientUnits="userSpaceOnUse"><stop stop-color="#0963B8"/><stop offset=".172" stop-color="#6200AE"/><stop offset=".318" stop-color="#1900AE"/><stop offset=".661" stop-color="#260091"/><stop offset=".896" stop-color="#4731FC"/><stop offset=".979" stop-color="#3221F1"/><stop offset="1" stop-color="#21C9F1"/></linearGradient><linearGradient id="paint43_linear_2_196" x1="891.112" y1="366.772" x2="493.717" y2="1080.47" gradientUnits="userSpaceOnUse"><stop stop-color="#0963B8"/><stop offset=".172" stop-color="#6200AE"/><stop offset=".318" stop-color="#1900AE"/><stop offset=".661" stop-color="#260091"/><stop offset=".896" stop-color="#4731FC"/><stop offset=".979" stop-color="#3221F1"/><stop offset="1" stop-color="#21C9F1"/></linearGradient><linearGradient id="paint44_linear_2_196" x1="888.268" y1="373.93" x2="498.53" y2="1073.88" gradientUnits="userSpaceOnUse"><stop stop-color="#0963B8"/><stop offset=".172" stop-color="#6200AE"/><stop offset=".318" stop-color="#1900AE"/><stop offset=".661" stop-color="#260091"/><stop offset=".896" stop-color="#4731FC"/><stop offset=".979" stop-color="#3221F1"/><stop offset="1" stop-color="#21C9F1"/></linearGradient><linearGradient id="paint45_linear_2_196" x1="885.896" y1="379.896" x2="502.54" y2="1068.38" gradientUnits="userSpaceOnUse"><stop stop-color="#0963B8"/><stop offset=".172" stop-color="#6200AE"/><stop offset=".318" stop-color="#1900AE"/><stop offset=".661" stop-color="#260091"/><stop offset=".896" stop-color="#4731FC"/><stop offset=".979" stop-color="#3221F1"/><stop offset="1" stop-color="#21C9F1"/></linearGradient><linearGradient id="paint46_linear_2_196" x1="883.66" y1="385.521" x2="506.322" y2="1063.2" gradientUnits="userSpaceOnUse"><stop stop-color="#0963B8"/><stop offset=".172" stop-color="#6200AE"/><stop offset=".318" stop-color="#1900AE"/><stop offset=".661" stop-color="#260091"/><stop offset=".896" stop-color="#4731FC"/><stop offset=".979" stop-color="#3221F1"/><stop offset="1" stop-color="#21C9F1"/></linearGradient><linearGradient id="paint47_linear_2_196" x1="880.958" y1="392.317" x2="510.891" y2="1056.93" gradientUnits="userSpaceOnUse"><stop stop-color="#0963B8"/><stop offset=".172" stop-color="#6200AE"/><stop offset=".318" stop-color="#1900AE"/><stop offset=".661" stop-color="#260091"/><stop offset=".896" stop-color="#4731FC"/><stop offset=".979" stop-color="#3221F1"/><stop offset="1" stop-color="#21C9F1"/></linearGradient></defs></svg>