<svg width="49" height="53" fill="none" xmlns="http://www.w3.org/2000/svg"><path d="M48.464 17.872L25.02.762a.95.95 0 00-1.128 0L1.079 17.873a.951.951 0 00-.38.76v32.95a.95.95 0 00.95.957h46.258a.95.95 0 00.95-.95V18.64a.951.951 0 00-.393-.767zm-8.478 20.727H29.847v-9.505h10.139v9.505zm-12.04 12.04h-9.505v-10.14h9.505v10.14zm1.901-10.14h10.139v10.14H29.847v-10.14zm10.139-13.306h-11.09a.95.95 0 00-.95.95V38.6H17.491a.95.95 0 00-.95.95v11.09h-6.338V22.756h29.783v4.436zm6.97 23.445h-5.07V21.807a.95.95 0 00-.95-.95H9.253a.95.95 0 00-.95.95v28.831H2.6V19.114l21.867-16.4L46.956 19.12v31.518z" fill="#F4F4F6"/></svg>