<svg width="127" height="33" fill="none" xmlns="http://www.w3.org/2000/svg"><path d="M.68 1.318h7.96v23.92h9.568V32H.68V1.318zm52.377 15.364c0 4.539-1.61 8.357-4.83 11.454-3.189 3.036-7.222 4.554-12.098 4.554s-8.908-1.518-12.098-4.554c-3.22-3.097-4.83-6.915-4.83-11.454 0-2.116.399-4.186 1.196-6.21a14.984 14.984 0 013.634-5.29C27.221 2.146 31.253.628 36.13.628s8.909 1.518 12.098 4.554a14.476 14.476 0 013.588 5.29c.828 2.024 1.242 4.094 1.242 6.21zM36.13 8.356c-2.514 0-4.584.813-6.21 2.438-1.625 1.595-2.438 3.603-2.438 6.026 0 2.239.813 4.14 2.438 5.704 1.687 1.625 3.757 2.438 6.21 2.438 2.515 0 4.57-.797 6.164-2.392 1.656-1.656 2.484-3.619 2.484-5.888 0-2.33-.828-4.293-2.484-5.888-1.717-1.625-3.772-2.438-6.164-2.438zm36.727 12.466v-6.21H88.68c0 3.159-.383 5.842-1.15 8.05-.736 2.177-1.993 4.094-3.772 5.75-2.76 2.576-6.363 3.864-10.81 3.864-4.876 0-8.801-1.518-11.776-4.554-2.944-2.944-4.416-6.64-4.416-11.086 0-4.661 1.533-8.495 4.6-11.5C64.361 2.131 68.333.628 73.27.628c3.25 0 6.01.69 8.28 2.07C83.942 4.17 85.767 6.271 87.024 9l-7.59 3.128a7.71 7.71 0 00-2.208-3.082c-1.227-1.012-2.653-1.518-4.278-1.518-2.085 0-3.833.705-5.244 2.116-1.779 1.779-2.668 4.125-2.668 7.038 0 2.699.813 4.907 2.438 6.624 1.472 1.564 3.343 2.346 5.612 2.346 1.81 0 3.281-.475 4.416-1.426 1.012-.828 1.64-1.963 1.886-3.404h-6.532zm53.379-4.14c0 4.539-1.61 8.357-4.83 11.454-3.189 3.036-7.222 4.554-12.098 4.554s-8.909-1.518-12.098-4.554c-3.22-3.097-4.83-6.915-4.83-11.454 0-2.116.399-4.186 1.196-6.21a14.983 14.983 0 013.634-5.29c3.189-3.036 7.222-4.554 12.098-4.554s8.909 1.518 12.098 4.554a14.469 14.469 0 013.588 5.29c.828 2.024 1.242 4.094 1.242 6.21zm-16.928-8.326c-2.515 0-4.585.813-6.21 2.438-1.625 1.595-2.438 3.603-2.438 6.026 0 2.239.813 4.14 2.438 5.704 1.687 1.625 3.757 2.438 6.21 2.438 2.515 0 4.569-.797 6.164-2.392 1.656-1.656 2.484-3.619 2.484-5.888 0-2.33-.828-4.293-2.484-5.888-1.717-1.625-3.772-2.438-6.164-2.438z" fill="#fff"/></svg>