<svg width="33" height="28" fill="none" xmlns="http://www.w3.org/2000/svg"><path d="M30.113 13.168V3.543a.683.683 0 00-.495-.656L20.066.158a.686.686 0 00-.375 0l-9.365 2.675L.961.158a.684.684 0 00-.87.656v20.462c0 .304.203.572.496.656l9.552 2.728a.692.692 0 00.375 0l9.365-2.675 4.253 1.215a50.092 50.092 0 002.71 3.947.682.682 0 001.084 0c.503-.656 4.917-6.494 4.917-9.281 0-2.01-1.106-3.751-2.73-4.698zM9.643 23.1l-8.187-2.338V1.719l8.188 2.338V23.1zm9.553-2.339L11.01 23.1V4.057l8.187-2.338V20.76zm1.365 0V1.72l8.188 2.338v8.546a5.396 5.396 0 00-1.365-.194 5.464 5.464 0 00-5.458 5.457c0 .962.53 2.289 1.24 3.64l-2.605-.744zm6.823 4.83c-1.5-2.063-4.094-5.989-4.094-7.725a4.098 4.098 0 014.094-4.093 4.098 4.098 0 014.094 4.093c0 1.736-2.594 5.662-4.094 7.725z" fill="url(#paint0_linear_2_460)"/><defs><linearGradient id="paint0_linear_2_460" x1="16.467" y1=".132" x2="16.467" y2="27.414" gradientUnits="userSpaceOnUse"><stop offset=".172" stop-color="#A4A7E2"/><stop offset=".365" stop-color="#fff"/><stop offset=".604" stop-color="#A4A7E2"/><stop offset=".901" stop-color="#A4A7E2"/><stop offset="1" stop-color="#A4A7E2"/></linearGradient></defs></svg>