<svg width="33" height="28" fill="none" xmlns="http://www.w3.org/2000/svg"><path d="M30.168 13.557V3.932a.683.683 0 00-.495-.657L20.121.547a.686.686 0 00-.375 0l-9.365 2.675L1.016.547a.684.684 0 00-.87.656v20.462c0 .304.203.572.496.656l9.552 2.728a.691.691 0 00.375 0l9.365-2.675 4.253 1.215a50.093 50.093 0 002.71 3.947.682.682 0 001.084 0c.503-.657 4.917-6.494 4.917-9.281 0-2.01-1.106-3.751-2.73-4.698zM9.7 23.488l-8.188-2.337V2.108L9.7 4.446v19.042zm9.552-2.338l-8.187 2.339V4.446l8.187-2.338V21.15zm1.365 0V2.109l8.188 2.338v8.546a5.396 5.396 0 00-1.365-.194 5.464 5.464 0 00-5.458 5.457c0 .962.53 2.289 1.24 3.64l-2.605-.744zm6.823 4.83c-1.5-2.063-4.094-5.989-4.094-7.725a4.098 4.098 0 014.094-4.093 4.098 4.098 0 014.094 4.093c0 1.736-2.594 5.662-4.094 7.725z" fill="#A4A7E2" fill-opacity=".4"/></svg>