<svg width="25" height="25" fill="none" xmlns="http://www.w3.org/2000/svg"><g clip-path="url(#clip0_2_508)" fill="#D7DCE7" fill-opacity=".4"><path d="M12.46.915C7.809.915 4.024 4.7 4.024 9.353a8.42 8.42 0 001.26 4.436l6.698 10.794a.703.703 0 00.597.332h.006a.703.703 0 00.597-.342l6.527-10.898a8.428 8.428 0 001.19-4.322c0-4.653-3.785-8.438-8.437-8.438zm6.041 12.038l-5.934 9.908-6.089-9.813A7.022 7.022 0 015.42 9.353c0-3.877 3.164-7.041 7.04-7.041 3.878 0 7.037 3.164 7.037 7.04a7.025 7.025 0 01-.995 3.601z"/><path d="M12.46 5.134a4.224 4.224 0 00-4.218 4.219 4.213 4.213 0 004.219 4.218 4.21 4.21 0 004.219-4.218 4.224 4.224 0 00-4.22-4.22zm0 7.04a2.824 2.824 0 01-2.82-2.821 2.832 2.832 0 012.82-2.822 2.828 2.828 0 012.818 2.822 2.819 2.819 0 01-2.817 2.821z"/></g><defs><clipPath id="clip0_2_508"><path fill="#fff" transform="translate(.46 .915)" d="M0 0h24v24H0z"/></clipPath></defs></svg>