<svg width="52" height="52" fill="none" xmlns="http://www.w3.org/2000/svg"><path d="M51.169 22.718a.956.956 0 00-.208-1.336l-9.881-7.224-.042-.03c-.516-.887-.675-1.681-.403-2.052.253-.345.998-.448 1.928-.27.096.043.203.07.315.078 1.272.096 2.29-.282 2.866-1.066.683-.933.629-2.246-.152-3.696-.662-1.23-1.803-2.474-3.21-3.503-2.085-1.524-4.404-2.309-6.056-2.053-.788.123-1.42.481-1.82 1.03-.49.667-.6 1.561-.324 2.55a.96.96 0 00.142.556c.585.947.778 1.811.49 2.203-.252.346-.995.447-1.917.27L22.855.836a.955.955 0 00-1.337.208l-7.46 10.207a.954.954 0 00-.16.354c-.415 1.833-.063 3.317.97 4.072 1.034.753 2.543.638 4.161-.308h.004c.51-.195.941-.218 1.154-.06.288.21.377.866.226 1.67-.203 1.082-.809 2.371-1.662 3.538-1.382 1.892-2.951 2.887-3.893 3.033-.193.03-.46.04-.628-.084-.206-.15-.313-.521-.3-1.029.408-1.84.061-3.27-.978-4.03-1.074-.781-2.655-.63-4.338.411a.949.949 0 00-.27.25L.975 29.153a.958.958 0 00.209 1.336l10.209 7.462a.97.97 0 00.354.161c1.861.417 3.308.074 4.07-.968.74-1.01.646-2.478-.248-4.062a1.112 1.112 0 00-.037-.125c-.18-.49-.196-.892-.042-1.102.45-.616 2.756-.357 5.208 1.435 2.45 1.792 3.394 3.91 2.947 4.522-.143.193-.476.3-.933.301a.862.862 0 00-.098-.028c-1.83-.41-3.316-.057-4.07.974-.788 1.083-.642 2.623.412 4.336.065.106.15.198.25.27l10.085 7.37a.956.956 0 001.337-.208l7.29-9.972c.886-.514 1.68-.672 2.048-.402.312.228.62 1.184.382 2.334a.914.914 0 00-.04.236c-.07 1.552.545 2.339 1.077 2.728 1.764 1.285 4.857-.16 7.195-3.362 2.344-3.207 2.783-6.595 1.02-7.884-.515-.372-1.419-.715-2.803-.238a.958.958 0 00-.191.09c-1.051.65-2.095.55-2.467.28-.346-.254-.449-.996-.274-1.922l7.305-9.997zm-8.16 13.464c1.13.823 2.965.765 4.498-.136.284-.087.716-.173.965.006.615.45.354 2.755-1.438 5.208-1.79 2.448-3.905 3.397-4.523 2.947-.199-.146-.305-.51-.296-1.004.375-1.774-.08-3.532-1.12-4.293-1.069-.783-2.651-.634-4.34.412a.952.952 0 00-.269.25l-6.84 9.355-9.155-6.69c-.512-.888-.67-1.682-.404-2.049.25-.34.971-.446 1.874-.282a.956.956 0 00.382.109c1.26.086 2.272-.293 2.844-1.07 1.287-1.76-.158-4.854-3.361-7.199-3.207-2.34-6.595-2.78-7.883-1.019-.494.677-.6 1.586-.309 2.585 0 .175.05.349.143.5.586.949.78 1.814.495 2.203-.253.345-.995.446-1.918.27l-9.27-6.776 6.69-9.158c.885-.512 1.678-.67 2.05-.4.356.26.452 1.042.252 2.005a.962.962 0 00-.052.26c-.091 1.59.534 2.396 1.075 2.793.553.404 1.263.554 2.052.43 1.651-.256 3.623-1.71 5.145-3.795 1.03-1.408 1.74-2.94 1.998-4.313.304-1.618-.044-2.886-.973-3.564-.71-.526-1.684-.617-2.759-.262a.955.955 0 00-.367.133c-.945.584-1.81.776-2.2.493-.345-.253-.446-.995-.269-1.918l6.773-9.268 9.437 6.897a.95.95 0 00.353.16c1.86.422 3.308.077 4.07-.967.733-1 .652-2.447-.214-4.011a1.048 1.048 0 00-.046-.173c-.186-.502-.204-.91-.048-1.123.124-.17.379-.24.572-.27.941-.147 2.738.323 4.631 1.706 1.166.852 2.134 1.897 2.655 2.866.389.72.504 1.372.295 1.657-.15.204-.523.309-1.002.3a.306.306 0 00-.041-.01c-1.864-.416-3.308-.07-4.069.97-.784 1.07-.634 2.652.412 4.34a.96.96 0 00.242.262l9.315 6.814-6.866 9.391a.949.949 0 00-.161.356c-.416 1.86-.07 3.307.974 4.072z" fill="#F4F4F6"/></svg>