<svg width="394" height="389" fill="none" xmlns="http://www.w3.org/2000/svg"><path d="M49.76 120.614c40.232 18.822 27.075 48.174 15.467 60.498-29.532 48.398-50.758 100.83-57.68 120.996-37.492 171.41 110.169 38.091 118.245 13.443 6.46-19.717 45.759-4.107 64.602 6.162 192.652 72.262 157.467-34.17 129.78-72.261-27.686-38.091 25.957 16.245 63.449-118.755s-40.376-159.647-95.75-96.908C232.5 96.527 189.817 58.996 113.102 52.834c-76.715-6.162-113.63 44.253-63.341 67.78z" stroke="url(#paint0_linear_2_122)"/><path d="M52.08 121.775c39.599 18.526 26.648 47.418 15.223 59.548-29.069 47.639-49.962 99.247-56.775 119.097-36.904 168.719 108.44 37.493 116.389 13.233 6.358-19.409 45.041-4.044 63.588 6.065 189.628 71.127 154.995-33.634 127.743-71.127-27.252-37.493 25.549 15.99 62.452-116.891 36.904-132.88-39.742-157.14-94.246-95.387-54.504 61.753-96.517 24.811-172.028 18.746-75.51-6.065-111.846 43.559-62.347 66.716z" stroke="url(#paint1_linear_2_122)"/><path d="M54.88 123.179c38.837 18.169 26.136 46.504 14.931 58.4-28.508 46.721-48.999 97.335-55.68 116.802-36.193 165.468 106.35 36.77 114.145 12.977 6.236-19.034 44.174-3.965 62.363 5.949 185.974 69.756 152.008-32.986 125.282-69.757-26.727-36.77 25.056 15.682 61.248-114.638 36.193-130.32-38.976-154.113-92.43-93.549-53.453 60.564-94.657 24.334-168.713 18.385C41.971 51.8 6.336 100.467 54.881 123.18z" stroke="url(#paint2_linear_2_122)"/><path d="M57.216 124.348c38.2 17.872 25.707 45.743 14.686 57.444-28.042 45.956-48.197 95.741-54.77 114.889-35.6 162.759 104.609 36.169 112.277 12.766 6.134-18.723 43.45-3.901 61.341 5.85 182.929 68.614 149.52-32.445 123.231-68.614-26.289-36.168 24.646 15.425 60.246-112.761S335.889-17.667 283.31 41.905c-52.578 59.572-93.107 23.935-165.95 18.084-72.843-5.85-107.895 42.02-60.144 64.359z" stroke="url(#paint3_linear_2_122)"/><path d="M59.417 125.451c37.601 17.591 25.304 45.024 14.455 56.542-27.601 45.234-47.44 94.238-53.909 113.085-35.041 160.204 102.967 35.601 110.514 12.565 6.038-18.428 42.768-3.839 60.379 5.759 180.057 67.537 147.172-31.936 121.296-67.537-25.877-35.601 24.259 15.183 59.3-110.991 35.041-126.173-37.737-149.21-89.49-90.572-51.753 58.636-91.645 23.559-163.345 17.8s-106.201 41.36-59.2 63.349z" stroke="url(#paint4_linear_2_122)"/><path d="M62.077 126.783c36.877 17.252 24.817 44.157 14.177 55.453-27.07 44.362-46.526 92.422-52.87 110.906-34.366 157.117 100.982 34.915 108.384 12.323 5.922-18.074 41.944-3.765 59.215 5.648 176.587 66.235 144.336-31.321 118.959-66.236-25.378-34.914 23.791 14.891 58.157-108.852 34.366-123.742-37.009-146.334-87.765-88.827-50.756 57.507-89.88 23.105-160.197 17.457-70.318-5.648-104.155 40.563-58.06 62.128z" stroke="url(#paint5_linear_2_122)"/><path d="M64.453 127.973c36.229 16.95 24.38 43.382 13.928 54.48-26.595 43.584-45.71 90.8-51.943 108.96-33.763 154.36 99.211 34.302 106.483 12.107 5.817-17.757 41.208-3.7 58.176 5.549 173.488 65.073 141.803-30.771 116.871-65.074-24.933-34.302 23.374 14.629 57.137-106.942 33.763-121.57-36.36-143.766-86.225-87.269-49.865 56.498-88.303 22.7-157.387 17.152-69.083-5.55-102.327 39.851-57.04 61.037z" stroke="url(#paint6_linear_2_122)"/><path d="M66.54 129.019c35.661 16.683 23.999 42.701 13.71 53.625-26.177 42.899-44.992 89.374-51.127 107.249-33.233 151.937 97.653 33.764 104.811 11.917 5.726-17.478 40.561-3.641 57.263 5.462 170.765 64.051 139.577-30.288 115.036-64.052-24.541-33.764 23.008 14.399 56.24-105.264 33.233-119.662-35.789-141.51-84.871-85.898-49.082 55.61-86.917 22.343-154.916 16.881-68-5.461-100.721 39.226-56.145 60.08z" stroke="url(#paint7_linear_2_122)"/><path d="M69.064 130.283c34.973 16.361 23.535 41.878 13.445 52.591-25.673 42.073-44.125 87.652-50.142 105.183-32.593 149.009 95.771 33.113 102.791 11.687 5.616-17.141 39.78-3.571 56.159 5.356 167.475 62.818 136.888-29.704 112.82-62.817-24.068-33.113 22.564 14.122 55.157-103.235 32.592-117.357-35.1-138.783-83.236-84.244-48.137 54.54-85.242 21.913-151.931 16.557-66.69-5.357-98.78 38.469-55.063 58.922z" stroke="url(#paint8_linear_2_122)"/><path d="M71.166 131.336c34.401 16.094 23.15 41.192 13.225 51.73C59.14 224.45 40.99 269.283 35.07 286.527c-32.059 146.569 94.203 32.57 101.108 11.495 5.524-16.86 39.128-3.512 55.24 5.269 164.732 61.789 134.647-29.218 110.972-61.789-23.674-32.571 22.195 13.891 54.254-101.544 32.058-115.435-34.525-136.51-81.873-82.865-47.349 53.647-83.846 21.555-149.443 16.286-65.597-5.27-97.163 37.839-54.162 57.957z" stroke="url(#paint9_linear_2_122)"/><path d="M73.148 132.329c33.861 15.841 22.788 40.546 13.018 50.918-24.856 40.734-42.721 84.864-48.547 101.836-31.555 144.269 92.725 32.06 99.521 11.316 5.437-16.596 38.514-3.458 54.373 5.186 162.146 60.819 132.533-28.76 109.23-60.819-23.302-32.06 21.846 13.672 53.402-99.951C385.7 27.192 320.162 6.448 273.557 59.252c-46.605 52.804-82.53 21.216-147.097 16.03-64.567-5.186-95.637 37.245-53.311 57.047z" stroke="url(#paint10_linear_2_122)"/><path d="M75.544 133.529c33.208 15.536 22.348 39.764 12.767 49.937-24.377 39.949-41.898 83.228-47.612 99.874-30.947 141.488 90.938 31.441 97.604 11.097 5.332-16.276 37.771-3.391 53.324 5.086 159.022 59.647 129.979-28.205 107.126-59.647-22.854-31.442 21.425 13.409 52.372-98.024 30.948-111.434-33.328-131.779-79.034-79.992-45.707 51.786-80.94 20.807-144.263 15.72-63.323-5.085-93.794 36.529-52.284 55.949z" stroke="url(#paint11_linear_2_122)"/><path d="M77.527 134.522c32.668 15.283 21.984 39.118 12.559 49.125-23.98 39.3-41.217 81.875-46.837 98.25-30.445 139.187 89.458 30.93 96.016 10.916 5.245-16.011 37.157-3.335 52.457 5.004 156.436 58.677 127.866-27.747 105.384-58.677-22.482-30.931 21.076 13.191 51.521-96.431 30.444-109.621-32.786-129.635-77.75-78.69-44.964 50.944-79.623 20.468-141.917 15.465-62.293-5.004-92.269 35.934-51.433 55.038z" stroke="url(#paint12_linear_2_122)"/><path d="M79.41 135.465c32.155 15.043 21.639 38.504 12.361 48.354-23.604 38.683-40.57 80.589-46.102 96.707-29.966 137.003 88.055 30.445 94.509 10.745 5.164-15.759 36.574-3.283 51.634 4.925 153.981 57.756 125.858-27.311 103.73-57.756-22.129-30.445 20.745 12.984 50.712-94.916 29.966-107.9-32.272-127.6-76.529-77.456-44.258 50.145-78.374 20.148-139.689 15.223-61.316-4.925-90.821 35.37-50.627 54.174z" stroke="url(#paint13_linear_2_122)"/><path d="M81.684 136.604c31.536 14.754 21.223 37.762 12.124 47.422-23.15 37.938-39.788 79.037-45.214 94.844-29.388 134.363 86.358 29.859 92.688 10.539 5.064-15.457 35.869-3.22 50.639 4.83 151.013 56.642 123.433-26.785 101.731-56.643-21.703-29.859 20.346 12.733 49.734-93.088 29.389-105.821-31.649-125.141-75.054-75.963-43.405 49.178-76.863 19.76-136.997 14.93-60.134-4.83-89.07 34.687-49.65 53.129z" stroke="url(#paint14_linear_2_122)"/><path d="M83.58 137.554c31.019 14.512 20.875 37.144 11.925 46.645-22.77 37.317-39.136 77.743-44.473 93.291-28.907 132.163 84.944 29.37 91.17 10.366 4.981-15.203 35.282-3.167 49.81 4.751 148.54 55.715 121.412-26.346 100.065-55.715-21.348-29.37 20.013 12.525 48.92-91.564 28.908-104.088-31.131-123.092-73.825-74.719-42.695 48.373-75.605 19.436-134.754 14.685-59.15-4.751-87.612 34.12-48.838 52.26z" stroke="url(#paint15_linear_2_122)"/><path d="M85.368 138.449c30.532 14.284 20.547 36.561 11.738 45.913-22.413 36.731-38.522 76.523-43.775 91.827-28.454 130.088 83.61 28.908 89.738 10.203 4.903-14.964 34.729-3.118 49.028 4.676 146.209 54.841 119.506-25.932 98.494-54.841-21.012-28.908 19.699 12.329 48.153-90.126 28.453-102.454-30.643-121.16-72.667-73.546-42.024 47.614-74.417 19.13-132.638 14.454-58.221-4.676-86.237 33.585-48.071 51.44z" stroke="url(#paint16_linear_2_122)"/><path d="M87.528 139.531c29.944 14.009 20.151 35.856 11.511 45.028-21.98 36.023-37.78 75.048-42.931 90.058-27.905 127.58 81.999 28.351 88.01 10.006 4.808-14.676 34.059-3.058 48.083 4.586 143.391 53.784 117.203-25.433 96.596-53.784s19.319 12.091 47.224-88.389c27.906-100.48-30.052-118.826-71.266-72.13-41.214 46.697-72.983 18.763-130.082 14.176-57.1-4.586-84.575 32.938-47.145 50.449z" stroke="url(#paint17_linear_2_122)"/><path d="M89.457 140.498c29.418 13.763 19.797 35.226 11.309 44.238-21.595 35.391-37.116 73.731-42.178 88.477-27.416 125.342 80.561 27.853 86.465 9.83 4.724-14.418 33.462-3.003 47.24 4.506 140.875 52.84 115.146-24.986 94.901-52.84-20.246-27.854 18.98 11.879 46.396-86.838 27.416-98.718-29.525-116.74-70.016-70.864-40.491 45.877-71.703 18.433-127.8 13.927-56.097-4.506-83.09 32.36-46.317 49.564z" stroke="url(#paint18_linear_2_122)"/><path d="M91.152 141.346c28.957 13.547 19.487 34.674 11.132 43.544-21.256 34.835-36.534 72.574-41.516 87.088-26.985 123.375 79.296 27.417 85.108 9.677 4.65-14.192 32.936-2.957 46.498 4.435 138.664 52.011 113.339-24.595 93.411-52.011-19.927-27.417 18.683 11.692 45.668-85.475 26.985-97.168-29.061-114.908-68.917-69.751-39.855 45.157-70.577 18.143-125.793 13.708-55.217-4.435-81.787 31.852-45.59 48.785z" stroke="url(#paint19_linear_2_122)"/><path d="M93.2 142.373c28.4 13.286 19.112 34.005 10.918 42.705-20.846 34.163-35.83 71.174-40.716 85.409-26.465 120.997 77.768 26.888 83.468 9.49 4.56-13.918 32.302-2.899 45.602 4.35 135.992 51.008 111.155-24.121 91.611-51.009-19.543-26.888 18.322 11.467 44.788-83.828 26.465-95.295-28.501-112.693-67.589-68.407-39.087 44.287-69.217 17.794-123.369 13.445-54.153-4.35-80.21 31.237-44.712 47.845z" stroke="url(#paint20_linear_2_122)"/><path d="M94.908 143.228c27.934 13.068 18.798 33.449 10.739 42.005-20.505 33.605-35.243 70.01-40.05 84.011-26.031 119.016 76.495 26.448 82.102 9.335 4.485-13.691 31.772-2.852 44.855 4.278 133.765 50.174 109.335-23.725 90.111-50.173-19.224-26.448 18.022 11.279 44.054-82.455 26.032-93.735-28.034-110.848-66.482-67.287-38.447 43.561-68.083 17.502-121.349 13.224-53.266-4.278-78.897 30.726-43.98 47.062z" stroke="url(#paint21_linear_2_122)"/><path d="M96.518 144.034c27.495 12.864 18.503 32.924 10.57 41.346-20.183 33.077-34.69 68.911-39.42 82.693-25.624 117.147 75.293 26.033 80.812 9.188 4.415-13.476 31.274-2.808 44.151 4.211 131.665 49.386 107.618-23.353 88.696-49.386-18.922-26.032 17.74 11.103 43.363-81.161 25.624-92.263-27.594-109.108-65.438-66.23-37.844 42.877-67.015 17.227-119.445 13.016-52.43-4.21-77.658 30.244-43.29 46.323z" stroke="url(#paint22_linear_2_122)"/><path d="M98.463 145.009c26.965 12.615 18.147 32.289 10.367 40.549-19.795 32.44-34.022 67.582-38.661 81.099-25.13 114.89 73.842 25.531 79.255 9.011 4.33-13.216 30.671-2.753 43.3 4.13 129.128 48.434 105.545-22.903 86.987-48.434-18.557-25.531 17.398 10.888 42.527-79.597 25.13-90.485-27.062-107.006-64.177-64.954-37.114 42.051-65.724 16.895-117.143 12.765-51.419-4.13-76.162 29.661-42.455 45.431z" stroke="url(#paint23_linear_2_122)"/><path d="M100.381 145.969c26.443 12.371 17.795 31.664 10.166 39.764-19.41 31.811-33.362 66.273-37.912 79.528-24.643 112.664 72.412 25.036 77.72 8.836 4.246-12.96 30.076-2.7 42.461 4.05 126.626 47.496 103.5-22.459 85.302-47.495-18.198-25.037 17.06 10.677 41.703-78.055 24.643-88.732-26.538-104.932-62.934-63.696-36.395 41.237-64.45 16.568-114.873 12.518-50.423-4.05-74.687 29.087-41.633 44.55z" stroke="url(#paint24_linear_2_122)"/><path d="M101.905 146.733c26.028 12.176 17.516 31.166 10.006 39.139-19.106 31.312-32.839 65.233-37.317 78.279-24.255 110.896 71.275 24.644 76.5 8.698 4.179-12.757 29.605-2.658 41.795 3.986 124.638 46.751 101.875-22.106 83.962-46.75-17.912-24.643 16.793 10.51 41.049-76.829 24.256-87.34-26.122-103.285-61.946-62.696s-63.438 16.308-113.07 12.322c-49.631-3.987-73.514 28.63-40.979 43.851z" stroke="url(#paint25_linear_2_122)"/><path d="M103.747 147.655c25.526 11.942 17.178 30.566 9.813 38.385-18.738 30.709-32.206 63.976-36.598 76.771-23.788 108.759 69.902 24.169 75.025 8.53 4.099-12.511 29.035-2.606 40.99 3.91 122.236 45.849 99.912-21.681 82.345-45.849-17.567-24.169 16.469 10.307 40.257-75.349 23.789-85.657-25.618-101.295-60.752-61.488s-62.216 15.994-110.891 12.084c-48.675-3.909-72.098 28.078-40.189 43.006z" stroke="url(#paint26_linear_2_122)"/><path d="M105.281 148.424c25.108 11.746 16.897 30.065 9.653 37.756-18.431 30.206-31.679 62.928-35.999 75.514-23.399 106.978 68.757 23.773 73.797 8.39 4.032-12.305 28.559-2.563 40.318 3.846 120.235 45.098 98.276-21.326 80.997-45.098-17.279-23.773 16.199 10.138 39.598-74.116 23.399-84.253-25.199-99.636-59.757-60.48-34.559 39.155-61.198 15.732-109.076 11.886-47.878-3.846-70.917 27.618-39.531 42.302z" stroke="url(#paint27_linear_2_122)"/><path d="M106.728 149.148c24.714 11.563 16.632 29.594 9.501 37.164-18.142 29.732-31.181 61.941-35.433 74.329-23.032 105.298 67.678 23.399 72.638 8.258 3.969-12.112 28.111-2.523 39.686 3.786 118.347 44.39 96.733-20.991 79.725-44.391-17.008-23.399 15.945 9.979 38.976-72.952 23.032-82.93-24.803-98.072-58.819-59.531-34.016 38.541-60.237 15.485-107.363 11.7-47.127-3.785-69.804 27.185-38.911 41.637z" stroke="url(#paint28_linear_2_122)"/><path d="M108.476 150.024c24.238 11.34 16.312 29.024 9.319 36.448-17.793 29.159-30.58 60.747-34.751 72.896-22.588 103.27 66.374 22.949 71.239 8.1 3.892-11.879 27.568-2.475 38.92 3.712 116.067 43.535 94.869-20.586 78.189-43.535-16.68-22.949 15.638 9.787 38.226-71.546 22.587-81.333-24.326-96.182-57.686-58.384-33.361 37.798-59.076 15.186-105.295 11.474-46.218-3.712-68.458 26.661-38.161 40.835z" stroke="url(#paint29_linear_2_122)"/><path d="M110.038 150.806c23.813 11.141 16.025 28.514 9.154 35.809-17.48 28.646-30.043 59.68-34.14 71.617-22.192 101.457 65.209 22.546 69.988 7.957 3.824-11.671 27.085-2.431 38.238 3.647 114.03 42.771 93.204-20.225 76.817-42.771-16.388-22.546 15.363 9.615 37.554-70.291 22.192-79.905-23.898-94.494-56.673-57.36-32.775 37.135-58.04 14.921-103.447 11.274-45.407-3.647-67.257 26.193-37.491 40.118z" stroke="url(#paint30_linear_2_122)"/><path d="M111.41 151.494c23.439 10.965 15.774 28.066 9.011 35.246-17.206 28.197-29.572 58.744-33.605 70.493-21.843 99.864 64.185 22.192 68.89 7.832 3.764-11.487 26.66-2.393 37.638 3.59 112.24 42.1 91.741-19.908 75.61-42.1-16.13-22.192 15.123 9.465 36.966-69.187 21.843-78.651-23.524-93.01-55.784-56.459-32.261 36.552-57.128 14.686-101.823 11.096-44.694-3.59-66.201 25.782-36.903 39.489z" stroke="url(#paint31_linear_2_122)"/><path d="M113.068 152.324c22.988 10.755 15.47 27.526 8.838 34.567-16.874 27.654-29.003 57.612-32.958 69.135-21.422 97.94 62.949 21.764 67.563 7.681 3.691-11.266 26.146-2.347 36.912 3.521 110.077 41.288 89.973-19.524 74.154-41.289-15.82-21.764 14.831 9.282 36.253-67.853 21.422-77.136-23.07-91.22-54.709-55.372-31.639 35.848-56.028 14.403-99.861 10.882-43.833-3.52-64.926 25.286-36.192 38.728z" stroke="url(#paint32_linear_2_122)"/><path d="M114.45 153.017c22.611 10.578 15.217 27.075 8.693 34.001-16.598 27.201-28.528 56.668-32.418 68.002-21.071 96.336 61.918 21.408 66.456 7.556 3.631-11.082 25.718-2.309 36.308 3.463 108.275 40.612 88.5-19.205 72.94-40.613-15.561-21.408 14.588 9.13 35.659-66.742 21.071-75.873-22.692-89.725-53.813-54.465-31.121 35.26-55.11 14.167-98.226 10.704-43.115-3.463-63.862 24.871-35.599 38.094z" stroke="url(#paint33_linear_2_122)"/><path d="M115.753 153.669c22.256 10.412 14.978 26.65 8.556 33.467-16.337 26.774-28.08 55.779-31.908 66.935-20.741 94.824 60.945 21.072 65.413 7.437 3.573-10.908 25.314-2.272 35.737 3.409 106.575 39.975 87.111-18.903 71.795-39.975-15.316-21.072 14.359 8.987 35.1-65.695 20.74-74.682-22.337-88.317-52.969-53.61-30.632 34.707-54.245 13.945-96.683 10.536-42.439-3.408-62.86 24.481-35.041 37.496z" stroke="url(#paint34_linear_2_122)"/><path d="M117.328 154.458c21.827 10.211 14.689 26.136 8.391 32.822-16.022 26.258-27.538 54.704-31.294 65.645-20.34 92.997 59.772 20.666 64.153 7.294 3.505-10.698 24.826-2.229 35.049 3.343 104.521 39.205 85.432-18.539 70.411-39.205-15.021-20.666 14.082 8.814 34.423-64.429 20.341-73.242-21.906-86.614-51.948-52.576-30.042 34.038-53.199 13.676-94.82 10.333-41.621-3.343-61.649 24.009-34.365 36.773z" stroke="url(#paint35_linear_2_122)"/><path d="M118.631 155.111c21.472 10.045 14.45 25.711 8.255 32.288-15.762 25.831-27.091 53.815-30.785 64.578-20.01 91.484 58.799 20.33 63.109 7.175 3.448-10.524 24.423-2.193 34.479 3.289 102.822 38.567 84.043-18.238 69.266-38.567-14.777-20.33 13.853 8.67 33.864-63.382 20.01-72.051-21.55-85.206-51.103-51.722-29.554 33.485-52.335 13.454-93.279 10.165-40.944-3.288-60.646 23.619-33.806 36.176z" stroke="url(#paint36_linear_2_122)"/><path d="M119.868 155.73c21.135 9.888 14.223 25.308 8.126 31.782-15.515 25.426-26.666 52.97-30.302 63.564-19.696 90.048 57.876 20.011 62.118 7.062 3.394-10.358 24.04-2.158 33.938 3.238 101.208 37.961 82.724-17.951 68.179-37.962-14.545-20.011 13.636 8.534 33.332-62.387 19.696-70.92-21.211-83.868-50.301-50.909-29.09 32.959-51.513 13.242-91.814 10.005-40.301-3.237-59.694 23.248-33.276 35.607z" stroke="url(#paint37_linear_2_122)"/><path d="M121.364 156.479c20.727 9.697 13.949 24.82 7.968 31.17-15.215 24.935-26.151 51.949-29.718 62.338-19.316 88.314 56.761 19.625 60.922 6.927 3.328-10.159 23.576-2.117 33.284 3.175 99.257 37.23 81.129-17.605 66.865-37.231-14.265-19.625 13.373 8.37 32.689-61.184 19.317-69.554-20.802-82.252-49.331-49.929-28.529 32.324-50.52 12.988-90.045 9.813-39.525-3.175-58.544 22.8-32.634 34.921z" stroke="url(#paint38_linear_2_122)"/><path d="M122.61 157.103c20.388 9.539 13.72 24.414 7.838 30.659-14.967 24.528-25.724 51.099-29.231 61.318-19 86.868 55.831 19.304 59.924 6.814 3.273-9.993 23.19-2.082 32.738 3.122 97.633 36.621 79.802-17.316 65.771-36.62-14.031-19.304 13.154 8.232 32.154-60.183 19-68.415-20.462-80.905-48.524-49.111-28.062 31.795-49.693 12.775-88.57 9.652-38.878-3.123-57.586 22.426-32.1 34.349z" stroke="url(#paint39_linear_2_122)"/><path d="M123.785 157.692c20.068 9.389 13.505 24.03 7.715 30.178-14.732 24.142-25.32 50.296-28.773 60.355-18.702 85.504 54.956 19.001 58.984 6.706 3.222-9.835 22.826-2.049 32.225 3.074 96.099 36.045 78.548-17.045 64.737-36.046-13.81-19 12.948 8.104 31.65-59.237 18.702-67.341-20.141-79.636-47.762-48.341-27.622 31.296-48.913 12.574-87.18 9.501-38.267-3.074-56.682 22.074-31.596 33.81z" stroke="url(#paint40_linear_2_122)"/><path d="M125.204 158.403c19.682 9.208 13.245 23.567 7.567 29.596-14.448 23.677-24.832 49.327-28.218 59.193-18.342 83.855 53.896 18.634 57.847 6.577 3.16-9.647 22.386-2.01 31.604 3.014 94.247 35.351 77.034-16.716 63.49-35.351-13.545-18.635 12.698 7.947 31.039-58.096 18.342-66.044-19.752-78.101-46.841-47.409-27.089 30.692-47.971 12.332-85.5 9.317-37.53-3.014-55.589 21.649-30.988 33.159z" stroke="url(#paint41_linear_2_122)"/><path d="M126.472 159.038c19.337 9.047 13.013 23.154 7.434 29.077-14.194 23.262-24.396 48.462-27.723 58.154-18.02 82.384 52.951 18.308 56.832 6.462 3.105-9.477 21.993-1.975 31.049 2.961 92.594 34.731 75.683-16.423 62.376-34.731-13.307-18.307 12.476 7.808 30.495-57.076 18.02-64.885-19.406-76.731-46.019-46.577-26.614 30.154-47.129 12.115-84 9.154-36.871-2.962-54.614 21.269-30.444 32.576z" stroke="url(#paint42_linear_2_122)"/><path d="M127.587 159.596c19.032 8.904 12.808 22.791 7.317 28.621-13.972 22.896-24.013 47.7-27.288 57.241-17.737 81.091 52.119 18.02 55.94 6.36 3.056-9.329 21.648-1.944 30.562 2.915 91.14 34.185 74.494-16.166 61.396-34.186-13.098-18.02 12.28 7.685 30.017-56.181 17.737-63.866-19.102-75.526-45.298-45.845-26.196 29.68-46.388 11.925-82.681 9.01-36.292-2.915-53.756 20.935-29.965 32.065z" stroke="url(#paint43_linear_2_122)"/><path d="M128.933 160.271c18.666 8.732 12.562 22.351 7.176 28.069-13.702 22.455-23.55 46.781-26.761 56.138-17.395 79.528 51.114 17.673 54.861 6.237 2.997-9.148 21.231-1.906 29.973 2.859 89.384 33.527 73.06-15.854 60.214-33.527-12.846-17.673 12.043 7.537 29.438-55.098s-18.733-74.07-44.425-44.962c-25.691 29.108-45.494 11.695-81.088 8.836-35.593-2.859-52.72 20.532-29.388 31.448z" stroke="url(#paint44_linear_2_122)"/><path d="M130.055 160.833c18.361 8.59 12.356 21.985 7.059 27.609-13.478 22.088-23.165 46.016-26.324 55.219-17.11 78.226 50.278 17.384 53.963 6.135 2.949-8.998 20.884-1.874 29.483 2.812 87.92 32.978 71.863-15.594 59.228-32.977-12.636-17.384 11.845 7.413 28.955-54.196 17.111-61.61-18.426-72.858-43.697-44.226-25.27 28.632-44.75 11.504-79.76 8.691-35.01-2.812-51.857 20.196-28.907 30.933z" stroke="url(#paint45_linear_2_122)"/><path d="M131.113 161.363c18.072 8.455 12.162 21.64 6.948 27.176-13.266 21.74-22.801 45.293-25.91 54.352-16.842 76.998 49.488 17.11 53.116 6.039 2.902-8.858 20.555-1.846 29.019 2.768 86.541 32.46 70.735-15.35 58.298-32.461-12.436-17.11 11.66 7.298 28.502-53.345 16.841-60.642-18.137-71.714-43.011-43.532-24.874 28.183-44.048 11.324-78.508 8.556-34.461-2.768-51.044 19.879-28.454 30.447z" stroke="url(#paint46_linear_2_122)"/><path d="M132.392 162.004c17.724 8.291 11.927 21.223 6.814 26.652-13.011 21.321-22.362 44.42-25.411 53.304-16.517 75.515 48.535 16.781 52.092 5.923 2.846-8.687 20.16-1.81 28.46 2.714 84.873 31.835 69.372-15.053 57.175-31.834-12.197-16.781 11.435 7.156 27.952-52.317 16.517-59.474-17.787-70.333-42.182-42.693-24.395 27.639-43.199 11.105-76.995 8.39-33.797-2.714-50.06 19.496-27.905 29.861z" stroke="url(#paint47_linear_2_122)"/><defs><linearGradient id="paint0_linear_2_122" x1="361.943" y1="-23.4" x2="-28.966" y2="374.858" gradientUnits="userSpaceOnUse"><stop stop-color="#010B49"/><stop offset=".505" stop-color="#2302F0"/><stop offset=".719" stop-color="#21C9F1"/><stop offset=".885" stop-color="#0419D0"/><stop offset=".979" stop-color="#2136F1"/></linearGradient><linearGradient id="paint1_linear_2_122" x1="359.361" y1="-19.978" x2="-25.412" y2="372.028" gradientUnits="userSpaceOnUse"><stop stop-color="#010B49"/><stop offset=".505" stop-color="#2302F0"/><stop offset=".719" stop-color="#21C9F1"/><stop offset=".885" stop-color="#0419D0"/><stop offset=".979" stop-color="#2136F1"/></linearGradient><linearGradient id="paint2_linear_2_122" x1="356.241" y1="-15.843" x2="-21.117" y2="368.609" gradientUnits="userSpaceOnUse"><stop stop-color="#010B49"/><stop offset=".505" stop-color="#2302F0"/><stop offset=".719" stop-color="#21C9F1"/><stop offset=".885" stop-color="#0419D0"/><stop offset=".979" stop-color="#2136F1"/></linearGradient><linearGradient id="paint3_linear_2_122" x1="353.641" y1="-12.397" x2="-17.538" y2="365.759" gradientUnits="userSpaceOnUse"><stop stop-color="#010B49"/><stop offset=".505" stop-color="#2302F0"/><stop offset=".719" stop-color="#21C9F1"/><stop offset=".885" stop-color="#0419D0"/><stop offset=".979" stop-color="#2136F1"/></linearGradient><linearGradient id="paint4_linear_2_122" x1="351.189" y1="-9.148" x2="-14.163" y2="363.072" gradientUnits="userSpaceOnUse"><stop stop-color="#010B49"/><stop offset=".505" stop-color="#2302F0"/><stop offset=".719" stop-color="#21C9F1"/><stop offset=".885" stop-color="#0419D0"/><stop offset=".979" stop-color="#2136F1"/></linearGradient><linearGradient id="paint5_linear_2_122" x1="348.227" y1="-5.222" x2="-10.085" y2="359.826" gradientUnits="userSpaceOnUse"><stop stop-color="#010B49"/><stop offset=".505" stop-color="#2302F0"/><stop offset=".719" stop-color="#21C9F1"/><stop offset=".885" stop-color="#0419D0"/><stop offset=".979" stop-color="#2136F1"/></linearGradient><linearGradient id="paint6_linear_2_122" x1="345.581" y1="-1.716" x2="-6.443" y2="356.927" gradientUnits="userSpaceOnUse"><stop stop-color="#010B49"/><stop offset=".505" stop-color="#2302F0"/><stop offset=".719" stop-color="#21C9F1"/><stop offset=".885" stop-color="#0419D0"/><stop offset=".979" stop-color="#2136F1"/></linearGradient><linearGradient id="paint7_linear_2_122" x1="343.256" y1="1.366" x2="-3.242" y2="354.378" gradientUnits="userSpaceOnUse"><stop stop-color="#010B49"/><stop offset=".505" stop-color="#2302F0"/><stop offset=".719" stop-color="#21C9F1"/><stop offset=".885" stop-color="#0419D0"/><stop offset=".979" stop-color="#2136F1"/></linearGradient><linearGradient id="paint8_linear_2_122" x1="340.447" y1="5.09" x2=".625" y2="351.299" gradientUnits="userSpaceOnUse"><stop stop-color="#010B49"/><stop offset=".505" stop-color="#2302F0"/><stop offset=".719" stop-color="#21C9F1"/><stop offset=".885" stop-color="#0419D0"/><stop offset=".979" stop-color="#2136F1"/></linearGradient><linearGradient id="paint9_linear_2_122" x1="338.106" y1="8.193" x2="3.848" y2="348.733" gradientUnits="userSpaceOnUse"><stop stop-color="#010B49"/><stop offset=".505" stop-color="#2302F0"/><stop offset=".719" stop-color="#21C9F1"/><stop offset=".885" stop-color="#0419D0"/><stop offset=".979" stop-color="#2136F1"/></linearGradient><linearGradient id="paint10_linear_2_122" x1="335.898" y1="11.119" x2="6.888" y2="346.314" gradientUnits="userSpaceOnUse"><stop stop-color="#010B49"/><stop offset=".505" stop-color="#2302F0"/><stop offset=".719" stop-color="#21C9F1"/><stop offset=".885" stop-color="#0419D0"/><stop offset=".979" stop-color="#2136F1"/></linearGradient><linearGradient id="paint11_linear_2_122" x1="333.23" y1="14.654" x2="10.56" y2="343.39" gradientUnits="userSpaceOnUse"><stop stop-color="#010B49"/><stop offset=".505" stop-color="#2302F0"/><stop offset=".719" stop-color="#21C9F1"/><stop offset=".885" stop-color="#0419D0"/><stop offset=".979" stop-color="#2136F1"/></linearGradient><linearGradient id="paint12_linear_2_122" x1="331.022" y1="17.581" x2="13.599" y2="340.971" gradientUnits="userSpaceOnUse"><stop stop-color="#010B49"/><stop offset=".505" stop-color="#2302F0"/><stop offset=".719" stop-color="#21C9F1"/><stop offset=".885" stop-color="#0419D0"/><stop offset=".979" stop-color="#2136F1"/></linearGradient><linearGradient id="paint13_linear_2_122" x1="328.926" y1="20.359" x2="16.485" y2="338.673" gradientUnits="userSpaceOnUse"><stop stop-color="#010B49"/><stop offset=".505" stop-color="#2302F0"/><stop offset=".719" stop-color="#21C9F1"/><stop offset=".885" stop-color="#0419D0"/><stop offset=".979" stop-color="#2136F1"/></linearGradient><linearGradient id="paint14_linear_2_122" x1="326.392" y1="23.717" x2="19.973" y2="335.896" gradientUnits="userSpaceOnUse"><stop stop-color="#010B49"/><stop offset=".505" stop-color="#2302F0"/><stop offset=".719" stop-color="#21C9F1"/><stop offset=".885" stop-color="#0419D0"/><stop offset=".979" stop-color="#2136F1"/></linearGradient><linearGradient id="paint15_linear_2_122" x1="324.281" y1="26.515" x2="22.879" y2="333.583" gradientUnits="userSpaceOnUse"><stop stop-color="#010B49"/><stop offset=".505" stop-color="#2302F0"/><stop offset=".719" stop-color="#21C9F1"/><stop offset=".885" stop-color="#0419D0"/><stop offset=".979" stop-color="#2136F1"/></linearGradient><linearGradient id="paint16_linear_2_122" x1="322.29" y1="29.153" x2="25.62" y2="331.401" gradientUnits="userSpaceOnUse"><stop stop-color="#010B49"/><stop offset=".505" stop-color="#2302F0"/><stop offset=".719" stop-color="#21C9F1"/><stop offset=".885" stop-color="#0419D0"/><stop offset=".979" stop-color="#2136F1"/></linearGradient><linearGradient id="paint17_linear_2_122" x1="319.885" y1="32.341" x2="28.931" y2="328.764" gradientUnits="userSpaceOnUse"><stop stop-color="#010B49"/><stop offset=".505" stop-color="#2302F0"/><stop offset=".719" stop-color="#21C9F1"/><stop offset=".885" stop-color="#0419D0"/><stop offset=".979" stop-color="#2136F1"/></linearGradient><linearGradient id="paint18_linear_2_122" x1="317.737" y1="35.189" x2="31.888" y2="326.41" gradientUnits="userSpaceOnUse"><stop stop-color="#010B49"/><stop offset=".505" stop-color="#2302F0"/><stop offset=".719" stop-color="#21C9F1"/><stop offset=".885" stop-color="#0419D0"/><stop offset=".979" stop-color="#2136F1"/></linearGradient><linearGradient id="paint19_linear_2_122" x1="315.849" y1="37.691" x2="34.487" y2="324.341" gradientUnits="userSpaceOnUse"><stop stop-color="#010B49"/><stop offset=".505" stop-color="#2302F0"/><stop offset=".719" stop-color="#21C9F1"/><stop offset=".885" stop-color="#0419D0"/><stop offset=".979" stop-color="#2136F1"/></linearGradient><linearGradient id="paint20_linear_2_122" x1="313.567" y1="40.715" x2="37.628" y2="321.841" gradientUnits="userSpaceOnUse"><stop stop-color="#010B49"/><stop offset=".505" stop-color="#2302F0"/><stop offset=".719" stop-color="#21C9F1"/><stop offset=".885" stop-color="#0419D0"/><stop offset=".979" stop-color="#2136F1"/></linearGradient><linearGradient id="paint21_linear_2_122" x1="311.666" y1="43.234" x2="40.245" y2="319.757" gradientUnits="userSpaceOnUse"><stop stop-color="#010B49"/><stop offset=".505" stop-color="#2302F0"/><stop offset=".719" stop-color="#21C9F1"/><stop offset=".885" stop-color="#0419D0"/><stop offset=".979" stop-color="#2136F1"/></linearGradient><linearGradient id="paint22_linear_2_122" x1="309.873" y1="45.61" x2="42.713" y2="317.793" gradientUnits="userSpaceOnUse"><stop stop-color="#010B49"/><stop offset=".505" stop-color="#2302F0"/><stop offset=".719" stop-color="#21C9F1"/><stop offset=".885" stop-color="#0419D0"/><stop offset=".979" stop-color="#2136F1"/></linearGradient><linearGradient id="paint23_linear_2_122" x1="307.707" y1="48.481" x2="45.695" y2="315.419" gradientUnits="userSpaceOnUse"><stop stop-color="#010B49"/><stop offset=".505" stop-color="#2302F0"/><stop offset=".719" stop-color="#21C9F1"/><stop offset=".885" stop-color="#0419D0"/><stop offset=".979" stop-color="#2136F1"/></linearGradient><linearGradient id="paint24_linear_2_122" x1="305.571" y1="51.312" x2="48.636" y2="313.078" gradientUnits="userSpaceOnUse"><stop stop-color="#010B49"/><stop offset=".505" stop-color="#2302F0"/><stop offset=".719" stop-color="#21C9F1"/><stop offset=".885" stop-color="#0419D0"/><stop offset=".979" stop-color="#2136F1"/></linearGradient><linearGradient id="paint25_linear_2_122" x1="303.874" y1="53.562" x2="50.972" y2="311.218" gradientUnits="userSpaceOnUse"><stop stop-color="#010B49"/><stop offset=".505" stop-color="#2302F0"/><stop offset=".719" stop-color="#21C9F1"/><stop offset=".885" stop-color="#0419D0"/><stop offset=".979" stop-color="#2136F1"/></linearGradient><linearGradient id="paint26_linear_2_122" x1="301.823" y1="56.279" x2="53.795" y2="308.97" gradientUnits="userSpaceOnUse"><stop stop-color="#010B49"/><stop offset=".505" stop-color="#2302F0"/><stop offset=".719" stop-color="#21C9F1"/><stop offset=".885" stop-color="#0419D0"/><stop offset=".979" stop-color="#2136F1"/></linearGradient><linearGradient id="paint27_linear_2_122" x1="300.115" y1="58.544" x2="56.147" y2="307.098" gradientUnits="userSpaceOnUse"><stop stop-color="#010B49"/><stop offset=".505" stop-color="#2302F0"/><stop offset=".719" stop-color="#21C9F1"/><stop offset=".885" stop-color="#0419D0"/><stop offset=".979" stop-color="#2136F1"/></linearGradient><linearGradient id="paint28_linear_2_122" x1="298.503" y1="60.68" x2="58.366" y2="305.332" gradientUnits="userSpaceOnUse"><stop stop-color="#010B49"/><stop offset=".505" stop-color="#2302F0"/><stop offset=".719" stop-color="#21C9F1"/><stop offset=".885" stop-color="#0419D0"/><stop offset=".979" stop-color="#2136F1"/></linearGradient><linearGradient id="paint29_linear_2_122" x1="296.556" y1="63.261" x2="61.046" y2="303.198" gradientUnits="userSpaceOnUse"><stop stop-color="#010B49"/><stop offset=".505" stop-color="#2302F0"/><stop offset=".719" stop-color="#21C9F1"/><stop offset=".885" stop-color="#0419D0"/><stop offset=".979" stop-color="#2136F1"/></linearGradient><linearGradient id="paint30_linear_2_122" x1="294.817" y1="65.565" x2="63.44" y2="301.292" gradientUnits="userSpaceOnUse"><stop stop-color="#010B49"/><stop offset=".505" stop-color="#2302F0"/><stop offset=".719" stop-color="#21C9F1"/><stop offset=".885" stop-color="#0419D0"/><stop offset=".979" stop-color="#2136F1"/></linearGradient><linearGradient id="paint31_linear_2_122" x1="293.289" y1="67.591" x2="65.543" y2="299.617" gradientUnits="userSpaceOnUse"><stop stop-color="#010B49"/><stop offset=".505" stop-color="#2302F0"/><stop offset=".719" stop-color="#21C9F1"/><stop offset=".885" stop-color="#0419D0"/><stop offset=".979" stop-color="#2136F1"/></linearGradient><linearGradient id="paint32_linear_2_122" x1="291.442" y1="70.038" x2="68.085" y2="297.593" gradientUnits="userSpaceOnUse"><stop stop-color="#010B49"/><stop offset=".505" stop-color="#2302F0"/><stop offset=".719" stop-color="#21C9F1"/><stop offset=".885" stop-color="#0419D0"/><stop offset=".979" stop-color="#2136F1"/></linearGradient><linearGradient id="paint33_linear_2_122" x1="289.903" y1="72.078" x2="70.204" y2="295.907" gradientUnits="userSpaceOnUse"><stop stop-color="#010B49"/><stop offset=".505" stop-color="#2302F0"/><stop offset=".719" stop-color="#21C9F1"/><stop offset=".885" stop-color="#0419D0"/><stop offset=".979" stop-color="#2136F1"/></linearGradient><linearGradient id="paint34_linear_2_122" x1="288.452" y1="74.001" x2="72.202" y2="294.316" gradientUnits="userSpaceOnUse"><stop stop-color="#010B49"/><stop offset=".505" stop-color="#2302F0"/><stop offset=".719" stop-color="#21C9F1"/><stop offset=".885" stop-color="#0419D0"/><stop offset=".979" stop-color="#2136F1"/></linearGradient><linearGradient id="paint35_linear_2_122" x1="286.699" y1="76.325" x2="74.615" y2="292.395" gradientUnits="userSpaceOnUse"><stop stop-color="#010B49"/><stop offset=".505" stop-color="#2302F0"/><stop offset=".719" stop-color="#21C9F1"/><stop offset=".885" stop-color="#0419D0"/><stop offset=".979" stop-color="#2136F1"/></linearGradient><linearGradient id="paint36_linear_2_122" x1="285.248" y1="78.248" x2="76.613" y2="290.805" gradientUnits="userSpaceOnUse"><stop stop-color="#010B49"/><stop offset=".505" stop-color="#2302F0"/><stop offset=".719" stop-color="#21C9F1"/><stop offset=".885" stop-color="#0419D0"/><stop offset=".979" stop-color="#2136F1"/></linearGradient><linearGradient id="paint37_linear_2_122" x1="283.87" y1="80.074" x2="78.51" y2="289.294" gradientUnits="userSpaceOnUse"><stop stop-color="#010B49"/><stop offset=".505" stop-color="#2302F0"/><stop offset=".719" stop-color="#21C9F1"/><stop offset=".885" stop-color="#0419D0"/><stop offset=".979" stop-color="#2136F1"/></linearGradient><linearGradient id="paint38_linear_2_122" x1="282.204" y1="82.281" x2="80.802" y2="287.469" gradientUnits="userSpaceOnUse"><stop stop-color="#010B49"/><stop offset=".505" stop-color="#2302F0"/><stop offset=".719" stop-color="#21C9F1"/><stop offset=".885" stop-color="#0419D0"/><stop offset=".979" stop-color="#2136F1"/></linearGradient><linearGradient id="paint39_linear_2_122" x1="280.817" y1="84.12" x2="82.713" y2="285.949" gradientUnits="userSpaceOnUse"><stop stop-color="#010B49"/><stop offset=".505" stop-color="#2302F0"/><stop offset=".719" stop-color="#21C9F1"/><stop offset=".885" stop-color="#0419D0"/><stop offset=".979" stop-color="#2136F1"/></linearGradient><linearGradient id="paint40_linear_2_122" x1="279.508" y1="85.854" x2="84.514" y2="284.515" gradientUnits="userSpaceOnUse"><stop stop-color="#010B49"/><stop offset=".505" stop-color="#2302F0"/><stop offset=".719" stop-color="#21C9F1"/><stop offset=".885" stop-color="#0419D0"/><stop offset=".979" stop-color="#2136F1"/></linearGradient><linearGradient id="paint41_linear_2_122" x1="277.927" y1="87.95" x2="86.69" y2="282.782" gradientUnits="userSpaceOnUse"><stop stop-color="#010B49"/><stop offset=".505" stop-color="#2302F0"/><stop offset=".719" stop-color="#21C9F1"/><stop offset=".885" stop-color="#0419D0"/><stop offset=".979" stop-color="#2136F1"/></linearGradient><linearGradient id="paint42_linear_2_122" x1="276.515" y1="89.821" x2="88.634" y2="281.235" gradientUnits="userSpaceOnUse"><stop stop-color="#010B49"/><stop offset=".505" stop-color="#2302F0"/><stop offset=".719" stop-color="#21C9F1"/><stop offset=".885" stop-color="#0419D0"/><stop offset=".979" stop-color="#2136F1"/></linearGradient><linearGradient id="paint43_linear_2_122" x1="275.274" y1="91.466" x2="90.342" y2="279.874" gradientUnits="userSpaceOnUse"><stop stop-color="#010B49"/><stop offset=".505" stop-color="#2302F0"/><stop offset=".719" stop-color="#21C9F1"/><stop offset=".885" stop-color="#0419D0"/><stop offset=".979" stop-color="#2136F1"/></linearGradient><linearGradient id="paint44_linear_2_122" x1="273.775" y1="93.453" x2="92.407" y2="278.231" gradientUnits="userSpaceOnUse"><stop stop-color="#010B49"/><stop offset=".505" stop-color="#2302F0"/><stop offset=".719" stop-color="#21C9F1"/><stop offset=".885" stop-color="#0419D0"/><stop offset=".979" stop-color="#2136F1"/></linearGradient><linearGradient id="paint45_linear_2_122" x1="272.525" y1="95.11" x2="94.127" y2="276.862" gradientUnits="userSpaceOnUse"><stop stop-color="#010B49"/><stop offset=".505" stop-color="#2302F0"/><stop offset=".719" stop-color="#21C9F1"/><stop offset=".885" stop-color="#0419D0"/><stop offset=".979" stop-color="#2136F1"/></linearGradient><linearGradient id="paint46_linear_2_122" x1="271.347" y1="96.671" x2="95.749" y2="275.57" gradientUnits="userSpaceOnUse"><stop stop-color="#010B49"/><stop offset=".505" stop-color="#2302F0"/><stop offset=".719" stop-color="#21C9F1"/><stop offset=".885" stop-color="#0419D0"/><stop offset=".979" stop-color="#2136F1"/></linearGradient><linearGradient id="paint47_linear_2_122" x1="269.923" y1="98.558" x2="97.709" y2="274.01" gradientUnits="userSpaceOnUse"><stop stop-color="#010B49"/><stop offset=".505" stop-color="#2302F0"/><stop offset=".719" stop-color="#21C9F1"/><stop offset=".885" stop-color="#0419D0"/><stop offset=".979" stop-color="#2136F1"/></linearGradient></defs></svg>