<svg width="498" height="630" fill="none" xmlns="http://www.w3.org/2000/svg"><path d="M42.67 267.306c59.677 10.217 52.979 53.549 42.17 73.939-21.348 74.279-30.321 150.861-32.14 179.868 12.597 238.848 158.566 10.298 160.283-25.015 1.373-28.251 58.667-21.919 87.142-15.222 279.322 25.437 194.65-101.762 144.506-141.837-50.144-40.074 39.983 11.984 40.53-179.004.548-190.988-110.706-195.276-160.843-92.818-50.138 102.458-119.793 68.533-222.857 88.128-103.064 19.594-133.388 99.19-58.791 111.961z" stroke="url(#paint0_linear_2_244)" stroke-opacity=".8"/><defs><linearGradient id="paint0_linear_2_244" x1="401.034" y1="-34.695" x2="30.968" y2="629.922" gradientUnits="userSpaceOnUse"><stop stop-color="#0963B8"/><stop offset=".172" stop-color="#6200AE"/><stop offset=".318" stop-color="#1900AE"/><stop offset=".661" stop-color="#260091"/><stop offset=".896" stop-color="#4731FC"/><stop offset=".979" stop-color="#3221F1"/><stop offset="1" stop-color="#21C9F1"/></linearGradient></defs></svg>