<svg width="498" height="530" fill="none" xmlns="http://www.w3.org/2000/svg"><path d="M42.473 267.855c59.678 10.216 52.98 53.549 42.17 73.939-21.347 74.279-30.32 150.861-32.139 179.868C65.101 760.51 211.07 531.96 212.787 496.647c1.373-28.251 58.666-21.919 87.141-15.222 279.323 25.437 194.651-101.762 144.507-141.837-50.144-40.075 39.983 11.983 40.53-179.005.547-190.988-110.706-195.275-160.844-92.817-50.137 102.457-119.792 68.533-222.856 88.127-103.064 19.595-133.388 99.19-58.792 111.962z" stroke="url(#paint0_linear_2_244)" stroke-opacity=".8"/><defs><linearGradient id="paint0_linear_2_244" x1="400.838" y1="-34.146" x2="30.771" y2="630.471" gradientUnits="userSpaceOnUse"><stop stop-color="#0963B8"/><stop offset=".172" stop-color="#6200AE"/><stop offset=".318" stop-color="#1900AE"/><stop offset=".661" stop-color="#260091"/><stop offset=".896" stop-color="#4731FC"/><stop offset=".979" stop-color="#3221F1"/><stop offset="1" stop-color="#21C9F1"/></linearGradient></defs></svg>