<svg width="1127" height="1428" fill="none" xmlns="http://www.w3.org/2000/svg"><path d="M95.13 606.536c135.46 23.191 120.255 121.552 95.72 167.834-48.456 168.606-68.826 342.44-72.953 408.28 28.594 542.16 359.928 23.38 363.825-56.78 3.118-64.13 133.168-49.75 197.803-34.55 634.034 57.74 441.834-230.99 328.014-321.956-113.821-90.966 90.76 27.201 92-406.323 1.24-433.523-251.291-443.255-365.098-210.687C620.634 384.923 462.525 307.917 228.58 352.395-5.365 396.873-74.198 577.547 95.13 606.536z" stroke="url(#paint0_linear_2_197)" stroke-opacity=".8"/><defs><linearGradient id="paint0_linear_2_197" x1="908.581" y1="-78.975" x2="68.567" y2="1429.64" gradientUnits="userSpaceOnUse"><stop stop-color="#0963B8"/><stop offset=".172" stop-color="#6200AE"/><stop offset=".318" stop-color="#1900AE"/><stop offset=".661" stop-color="#260091"/><stop offset=".896" stop-color="#4731FC"/><stop offset=".979" stop-color="#3221F1"/><stop offset="1" stop-color="#21C9F1"/></linearGradient></defs></svg>